<?xml version="1.0" encoding="UTF-8"?><svg id="Background_2" xmlns="http://www.w3.org/2000/svg" xmlns:xlink="http://www.w3.org/1999/xlink" viewBox="0 0 750 500"><defs><style>.cls-1{fill:#00e5b9;}.cls-2{fill:#2d1d49;}.cls-3{clip-path:url(#clippath);}.cls-4{fill:none;}.cls-5{fill:#3c2a63;}.cls-6{fill:#fbce00;}.cls-7{fill:#951b70;}</style><clipPath id="clippath"><rect class="cls-4" width="750" height="500"/></clipPath></defs><rect class="cls-2" width="750" height="500"/><g class="cls-3"><g><polygon class="cls-5" points="246.92 555.1 338.51 459.35 208.69 428.39 246.92 555.1"/><polygon class="cls-5" points="223.31 181.04 317.28 218.44 302.03 117.72 223.31 181.04"/><polygon class="cls-5" points="365.46 230.08 435.37 157 336.28 133.37 365.46 230.08"/><polygon class="cls-5" points="-32.82 259.5 23.62 200.48 -56.39 181.4 -32.82 259.5"/><polygon class="cls-5" points="439.84 396.26 497.75 419.32 488.36 357.24 439.84 396.26"/><polygon class="cls-5" points="604.58 495.93 647.67 450.89 586.6 436.32 604.58 495.93"/><polygon class="cls-5" points="419.77 55.1 462.86 10.05 401.78 -4.51 419.77 55.1"/><polygon class="cls-5" points="209.43 389.88 213.15 334.67 163.25 359.51 209.43 389.88"/><polygon class="cls-5" points="353.29 366.32 374.36 424.98 414.66 376.83 353.29 366.32"/><polygon class="cls-5" points="122.14 194.95 87.03 246.45 149.67 250.8 122.14 194.95"/><polygon class="cls-5" points="570.38 105.57 591.46 164.23 631.75 116.08 570.38 105.57"/><polygon class="cls-5" points="615.56 356.9 583.86 380.05 620.11 395.84 615.56 356.9"/><polygon class="cls-5" points="338.38 38.94 306.68 62.09 342.93 77.88 338.38 38.94"/><polygon class="cls-5" points="665.63 322.76 678.41 315.57 665.66 308.11 665.63 322.76"/><polygon class="cls-5" points="704.54 427.67 718.45 467.94 676.36 459.56 704.54 427.67"/><polygon class="cls-5" points="498.38 562.22 578.79 478.16 464.82 450.98 498.38 562.22"/><polygon class="cls-5" points="720.63 231.22 754.61 195.69 706.44 184.2 720.63 231.22"/><polygon class="cls-5" points="703.88 -9.5 678.88 8.76 707.47 21.22 703.88 -9.5"/><polygon class="cls-5" points="561.46 9.97 572.43 41.74 539.23 35.13 561.46 9.97"/><polygon class="cls-5" points="4.25 38.9 -12.6 85.68 36.64 76.55 4.25 38.9"/><polygon class="cls-5" points="43.8 -20.82 48.15 24.54 85.38 -2.3 43.8 -20.82"/><polygon class="cls-5" points="545.78 305.72 507.74 315.37 535.47 343.54 545.78 305.72"/><polygon class="cls-5" points="144.19 468.45 106.14 478.1 133.88 506.27 144.19 468.45"/><polygon class="cls-5" points="80.15 66.28 70.02 166.9 162.67 124.54 80.15 66.28"/><polygon class="cls-5" points="509.81 70.51 458.38 108.07 517.19 133.7 509.81 70.51"/><polygon class="cls-5" points="649.81 95.32 670.54 83.65 649.86 71.55 649.81 95.32"/><polygon class="cls-5" points="24.33 459.68 45.06 448.02 24.37 435.92 24.33 459.68"/><polygon class="cls-5" points="634.08 210.53 656.66 275.87 588.36 262.28 634.08 210.53"/><polygon class="cls-5" points="101.37 330.63 123.94 395.97 55.64 382.38 101.37 330.63"/><polygon class="cls-5" points="290.22 400.93 420.68 264.55 235.76 220.45 290.22 400.93"/><polygon class="cls-5" points="473.52 183.03 482.46 276.33 559.04 221.12 473.52 183.03"/><polygon class="cls-5" points="218.65 17.31 167.22 54.87 226.02 80.5 218.65 17.31"/></g><g><g><polygon class="cls-7" points="574.46 107.14 492.55 146.23 506.17 156.49 438.69 202.68 524.09 159.64 510.47 149.38 574.46 107.14"/><polygon class="cls-6" points="568.51 101.39 486.61 140.47 500.23 150.74 432.74 196.93 518.14 153.89 504.52 143.62 568.51 101.39"/></g><g><polygon class="cls-7" points="560.06 -82.79 502.98 -12.24 519.69 -8.85 478.68 61.91 537.21 -13.72 520.5 -17.11 560.06 -82.79"/><polygon class="cls-6" points="552.22 -85.42 495.14 -14.88 511.85 -11.48 470.83 59.27 529.37 -16.35 512.66 -19.75 552.22 -85.42"/></g><g><polygon class="cls-7" points="121.27 431.58 173.58 401.22 174.1 412.57 224.9 392.82 169.1 423.61 168.58 412.26 121.27 431.58"/><polygon class="cls-6" points="120.34 426.14 172.65 395.79 173.17 407.14 223.97 387.38 168.17 418.18 167.65 406.82 120.34 426.14"/></g><g><polygon class="cls-7" points="724.07 336.95 779.82 360.38 771.08 367.64 817.46 396.26 759.25 370.3 768 363.04 724.07 336.95"/><polygon class="cls-6" points="727.84 332.93 783.6 356.36 774.85 363.62 821.24 392.24 763.03 366.29 771.77 359.02 727.84 332.93"/></g><g><polygon class="cls-7" points="111.79 75.1 181.17 133.59 165.4 140.09 219.05 201.82 147.28 138.61 163.05 132.12 111.79 75.1"/><polygon class="cls-1" points="118.99 71.03 188.38 129.53 172.61 136.02 226.25 197.75 154.48 134.55 170.25 128.05 118.99 71.03"/></g><g><polygon class="cls-7" points="560.1 439.6 629.49 498.09 613.72 504.58 667.36 566.31 595.59 503.11 611.36 496.62 560.1 439.6"/><polygon class="cls-1" points="567.31 435.53 636.69 494.02 620.92 500.51 674.57 562.24 602.8 499.04 618.57 492.55 567.31 435.53"/></g><g><polygon class="cls-7" points="174.54 512.63 261.13 485.5 249.1 473.42 322.43 437.21 231.81 467.77 243.85 479.85 174.54 512.63"/><polygon class="cls-1" points="179.61 519.17 266.21 492.03 254.17 479.95 327.5 443.75 236.89 474.31 248.92 486.39 179.61 519.17"/></g><polygon class="cls-7" points="428.32 328.42 387.34 337.27 375.87 382.01 407.55 409.48 448.53 400.63 460 355.89 428.32 328.42"/><g><polygon class="cls-1" points="382.29 399.31 413.97 426.78 425.43 382.05 393.76 354.57 382.29 399.31"/><polygon class="cls-7" points="413.97 426.78 454.95 417.93 466.42 373.2 425.43 382.05 413.97 426.78"/><polygon class="cls-6" points="393.76 354.57 425.43 382.05 466.42 373.2 434.74 345.72 393.76 354.57"/></g><g><polygon class="cls-1" points="715.61 166.9 753.41 199.69 767.1 146.3 729.29 113.51 715.61 166.9"/><polygon class="cls-6" points="729.29 113.51 767.1 146.3 816.01 135.73 778.21 102.94 729.29 113.51"/></g><g><polygon class="cls-1" points="612.06 89.71 632.54 85.23 618.04 67.26 597.56 71.74 612.06 89.71"/><polygon class="cls-7" points="632.54 85.23 641.25 66.16 626.75 48.19 618.04 67.26 632.54 85.23"/><polygon class="cls-6" points="597.56 71.74 618.04 67.26 626.75 48.19 606.27 52.67 597.56 71.74"/></g><g><polygon class="cls-1" points="235.44 234.66 230.67 214.24 253.13 219.6 257.9 240.02 235.44 234.66"/><polygon class="cls-7" points="230.67 214.24 244.14 198.18 266.6 203.53 253.13 219.6 230.67 214.24"/><polygon class="cls-6" points="257.9 240.02 253.13 219.6 266.6 203.53 271.37 223.95 257.9 240.02"/></g><g><path class="cls-7" d="M214.81,331.94c-.57,.28-1.22,.29-1.69,.02l-14.03-8.03-2.33,16c-.08,.53-.48,1.03-1.06,1.31-.58,.28-1.22,.29-1.69,.02l-14.03-8.03-2.34,16c-.08,.53-.48,1.03-1.06,1.31-.57,.28-1.22,.29-1.69,.02l-14.03-8.03-2.33,16c-.08,.53-.48,1.03-1.06,1.31-.58,.28-1.22,.29-1.69,.02l-14.03-8.03-2.33,16c-.08,.53-.48,1.03-1.06,1.31-.57,.28-1.22,.29-1.69,.02l-14.03-8.03-2.33,16c-.08,.53-.48,1.03-1.06,1.31-.57,.28-1.22,.29-1.69,.02l-16.38-9.38c-.69-.4-.76-1.27-.16-1.95,.6-.68,1.66-.92,2.35-.52l14.03,8.03,2.33-16c.08-.53,.48-1.03,1.06-1.31,.57-.28,1.22-.29,1.69-.02l14.03,8.03,2.33-16c.08-.53,.48-1.03,1.06-1.31,.57-.28,1.22-.29,1.69-.02l14.03,8.03,2.33-16c.08-.53,.48-1.03,1.06-1.31,.57-.28,1.22-.29,1.69-.02l14.03,8.03,2.34-16c.08-.53,.48-1.03,1.06-1.31,.57-.28,1.22-.29,1.69-.02l14.03,8.03,2.34-16c.08-.53,.48-1.03,1.06-1.31,.57-.28,1.22-.29,1.69-.02l14.03,8.03,2.34-16c.12-.79,.95-1.47,1.86-1.53,.91-.05,1.56,.54,1.44,1.33l-2.73,18.68c-.08,.53-.48,1.03-1.06,1.31Z"/><path class="cls-1" d="M209.89,332.65c-.57,.28-1.22,.29-1.69,.02l-14.03-8.03-2.33,16c-.08,.53-.48,1.03-1.06,1.31-.58,.28-1.22,.29-1.69,.02l-14.03-8.03-2.34,16c-.08,.53-.48,1.03-1.06,1.31-.57,.28-1.22,.29-1.69,.02l-14.03-8.03-2.33,16c-.08,.53-.48,1.03-1.06,1.31-.58,.28-1.22,.29-1.69,.02l-14.03-8.03-2.33,16c-.08,.53-.48,1.03-1.06,1.31-.57,.28-1.22,.29-1.69,.02l-14.03-8.03-2.33,16c-.08,.53-.48,1.03-1.06,1.31-.57,.28-1.22,.29-1.69,.02l-16.38-9.38c-.69-.4-.76-1.27-.16-1.96,.6-.68,1.66-.92,2.35-.52l14.03,8.03,2.33-16c.08-.53,.48-1.03,1.06-1.31,.57-.28,1.22-.29,1.69-.02l14.03,8.03,2.33-16c.08-.53,.48-1.03,1.06-1.31,.57-.28,1.22-.29,1.69-.02l14.03,8.03,2.33-16c.08-.53,.48-1.03,1.06-1.31,.57-.28,1.22-.29,1.69-.02l14.03,8.03,2.34-16c.08-.53,.48-1.03,1.06-1.31s1.22-.29,1.69-.02l14.03,8.03,2.34-16c.08-.53,.48-1.03,1.06-1.31,.57-.28,1.22-.29,1.69-.02l14.03,8.03,2.34-16c.12-.79,.95-1.47,1.86-1.53,.91-.05,1.56,.54,1.44,1.33l-2.73,18.68c-.08,.53-.48,1.03-1.06,1.31Z"/></g><g><path class="cls-7" d="M692.09,198.77c-.81,.25-1.65,.13-2.2-.31l-16.67-13.33-6.3,20.39c-.21,.67-.84,1.25-1.65,1.5-.81,.25-1.65,.13-2.2-.31l-16.67-13.33-6.3,20.39c-.21,.67-.84,1.25-1.65,1.5-.81,.25-1.65,.13-2.2-.31l-16.67-13.33-6.3,20.39c-.21,.67-.84,1.25-1.65,1.5-.81,.25-1.65,.13-2.2-.31l-16.67-13.33-6.3,20.39c-.21,.67-.84,1.25-1.65,1.5-.81,.25-1.65,.13-2.2-.31l-16.67-13.33-6.3,20.39c-.21,.67-.84,1.25-1.65,1.5s-1.65,.13-2.2-.31l-19.46-15.57c-.82-.66-.73-1.81,.19-2.58,.93-.77,2.34-.86,3.17-.2l16.67,13.33,6.3-20.39c.21-.67,.84-1.25,1.65-1.5,.81-.25,1.65-.13,2.2,.31l16.67,13.33,6.3-20.39c.21-.67,.84-1.25,1.65-1.5,.81-.25,1.65-.13,2.2,.31l16.67,13.33,6.3-20.39c.21-.67,.84-1.25,1.65-1.5,.81-.25,1.65-.13,2.2,.31l16.67,13.33,6.3-20.39c.21-.67,.84-1.25,1.65-1.5,.81-.25,1.65-.13,2.2,.31l16.67,13.33,6.3-20.39c.21-.67,.84-1.25,1.65-1.5,.81-.25,1.65-.13,2.2,.31l16.67,13.33,6.3-20.39c.31-1,1.53-1.73,2.73-1.61,1.2,.12,1.92,1.02,1.61,2.03l-7.36,23.81c-.21,.67-.84,1.25-1.65,1.5Z"/><path class="cls-1" d="M685.52,198.69c-.81,.25-1.65,.13-2.2-.31l-16.67-13.33-6.3,20.39c-.21,.67-.84,1.25-1.65,1.5-.81,.25-1.65,.13-2.2-.31l-16.67-13.33-6.3,20.39c-.21,.67-.84,1.25-1.65,1.5-.81,.25-1.65,.13-2.2-.31l-16.67-13.33-6.3,20.39c-.21,.67-.84,1.25-1.65,1.5-.81,.25-1.65,.13-2.2-.31l-16.67-13.33-6.3,20.39c-.21,.67-.84,1.25-1.65,1.5-.81,.25-1.65,.13-2.2-.31l-16.67-13.33-6.3,20.39c-.21,.67-.84,1.25-1.65,1.5-.81,.25-1.65,.13-2.2-.31l-19.46-15.57c-.82-.66-.74-1.81,.19-2.58,.93-.77,2.35-.86,3.17-.2l16.67,13.33,6.3-20.39c.21-.67,.84-1.25,1.65-1.5,.81-.25,1.65-.13,2.2,.31l16.67,13.33,6.3-20.39c.21-.67,.84-1.25,1.65-1.5,.81-.25,1.65-.13,2.2,.31l16.67,13.33,6.3-20.39c.21-.67,.84-1.25,1.65-1.5,.81-.25,1.65-.13,2.2,.31l16.67,13.33,6.3-20.39c.21-.67,.84-1.25,1.65-1.5,.81-.25,1.65-.13,2.2,.31l16.67,13.33,6.3-20.39c.21-.67,.84-1.25,1.65-1.5,.81-.25,1.65-.13,2.2,.31l16.67,13.33,6.3-20.39c.31-1,1.53-1.73,2.73-1.61,1.2,.12,1.92,1.02,1.61,2.03l-7.36,23.81c-.21,.67-.84,1.25-1.65,1.5Z"/></g><g><path class="cls-1" d="M440.73,302.59c.06-.22,0-.5-.18-.73-.17-.24-.42-.39-.65-.39l-6.83-.14,1.88-6.56c.06-.22,0-.5-.18-.73-.17-.24-.42-.38-.65-.39l-6.83-.14,1.88-6.56c.06-.22,0-.5-.18-.73-.17-.24-.42-.39-.65-.39l-6.83-.14,1.88-6.56c.06-.22,0-.5-.18-.73-.17-.24-.42-.39-.65-.39l-6.83-.14,1.88-6.56c.09-.32-.11-.77-.45-1-.16-.1-.31-.14-.45-.12l-6.77-.14,1.88-6.56c.06-.22,0-.5-.18-.73-.17-.24-.42-.39-.65-.39l-6.83-.14,1.88-6.56c.06-.22,0-.5-.18-.73-.17-.24-.42-.39-.65-.39l-6.83-.14,1.88-6.56c.06-.22,0-.5-.18-.73-.17-.24-.42-.39-.65-.39l-6.83-.14,1.88-6.56c.06-.22,0-.5-.18-.73-.17-.24-.42-.39-.65-.39l-6.83-.14,1.32-4.62-1.53,.2-1.35,4.7c-.06,.22,0,.5,.18,.73,.17,.24,.42,.39,.65,.39l6.83,.14-1.88,6.56c-.06,.22,0,.5,.18,.73,.17,.24,.42,.39,.65,.39l6.83,.14-1.88,6.56c-.06,.22,0,.5,.18,.73,.17,.24,.42,.39,.65,.39l6.83,.14-1.88,6.56c-.06,.22,0,.5,.18,.73,.17,.24,.42,.38,.65,.39l6.83,.14-1.88,6.57c-.06,.22,0,.5,.18,.73,.17,.24,.42,.39,.65,.39l6.84,.14-1.88,6.56c-.06,.22,0,.5,.18,.73,.17,.24,.42,.39,.65,.39l6.83,.14-1.88,6.56c-.06,.22,0,.5,.18,.73,.17,.24,.42,.39,.65,.39l6.83,.14-1.88,6.56c-.06,.22,0,.5,.18,.73,.17,.24,.42,.38,.65,.39l6.83,.14-1.88,6.56c-.06,.22,0,.5,.18,.73,.17,.24,.42,.39,.65,.39l6.83,.14-1.88,6.56c-.06,.22,0,.5,.18,.73s.42,.39,.65,.39l5.85,.12,.59-1.41-5.72-.12,1.88-6.56Z"/><path class="cls-1" d="M448.85,296.64c.06-.22,0-.5-.18-.73-.17-.24-.42-.39-.65-.39l-6.83-.14,1.88-6.56c.06-.22,0-.5-.18-.73-.17-.24-.42-.39-.65-.39l-6.83-.14,1.88-6.56c.06-.22,0-.5-.18-.73-.17-.24-.42-.39-.65-.39l-6.83-.14,1.88-6.56c.09-.32-.11-.77-.45-1-.16-.1-.31-.14-.45-.12l-6.77-.14,1.88-6.57c.06-.22,0-.5-.18-.73-.17-.24-.42-.39-.65-.39l-6.83-.14,1.88-6.56c.06-.22,0-.5-.18-.73-.17-.24-.42-.39-.65-.39l-6.83-.14,1.88-6.56c.06-.22,0-.5-.18-.73-.17-.24-.42-.39-.65-.39l-6.83-.14,1.88-6.56c.06-.22,0-.5-.18-.73-.17-.24-.42-.39-.65-.39l-6.83-.14,1.88-6.56c.06-.22,0-.5-.18-.73-.17-.24-.42-.39-.65-.39l-3.85-.08-4.53,.59c.03,.12,.09,.25,.18,.37,.17,.24,.42,.39,.65,.39l6.83,.14-1.88,6.56c-.06,.22,0,.5,.18,.73,.17,.24,.42,.39,.65,.39l6.83,.14-1.88,6.56c-.06,.22,0,.5,.18,.73,.17,.24,.42,.39,.65,.39l6.83,.14-1.88,6.56c-.06,.22,0,.5,.18,.73,.17,.24,.42,.39,.65,.39l6.83,.14-1.88,6.56c-.06,.22,0,.5,.18,.73,.17,.24,.42,.39,.65,.39l6.83,.14-1.88,6.57c-.06,.22,0,.5,.18,.73,.17,.24,.42,.39,.65,.39l6.84,.14-1.88,6.56c-.06,.22,0,.5,.18,.73,.17,.24,.42,.39,.65,.39l6.83,.14-1.88,6.56c-.06,.22,0,.5,.18,.73,.17,.24,.42,.39,.65,.39l6.83,.14-1.88,6.56c-.06,.22,0,.5,.18,.73,.17,.24,.42,.38,.65,.39l6.83,.14-1.88,6.56c-.06,.22,0,.5,.18,.73,.17,.24,.42,.39,.65,.39h.28s.59-1.4,.59-1.4h-.15s1.88-6.57,1.88-6.57Z"/><path class="cls-1" d="M449.32,289.43l1.88-6.56c.06-.22,0-.5-.18-.73-.17-.24-.42-.39-.65-.39l-6.83-.14,1.88-6.56c.09-.32-.11-.77-.45-1-.16-.1-.31-.14-.45-.12l-6.77-.14,1.88-6.56c.06-.22,0-.5-.18-.73-.17-.24-.42-.39-.65-.39l-6.83-.14,1.88-6.56c.06-.22,0-.5-.18-.73-.17-.24-.42-.38-.65-.39l-6.83-.14,1.88-6.56c.06-.22,0-.5-.18-.73-.17-.24-.42-.39-.65-.39l-6.83-.14,1.88-6.56c.06-.22,0-.5-.18-.73-.17-.24-.42-.39-.65-.39l-6.83-.14,1.88-6.56c.06-.22,0-.5-.18-.73-.17-.24-.42-.39-.65-.39l-6.83-.14,.96-3.36-1.53,.2-.98,3.44c-.06,.22,0,.5,.18,.73,.17,.24,.42,.39,.65,.39l6.83,.14-1.88,6.56c-.06,.22,0,.5,.18,.73,.17,.24,.42,.39,.65,.39l6.83,.14-1.88,6.56c-.06,.22,0,.5,.18,.73,.17,.24,.42,.39,.65,.39l6.83,.14-1.88,6.56c-.06,.22,0,.5,.18,.73,.17,.24,.42,.39,.65,.39l6.83,.14-1.88,6.56c-.06,.22,0,.5,.18,.73,.17,.24,.42,.38,.65,.39l6.83,.14-1.88,6.57c-.06,.22,0,.5,.18,.73,.17,.24,.42,.39,.65,.39l6.84,.14-1.88,6.56c-.06,.22,0,.5,.18,.73,.17,.24,.42,.39,.65,.39l6.83,.14-1.88,6.56c-.06,.22,0,.5,.18,.73,.17,.24,.42,.39,.65,.39l3.71,.08,.59-1.41-3.58-.08Z"/><path class="cls-1" d="M414.68,231.33l6.83,.14-1.88,6.56c-.06,.22,0,.5,.18,.73,.17,.24,.42,.39,.65,.39l6.83,.14-1.88,6.56c-.06,.22,0,.5,.18,.73,.17,.24,.42,.39,.65,.39l6.83,.14-1.88,6.56c-.06,.22,0,.5,.18,.73,.17,.24,.42,.39,.65,.39l6.83,.14-1.88,6.56c-.06,.22,0,.5,.18,.73,.17,.24,.42,.39,.65,.39l6.84,.14-1.88,6.55c-.06,.22,0,.5,.18,.73,.17,.24,.42,.39,.65,.39l6.83,.14-1.88,6.56c-.06,.22,0,.5,.18,.73,.17,.24,.42,.39,.65,.39l6.83,.14-1.88,6.56c-.06,.21,0,.49,.17,.72l3.28-7.78c0-.17-.08-.36-.2-.52-.17-.24-.42-.39-.65-.39l-6.83-.14,1.88-6.56c.06-.22,0-.5-.18-.73-.17-.24-.42-.38-.65-.39l-6.83-.14,1.88-6.56c.09-.32-.11-.77-.45-1-.16-.1-.31-.14-.45-.12l-6.77-.14,1.88-6.57c.06-.22,0-.5-.18-.73-.17-.24-.42-.39-.65-.39l-6.83-.14,1.88-6.56c.06-.22,0-.5-.18-.73-.17-.24-.42-.39-.65-.39l-6.83-.14,1.88-6.56c.06-.22,0-.5-.18-.73-.17-.24-.42-.39-.65-.39l-6.83-.14,1.88-6.56c.06-.22,0-.5-.18-.73-.17-.24-.42-.39-.65-.39l-2.77-.06-5.55,.72c.03,.07,.07,.15,.12,.21,.17,.24,.42,.39,.65,.39Z"/><path class="cls-1" d="M426.35,234.09c.17,.24,.42,.39,.65,.39l6.83,.14-1.88,6.56c-.06,.22,0,.5,.18,.73,.17,.24,.42,.39,.65,.39l6.83,.14-1.88,6.57c-.06,.22,0,.5,.18,.73,.17,.24,.42,.39,.65,.39l6.84,.14-1.88,6.56c-.06,.22,0,.5,.18,.73,.17,.24,.42,.39,.65,.39l6.83,.14-1.88,6.56c-.06,.22,0,.5,.18,.73,.17,.24,.42,.39,.65,.39l6.83,.14-1.88,6.56c-.06,.22,0,.5,.18,.73,.17,.24,.42,.38,.65,.39l3.65,.08,.59-1.41-3.52-.07,1.88-6.56c.06-.22,0-.5-.18-.73-.17-.24-.42-.39-.65-.39l-6.83-.14,1.88-6.56c.06-.22,0-.5-.18-.73-.17-.24-.42-.39-.65-.39l-6.83-.14,1.88-6.56c.09-.32-.11-.77-.45-1-.16-.1-.31-.14-.45-.12l-6.77-.14,1.88-6.57c.06-.22,0-.5-.18-.73-.17-.24-.42-.39-.65-.39l-6.83-.14,1.88-6.56c.06-.22,0-.5-.18-.73-.17-.24-.42-.39-.65-.39l-6.83-.14,1.23-4.29-1.53,.2-1.25,4.37c-.06,.22,0,.5,.18,.73Z"/><path class="cls-1" d="M432.9,229.4c.17,.24,.42,.39,.65,.39l6.83,.14-1.88,6.57c-.06,.22,0,.5,.18,.73,.17,.24,.42,.39,.65,.39l6.84,.14-1.88,6.56c-.06,.22,0,.5,.18,.73,.17,.24,.42,.39,.65,.39l6.83,.14-1.88,6.56c-.06,.22,0,.5,.18,.73,.17,.24,.42,.39,.65,.39l6.83,.14-1.88,6.56c-.06,.22,0,.5,.18,.73,.17,.24,.42,.39,.65,.39l6.83,.14-1.88,6.56c-.06,.19,0,.44,.14,.66l3.3-7.83c-.03-.14-.09-.28-.18-.41-.17-.24-.42-.39-.65-.39l-6.83-.14,1.88-6.56c.06-.22,0-.5-.18-.74-.17-.24-.42-.38-.65-.39l-6.83-.14,1.88-6.56c.06-.22,0-.5-.18-.73-.17-.24-.42-.39-.65-.39l-6.83-.14,1.88-6.56c.09-.32-.11-.77-.45-1-.16-.1-.31-.14-.45-.12l-6.77-.14,1.88-6.57c.06-.22,0-.5-.18-.73-.17-.24-.42-.39-.65-.39l-6.83-.14,.08-.3-1.53,.2-.11,.38c-.06,.22,0,.5,.18,.73Z"/><path class="cls-1" d="M445.24,232.54c.17,.24,.42,.39,.65,.39l6.83,.14-1.88,6.56c-.06,.22,0,.5,.18,.73,.17,.24,.42,.39,.65,.39l6.83,.14-1.88,6.56c-.06,.22,0,.5,.18,.73,.17,.24,.42,.39,.65,.39l6.83,.14-1.88,6.56c-.06,.22,0,.5,.18,.73,.17,.24,.42,.39,.65,.39l3.59,.08,.59-1.41-3.45-.07,1.88-6.56c.06-.22,0-.5-.18-.73-.17-.24-.42-.39-.65-.39l-6.83-.14,1.88-6.56c.06-.22,0-.5-.18-.73-.17-.24-.42-.39-.65-.39l-6.83-.14,1.88-6.56c.06-.22,0-.5-.18-.73-.17-.24-.42-.39-.65-.39l-6.83-.14,1.49-5.21-1.53,.2-1.51,5.3c-.06,.22,0,.5,.18,.73Z"/><path class="cls-1" d="M451.78,227.85c.17,.24,.42,.39,.65,.39l6.83,.14-1.88,6.56c-.06,.22,0,.5,.18,.73,.17,.24,.42,.39,.65,.39l6.83,.14-1.88,6.56c-.06,.22,0,.5,.18,.73,.17,.24,.42,.39,.65,.39l6.83,.14-1.88,6.56c-.05,.18,0,.4,.1,.6l3.31-7.86c-.03-.11-.08-.22-.16-.32-.17-.24-.42-.39-.65-.39l-6.83-.14,1.88-6.56c.06-.22,0-.5-.18-.73-.17-.24-.42-.39-.65-.39l-6.83-.14,1.88-6.56c.06-.22,0-.5-.18-.73-.17-.24-.42-.39-.65-.39l-6.83-.14,.35-1.22-1.53,.2-.37,1.31c-.06,.22,0,.5,.18,.73Z"/><path class="cls-1" d="M464.1,231c.17,.24,.42,.39,.65,.39l6.83,.14-1.88,6.56c-.06,.22,0,.5,.18,.73,.17,.24,.42,.39,.65,.39l3.52,.07,.59-1.41-3.39-.07,1.88-6.56c.06-.22,0-.5-.18-.73-.17-.24-.42-.39-.65-.39l-6.83-.14,1.76-6.14-1.53,.2-1.78,6.22c-.06,.22,0,.5,.18,.73Z"/><path class="cls-1" d="M470.65,226.31c.17,.24,.42,.39,.65,.39l6.83,.14-1.88,6.56c-.04,.16-.02,.35,.06,.53l3.32-7.88c-.03-.08-.07-.16-.13-.23-.17-.24-.42-.39-.65-.39l-6.83-.14,.62-2.15-1.53,.2-.64,2.24c-.06,.22,0,.5,.18,.73Z"/></g><polygon class="cls-6" points="366.35 225.31 426.99 306.25 466.54 212.37 366.35 225.31"/><g><path class="cls-6" d="M613.98,329.98c-.28-.03-.62,.13-.87,.4-.25,.27-.38,.62-.33,.9l1.45,8.5-8.59-.77c-.28-.03-.62,.13-.87,.4s-.38,.62-.33,.9l1.45,8.5-8.59-.77c-.28-.03-.62,.13-.87,.4-.25,.27-.38,.62-.33,.9l1.45,8.5-8.59-.77c-.28-.03-.62,.13-.87,.4-.25,.27-.38,.62-.33,.9l1.45,8.5-8.59-.77c-.42-.04-.93,.32-1.13,.8-.09,.22-.1,.42-.05,.59l1.43,8.43-8.59-.77c-.28-.03-.62,.13-.87,.4-.25,.27-.38,.62-.33,.9l1.45,8.5-8.59-.77c-.28-.03-.62,.13-.87,.4-.25,.27-.38,.62-.33,.9l1.45,8.5-8.59-.77c-.28-.03-.62,.13-.87,.4s-.38,.62-.33,.9l1.45,8.5-8.59-.77c-.28-.03-.62,.13-.87,.4-.25,.27-.38,.62-.33,.9l1.45,8.5-6.05-.54,.61,1.86,6.16,.55c.28,.02,.62-.13,.87-.4,.25-.27,.38-.62,.33-.9l-1.45-8.5,8.59,.77c.28,.03,.62-.13,.87-.4,.25-.27,.38-.62,.33-.9l-1.45-8.5,8.59,.77c.28,.03,.62-.13,.87-.4,.25-.27,.38-.62,.33-.9l-1.45-8.5,8.59,.77c.28,.03,.62-.13,.87-.4,.25-.27,.38-.62,.33-.9l-1.45-8.5,8.59,.77c.28,.03,.62-.13,.87-.4,.25-.27,.38-.62,.33-.9l-1.45-8.52,8.58,.77c.28,.03,.62-.13,.87-.4s.38-.62,.33-.9l-1.45-8.5,8.59,.77c.28,.03,.62-.13,.87-.4,.25-.27,.38-.62,.33-.9l-1.45-8.5,8.59,.77c.28,.03,.62-.13,.87-.4,.25-.27,.38-.62,.33-.9l-1.45-8.5,8.59,.77c.28,.03,.62-.13,.87-.4,.25-.27,.38-.62,.33-.9l-1.45-8.5,8.59,.77c.28,.03,.62-.13,.87-.4,.25-.27,.38-.62,.33-.9l-1.24-7.29-1.89-.4,1.21,7.12-8.59-.77Z"/><path class="cls-6" d="M604.67,321.32c-.28-.03-.62,.13-.87,.4-.25,.27-.38,.62-.33,.9l1.45,8.5-8.59-.77c-.28-.02-.62,.13-.87,.4-.25,.27-.38,.62-.33,.9l1.45,8.5-8.59-.77c-.28-.03-.62,.13-.87,.4-.25,.27-.38,.62-.33,.9l1.45,8.5-8.59-.77c-.42-.04-.93,.32-1.13,.8-.09,.22-.1,.42-.04,.59l1.43,8.43-8.59-.77c-.28-.03-.62,.13-.87,.4-.25,.27-.38,.62-.33,.9l1.45,8.5-8.59-.77c-.28-.03-.62,.13-.87,.4-.25,.27-.38,.62-.33,.9l1.45,8.5-8.59-.77c-.28-.03-.62,.13-.87,.4s-.38,.62-.33,.9l1.45,8.5-8.59-.77c-.28-.03-.62,.13-.87,.4-.25,.27-.38,.62-.33,.9l1.45,8.5-8.59-.77c-.28-.02-.62,.13-.87,.4-.25,.27-.38,.62-.33,.9l.82,4.79,1.8,5.48c.15-.07,.29-.17,.41-.31,.25-.27,.38-.62,.33-.9l-1.45-8.5,8.59,.77c.28,.03,.62-.13,.87-.4,.25-.27,.38-.62,.33-.9l-1.45-8.5,8.59,.77c.28,.03,.62-.13,.87-.4,.25-.27,.38-.62,.33-.9l-1.45-8.5,8.59,.77c.28,.03,.62-.13,.87-.4,.25-.27,.38-.62,.33-.9l-1.45-8.5,8.59,.77c.28,.03,.62-.13,.87-.4,.25-.27,.38-.62,.33-.9l-1.45-8.5,8.59,.77c.28,.02,.62-.13,.87-.4,.25-.27,.38-.62,.33-.9l-1.45-8.52,8.58,.77c.28,.03,.62-.13,.87-.4s.38-.62,.33-.9l-1.45-8.5,8.59,.77c.28,.02,.62-.13,.87-.4,.25-.27,.38-.62,.33-.9l-1.45-8.5,8.59,.77c.28,.03,.62-.13,.87-.4s.38-.62,.33-.9l-1.45-8.5,8.59,.77c.28,.03,.62-.13,.87-.4,.25-.27,.38-.62,.33-.9l-.06-.35-1.89-.4,.03,.19-8.59-.77Z"/><path class="cls-6" d="M595.61,322.46l-8.59-.77c-.28-.02-.62,.13-.87,.4-.25,.27-.38,.62-.33,.9l1.45,8.5-8.59-.77c-.42-.04-.93,.32-1.13,.8-.09,.22-.1,.42-.04,.59l1.43,8.43-8.59-.77c-.28-.02-.62,.13-.87,.4-.25,.27-.38,.62-.33,.9l1.45,8.5-8.59-.77c-.28-.03-.62,.13-.87,.4-.25,.27-.38,.62-.33,.9l1.45,8.5-8.59-.77c-.28-.03-.62,.13-.87,.4s-.38,.62-.33,.9l1.45,8.5-8.59-.77c-.28-.03-.62,.13-.87,.4-.25,.27-.38,.62-.33,.9l1.45,8.5-8.59-.77c-.28-.03-.62,.13-.87,.4-.25,.27-.38,.62-.33,.9l1.45,8.5-4.39-.39,.61,1.86,4.5,.4c.28,.03,.62-.13,.87-.4,.25-.27,.38-.62,.33-.9l-1.45-8.5,8.59,.77c.28,.03,.62-.13,.87-.4,.25-.27,.38-.62,.33-.9l-1.45-8.5,8.59,.77c.28,.03,.62-.13,.87-.4,.25-.27,.38-.62,.33-.9l-1.45-8.5,8.59,.77c.28,.03,.62-.13,.87-.4,.25-.27,.38-.62,.33-.9l-1.45-8.5,8.59,.77c.28,.03,.62-.13,.87-.4,.25-.27,.38-.62,.33-.9l-1.45-8.5,8.59,.77c.28,.03,.62-.13,.87-.4,.25-.27,.38-.62,.33-.9l-1.45-8.52,8.58,.77c.28,.03,.62-.13,.87-.4,.25-.27,.38-.62,.33-.9l-1.45-8.5,8.59,.77c.28,.03,.62-.13,.87-.4,.25-.27,.38-.62,.33-.9l-.79-4.62-1.89-.4,.76,4.46Z"/><path class="cls-6" d="M531.78,379.26l-1.45-8.5,8.59,.77c.28,.03,.62-.13,.87-.4,.25-.27,.38-.62,.33-.9l-1.45-8.5,8.59,.77c.28,.02,.62-.13,.87-.4s.38-.62,.33-.9l-1.45-8.5,8.59,.77c.28,.03,.62-.13,.87-.4,.25-.27,.38-.62,.33-.9l-1.45-8.5,8.59,.77c.28,.03,.62-.13,.87-.4,.25-.27,.38-.62,.33-.9l-1.45-8.52,8.58,.77c.28,.03,.62-.13,.87-.4s.38-.62,.33-.9l-1.45-8.5,8.59,.77c.28,.03,.62-.13,.87-.4,.25-.27,.38-.62,.33-.9l-1.45-8.5,8.59,.77c.28,.02,.61-.13,.86-.39l-10.43-2.21c-.21,.05-.43,.18-.6,.37-.25,.27-.38,.62-.33,.9l1.45,8.5-8.59-.77c-.28-.03-.62,.13-.87,.4-.25,.27-.38,.62-.33,.9l1.45,8.5-8.59-.77c-.42-.04-.93,.32-1.13,.8-.09,.22-.1,.42-.04,.59l1.43,8.43-8.59-.77c-.28-.02-.62,.13-.87,.4-.25,.27-.38,.62-.33,.9l1.45,8.5-8.59-.77c-.28-.02-.62,.13-.87,.4s-.38,.62-.33,.9l1.45,8.5-8.59-.77c-.28-.02-.62,.13-.87,.4s-.38,.62-.33,.9l1.45,8.5-8.59-.77c-.28-.03-.62,.13-.87,.4-.25,.27-.38,.62-.33,.9l.59,3.45,2.21,6.72c.08-.06,.16-.12,.24-.2,.25-.27,.38-.62,.33-.9Z"/><path class="cls-6" d="M532.42,364.12c.25-.27,.38-.62,.33-.9l-1.45-8.5,8.59,.77c.28,.03,.62-.13,.87-.4,.25-.27,.38-.62,.33-.9l-1.45-8.5,8.59,.77c.28,.02,.62-.13,.87-.4s.38-.62,.33-.9l-1.45-8.52,8.58,.77c.28,.03,.62-.13,.87-.4,.25-.27,.38-.62,.33-.9l-1.45-8.5,8.59,.77c.28,.03,.62-.13,.87-.4s.38-.62,.33-.9l-1.45-8.5,8.59,.77c.28,.03,.62-.13,.87-.4,.25-.27,.38-.62,.33-.9l-.77-4.55-1.89-.4,.75,4.38-8.59-.77c-.28-.02-.62,.13-.87,.4s-.38,.62-.33,.9l1.45,8.5-8.59-.77c-.28-.03-.62,.13-.87,.4-.25,.27-.38,.62-.33,.9l1.45,8.5-8.59-.77c-.42-.04-.93,.32-1.13,.8-.09,.22-.1,.42-.04,.59l1.43,8.43-8.59-.77c-.28-.03-.62,.13-.87,.4-.25,.27-.38,.62-.33,.9l1.45,8.5-8.59-.77c-.28-.03-.62,.13-.87,.4-.25,.27-.38,.62-.33,.9l1.45,8.5-5.61-.5,.61,1.86,5.72,.51c.28,.02,.62-.13,.87-.4Z"/><path class="cls-6" d="M525.05,357.12c.25-.27,.38-.62,.33-.9l-1.45-8.5,8.59,.77c.28,.03,.62-.13,.87-.4,.25-.27,.38-.62,.33-.9l-1.45-8.52,8.58,.77c.28,.03,.62-.13,.87-.4,.25-.27,.38-.62,.33-.9l-1.45-8.5,8.59,.77c.28,.03,.62-.13,.87-.4,.25-.27,.38-.62,.33-.9l-1.45-8.5,8.59,.77c.28,.03,.62-.13,.87-.4,.25-.27,.38-.62,.33-.9l-1.45-8.5,8.59,.77c.25,.02,.55-.11,.79-.33l-10.5-2.23c-.16,.07-.33,.18-.46,.32-.25,.27-.38,.62-.33,.9l1.45,8.5-8.59-.77c-.28-.03-.62,.13-.87,.4s-.38,.62-.33,.9l1.45,8.5-8.59-.77c-.28-.03-.62,.13-.87,.4-.25,.27-.38,.62-.33,.9l1.45,8.5-8.59-.77c-.42-.04-.93,.32-1.13,.8-.09,.22-.1,.42-.04,.59l1.43,8.43-8.59-.77c-.28-.03-.62,.13-.87,.4s-.38,.62-.33,.9l1.45,8.5-.39-.03,.61,1.86,.5,.04c.28,.03,.62-.13,.87-.4Z"/><path class="cls-6" d="M526.01,341.07c.25-.27,.38-.62,.33-.9l-1.45-8.5,8.59,.77c.28,.03,.62-.13,.87-.4,.25-.27,.38-.62,.33-.9l-1.45-8.5,8.59,.77c.28,.03,.62-.13,.87-.4,.25-.27,.38-.62,.33-.9l-1.45-8.5,8.59,.77c.28,.03,.62-.13,.87-.4,.25-.27,.38-.62,.33-.9l-.76-4.47-1.89-.4,.73,4.3-8.59-.77c-.28-.03-.62,.13-.87,.4-.25,.27-.38,.62-.33,.9l1.45,8.5-8.59-.77c-.28-.03-.62,.13-.87,.4-.25,.27-.38,.62-.33,.9l1.45,8.5-8.59-.77c-.28-.03-.62,.13-.87,.4-.25,.27-.38,.62-.33,.9l1.45,8.5-6.82-.61,.61,1.86,6.93,.62c.28,.03,.62-.13,.87-.4Z"/><path class="cls-6" d="M518.64,334.06c.25-.27,.38-.62,.33-.9l-1.45-8.5,8.59,.77c.28,.03,.62-.13,.87-.4s.38-.62,.33-.9l-1.45-8.5,8.59,.77c.28,.03,.62-.13,.87-.4,.25-.27,.38-.62,.33-.9l-1.45-8.5,8.59,.77c.23,.02,.49-.08,.72-.27l-10.54-2.24c-.13,.07-.25,.16-.35,.27-.25,.27-.38,.62-.33,.9l1.45,8.5-8.59-.77c-.28-.03-.62,.13-.87,.4s-.38,.62-.33,.9l1.45,8.5-8.59-.77c-.28-.03-.62,.13-.87,.4-.25,.27-.38,.62-.33,.9l1.45,8.5-1.6-.14,.61,1.86,1.71,.15c.28,.03,.62-.13,.87-.4Z"/><path class="cls-6" d="M519.6,318.03c.25-.27,.38-.62,.33-.9l-1.45-8.5,8.59,.77c.28,.03,.62-.13,.87-.4,.25-.27,.38-.62,.33-.9l-.75-4.39-1.89-.4,.72,4.22-8.59-.77c-.28-.03-.62,.13-.87,.4s-.38,.62-.33,.9l1.45,8.5-8.04-.72,.61,1.86,8.14,.73c.28,.03,.62-.13,.87-.4Z"/><path class="cls-6" d="M512.23,311.03c.25-.27,.38-.62,.33-.9l-1.45-8.5,8.59,.77c.2,.02,.43-.06,.64-.2l-10.56-2.24c-.09,.06-.18,.13-.26,.21-.25,.27-.38,.62-.33,.9l1.45,8.5-2.82-.25,.61,1.86,2.93,.26c.28,.03,.62-.13,.87-.4Z"/></g><polygon class="cls-1" points="513.57 426.07 599.54 331.58 473.67 304.86 513.57 426.07"/><polygon class="cls-6" points="84.55 167.36 64.23 189.31 124.19 216.78 84.55 167.36"/><polygon class="cls-1" points="410.23 109.84 433.77 128.29 378.91 164.91 410.23 109.84"/><rect class="cls-7" x="263.23" y="107.56" width="82.15" height="87.51" transform="translate(18.66 335.44) rotate(-59.24)"/><g><rect class="cls-6" x="717.04" y="228.97" width="1.85" height="46.84" transform="translate(66.56 645.91) rotate(-50.5)"/><rect class="cls-6" x="714.69" y="231.82" width="1.85" height="46.84" transform="translate(63.5 645.12) rotate(-50.5)"/><rect class="cls-6" x="712.34" y="234.68" width="1.85" height="46.84" transform="translate(60.43 644.33) rotate(-50.5)"/><rect class="cls-6" x="709.99" y="237.53" width="1.85" height="46.84" transform="translate(57.39 643.57) rotate(-50.5)"/><rect class="cls-6" x="707.64" y="240.38" width="1.85" height="46.84" transform="translate(54.19 642.55) rotate(-50.48)"/><rect class="cls-6" x="705.28" y="243.23" width="1.85" height="46.84" transform="translate(51.29 642.05) rotate(-50.51)"/><rect class="cls-6" x="702.93" y="246.08" width="1.85" height="46.84" transform="translate(48.08 641) rotate(-50.48)"/><rect class="cls-6" x="700.58" y="248.94" width="1.85" height="46.84" transform="translate(45.17 640.47) rotate(-50.5)"/><rect class="cls-6" x="698.23" y="251.79" width="1.85" height="46.84" transform="translate(42.25 639.94) rotate(-50.53)"/><rect class="cls-6" x="695.88" y="254.64" width="1.85" height="46.84" transform="translate(39.07 638.94) rotate(-50.51)"/><rect class="cls-6" x="693.53" y="257.49" width="1.85" height="46.84" transform="translate(36 638.14) rotate(-50.5)"/><rect class="cls-6" x="691.18" y="260.34" width="1.85" height="46.84" transform="translate(32.95 637.39) rotate(-50.51)"/><rect class="cls-6" x="688.83" y="263.2" width="1.85" height="46.84" transform="translate(29.87 636.57) rotate(-50.5)"/><rect class="cls-6" x="686.48" y="266.05" width="1.85" height="46.84" transform="translate(26.83 635.81) rotate(-50.5)"/></g><rect class="cls-1" x="667.53" y="247.92" width="52.67" height="49.44" transform="translate(42.14 634.64) rotate(-50.5)"/><g><rect class="cls-6" x="171.69" y="276.6" width="60.88" height="2.4" transform="translate(-139.96 309.46) rotate(-59.25)"/><rect class="cls-6" x="167.56" y="274.14" width="60.88" height="2.4" transform="translate(-139.88 304.59) rotate(-59.23)"/><rect class="cls-6" x="163.44" y="271.69" width="60.88" height="2.4" transform="translate(-139.78 299.97) rotate(-59.25)"/><rect class="cls-6" x="159.31" y="269.23" width="60.88" height="2.4" transform="translate(-139.68 295.22) rotate(-59.25)"/><rect class="cls-6" x="155.18" y="266.78" width="60.88" height="2.4" transform="translate(-139.59 290.47) rotate(-59.25)"/><rect class="cls-6" x="151.05" y="264.32" width="60.88" height="2.4" transform="translate(-139.49 285.74) rotate(-59.25)"/><rect class="cls-6" x="146.92" y="261.86" width="60.88" height="2.4" transform="translate(-139.4 280.97) rotate(-59.25)"/><rect class="cls-6" x="142.8" y="259.41" width="60.88" height="2.4" transform="translate(-139.31 276.23) rotate(-59.25)"/><rect class="cls-6" x="138.67" y="256.95" width="60.88" height="2.4" transform="translate(-139.21 271.48) rotate(-59.25)"/><rect class="cls-6" x="134.54" y="254.49" width="60.88" height="2.4" transform="translate(-139.12 266.62) rotate(-59.23)"/><rect class="cls-6" x="130.41" y="252.04" width="60.88" height="2.4" transform="translate(-139.03 261.98) rotate(-59.25)"/><rect class="cls-6" x="126.28" y="249.58" width="60.88" height="2.4" transform="translate(-138.93 257.23) rotate(-59.25)"/><rect class="cls-6" x="122.16" y="247.12" width="60.88" height="2.4" transform="translate(-138.84 252.49) rotate(-59.25)"/><rect class="cls-6" x="118.03" y="244.67" width="60.88" height="2.4" transform="translate(-138.75 247.74) rotate(-59.25)"/></g><rect class="cls-1" x="140.24" y="216.05" width="60.88" height="64.85" transform="translate(-130.13 268.08) rotate(-59.24)"/><path class="cls-7" d="M356.65,308.5c0,33.42-27.09,60.51-60.5,60.51s-60.51-27.09-60.51-60.51,27.09-60.51,60.51-60.51,60.5,27.09,60.5,60.51Z"/><path class="cls-1" d="M570.54,174.79c0,7.3-5.92,13.22-13.22,13.22s-13.22-5.92-13.22-13.22,5.92-13.22,13.22-13.22,13.22,5.92,13.22,13.22Z"/><g><path class="cls-1" d="M252.04,350.34c.44,.77,.9,1.52,1.37,2.26l86.84-86.84c-.74-.47-1.5-.93-2.26-1.37l-85.95,85.95Z"/><path class="cls-1" d="M249.56,345.54c.38,.82,.78,1.64,1.2,2.44l84.88-84.88c-.81-.42-1.62-.82-2.45-1.2l-83.63,83.63Z"/><path class="cls-1" d="M247.44,340.39c.31,.89,.65,1.76,1.01,2.62l82.21-82.21c-.86-.36-1.74-.7-2.63-1.02l-80.6,80.61Z"/><path class="cls-1" d="M245.71,334.85c.25,.95,.52,1.89,.81,2.83l78.8-78.8c-.93-.29-1.88-.56-2.83-.81l-76.78,76.78Z"/><path class="cls-1" d="M244.47,328.82c.16,1.04,.34,2.06,.56,3.08l74.52-74.52c-1.02-.21-2.04-.4-3.08-.56l-72,72Z"/><path class="cls-1" d="M243.79,322.23c.06,1.13,.14,2.26,.26,3.38l69.21-69.21c-1.12-.12-2.25-.2-3.38-.26l-66.09,66.09Z"/><path class="cls-1" d="M243.85,314.9c-.09,1.24-.13,2.5-.13,3.77l62.61-62.6c-1.27,0-2.53,.05-3.78,.13l-58.7,58.71Z"/><path class="cls-1" d="M244.95,306.53c-.29,1.43-.53,2.88-.71,4.35l54.29-54.3c-1.46,.18-2.91,.43-4.35,.71l-49.23,49.23Z"/><path class="cls-1" d="M247.96,296.25c-.7,1.8-1.32,3.63-1.85,5.49l43.27-43.28c-1.87,.53-3.7,1.15-5.49,1.85l-35.94,35.94Z"/><path class="cls-1" d="M258.75,278.19c-2.98,3.48-5.57,7.29-7.73,11.36l26.18-26.18c-4.08,2.15-7.88,4.75-11.36,7.73l-7.09,7.09Z"/><path class="cls-1" d="M265.14,366.33c.64,.58,1.31,1.13,1.97,1.66l88.53-88.53c-.54-.67-1.09-1.33-1.66-1.97l-88.84,88.84Z"/><path class="cls-1" d="M261.41,362.78c.59,.62,1.2,1.23,1.83,1.82l89-89c-.59-.62-1.2-1.23-1.81-1.83l-89.02,89.01Z"/><path class="cls-1" d="M257.99,358.94c.54,.67,1.1,1.32,1.67,1.96l88.88-88.88c-.65-.58-1.3-1.13-1.96-1.68l-88.6,88.6Z"/><path class="cls-1" d="M254.86,354.79c.49,.71,1,1.42,1.53,2.11l88.16-88.16c-.69-.53-1.4-1.04-2.11-1.53l-87.58,87.58Z"/><path class="cls-1" d="M252.04,350.34c.44,.77,.9,1.52,1.37,2.26h0s86.83-86.83,86.83-86.83h0c-.74-.48-1.5-.93-2.26-1.38l-85.95,85.95Z"/><path class="cls-1" d="M361.53,349.91l-23.98,23.98c10.02-5.65,18.34-13.96,23.98-23.98Z"/><path class="cls-1" d="M330.5,377.3l34.44-34.45c.75-1.83,1.42-3.71,2-5.63l-42.07,42.07c1.92-.57,3.8-1.24,5.63-1.99Z"/><path class="cls-1" d="M319.97,380.56l48.24-48.23c.32-1.46,.58-2.93,.78-4.42l-53.45,53.44c1.5-.21,2.97-.47,4.43-.79Z"/><path class="cls-1" d="M311.48,381.79l57.96-57.96c.1-1.26,.16-2.53,.17-3.81l-61.95,61.95c1.28-.02,2.55-.08,3.81-.17Z"/><path class="cls-1" d="M300.66,381.69c1.13,.11,2.27,.18,3.41,.22l65.49-65.49c-.04-1.15-.12-2.29-.22-3.41l-68.68,68.68Z"/><path class="cls-1" d="M294.32,380.77c1.02,.2,2.06,.38,3.11,.53l71.51-71.51c-.15-1.05-.33-2.08-.53-3.11l-74.09,74.09Z"/><path class="cls-1" d="M288.51,379.31c.94,.29,1.89,.55,2.85,.79l76.39-76.39c-.24-.96-.5-1.91-.79-2.85l-78.45,78.45Z"/><path class="cls-1" d="M283.12,377.42c.87,.36,1.75,.69,2.64,1l80.3-80.29c-.31-.89-.64-1.78-1-2.65l-81.95,81.95Z"/><path class="cls-1" d="M278.12,375.15c.81,.41,1.62,.81,2.45,1.19l83.4-83.4c-.38-.83-.77-1.65-1.18-2.45l-84.68,84.67Z"/><path class="cls-1" d="M273.48,372.52c.75,.47,1.51,.92,2.29,1.35l85.76-85.76c-.43-.77-.88-1.54-1.35-2.29l-86.69,86.69Z"/><path class="cls-1" d="M269.16,369.57c.7,.53,1.4,1.03,2.12,1.52l87.46-87.46c-.49-.72-.99-1.43-1.51-2.12l-88.07,88.07Z"/><path class="cls-1" d="M265.14,366.33c.64,.58,1.31,1.13,1.97,1.66l88.53-88.53c-.54-.67-1.09-1.33-1.66-1.97l-88.84,88.84Z"/></g><path class="cls-7" d="M789.88,488.18c0,28.19-22.86,51.05-51.05,51.05s-51.05-22.86-51.05-51.05,22.86-51.05,51.05-51.05,51.05,22.86,51.05,51.05Z"/><g><path class="cls-1" d="M701.62,523.48c.37,.65,.76,1.28,1.16,1.91l73.27-73.27c-.63-.4-1.26-.78-1.91-1.16l-72.51,72.51Z"/><path class="cls-1" d="M699.53,519.44c.32,.69,.66,1.38,1.01,2.06l71.61-71.61c-.68-.35-1.37-.69-2.06-1.01l-70.56,70.56Z"/><path class="cls-1" d="M697.74,515.09c.26,.75,.55,1.49,.86,2.21l69.36-69.36c-.73-.31-1.47-.59-2.21-.86l-68,68.01Z"/><path class="cls-1" d="M696.29,510.41c.21,.8,.44,1.6,.68,2.38l66.48-66.48c-.79-.25-1.58-.48-2.38-.68l-64.78,64.78Z"/><path class="cls-1" d="M695.24,505.33c.14,.87,.29,1.74,.47,2.6l62.87-62.87c-.86-.18-1.72-.34-2.6-.47l-60.74,60.74Z"/><path class="cls-1" d="M694.67,499.77c.05,.96,.12,1.91,.22,2.85l58.39-58.39c-.94-.1-1.89-.17-2.85-.22l-55.76,55.76Z"/><path class="cls-1" d="M694.71,493.59c-.07,1.05-.11,2.11-.11,3.18l52.82-52.82c-1.07,0-2.13,.04-3.19,.11l-49.52,49.53Z"/><path class="cls-1" d="M695.64,486.52c-.24,1.21-.45,2.43-.6,3.67l45.81-45.81c-1.23,.16-2.46,.36-3.67,.6l-41.54,41.53Z"/><path class="cls-1" d="M698.18,477.85c-.59,1.52-1.11,3.06-1.56,4.63l36.51-36.51c-1.57,.45-3.12,.97-4.63,1.56l-30.32,30.32Z"/><path class="cls-1" d="M707.28,462.61c-2.51,2.93-4.7,6.15-6.52,9.58l22.09-22.09c-3.44,1.82-6.65,4.01-9.59,6.52l-5.98,5.98Z"/><path class="cls-1" d="M712.68,536.97c.54,.49,1.1,.95,1.67,1.4l74.69-74.69c-.45-.56-.92-1.12-1.4-1.67l-74.95,74.96Z"/><path class="cls-1" d="M709.53,533.98c.5,.52,1.01,1.04,1.54,1.54l75.09-75.09c-.5-.52-1.01-1.04-1.53-1.54l-75.1,75.1Z"/><path class="cls-1" d="M706.64,530.74c.46,.56,.93,1.11,1.41,1.66l74.99-74.99c-.54-.49-1.09-.96-1.66-1.41l-74.75,74.75Z"/><path class="cls-1" d="M704.01,527.24c.41,.6,.84,1.2,1.29,1.78l74.38-74.38c-.58-.45-1.18-.87-1.78-1.29l-73.89,73.89Z"/><path class="cls-1" d="M701.62,523.48c.37,.65,.76,1.28,1.16,1.91h0s73.26-73.26,73.26-73.26h0c-.63-.4-1.26-.79-1.91-1.16l-72.51,72.51Z"/><path class="cls-1" d="M751.77,550.02l48.9-48.9c.08-1.06,.13-2.13,.15-3.22l-52.26,52.26c1.08-.01,2.15-.06,3.22-.15Z"/><path class="cls-1" d="M742.65,549.94c.95,.09,1.91,.16,2.88,.19l55.25-55.25c-.03-.97-.1-1.93-.19-2.88l-57.94,57.94Z"/><path class="cls-1" d="M737.3,549.15c.86,.17,1.74,.32,2.62,.45l60.34-60.34c-.13-.88-.28-1.76-.45-2.62l-62.51,62.51Z"/><path class="cls-1" d="M732.39,547.93c.79,.24,1.59,.47,2.4,.66l64.45-64.45c-.2-.81-.42-1.61-.67-2.4l-66.19,66.19Z"/><path class="cls-1" d="M727.85,546.33c.73,.3,1.48,.58,2.23,.84l67.75-67.74c-.26-.75-.54-1.5-.84-2.23l-69.14,69.14Z"/><path class="cls-1" d="M723.63,544.41c.68,.35,1.37,.68,2.07,1l70.37-70.37c-.32-.7-.65-1.39-1-2.07l-71.44,71.43Z"/><path class="cls-1" d="M719.71,542.2c.63,.4,1.28,.78,1.93,1.14l72.35-72.35c-.36-.65-.74-1.3-1.14-1.93l-73.14,73.14Z"/><path class="cls-1" d="M716.07,539.71c.59,.45,1.19,.87,1.79,1.28l73.79-73.79c-.41-.61-.83-1.21-1.28-1.79l-74.31,74.3Z"/><path class="cls-1" d="M712.68,536.97c.54,.49,1.1,.95,1.67,1.4l74.69-74.69c-.45-.56-.92-1.12-1.4-1.67l-74.95,74.96Z"/></g><path class="cls-7" d="M451.47-4.86c0,18.77-15.22,33.98-33.99,33.98s-33.98-15.22-33.98-33.98,15.22-33.99,33.98-33.99,33.99,15.22,33.99,33.99Z"/><g><path class="cls-6" d="M392.72,18.65c.25,.43,.5,.85,.77,1.27l48.78-48.78c-.42-.27-.84-.52-1.27-.77l-48.28,48.28Z"/><path class="cls-6" d="M391.32,15.95c.21,.46,.44,.92,.67,1.37l47.67-47.67c-.45-.24-.91-.46-1.37-.67l-46.97,46.98Z"/><path class="cls-6" d="M390.13,13.06c.17,.5,.37,.99,.57,1.47l46.18-46.18c-.49-.2-.98-.39-1.47-.57l-45.27,45.27Z"/><path class="cls-6" d="M389.16,9.94c.14,.53,.29,1.06,.46,1.59l44.26-44.26c-.52-.16-1.05-.32-1.59-.46l-43.13,43.13Z"/><path class="cls-6" d="M388.46,6.56c.09,.58,.19,1.16,.31,1.73l41.86-41.86c-.57-.12-1.15-.22-1.73-.31L388.46,6.56Z"/><path class="cls-6" d="M388.08,2.86c.03,.64,.08,1.27,.15,1.9l38.87-38.87c-.63-.06-1.26-.11-1.9-.15L388.08,2.86Z"/><path class="cls-6" d="M388.11-1.26c-.05,.7-.07,1.4-.07,2.12l35.17-35.16c-.71,0-1.42,.03-2.12,.07L388.11-1.26Z"/><path class="cls-6" d="M400.07,27.63c.36,.32,.73,.63,1.11,.93l49.72-49.73c-.3-.38-.61-.75-.93-1.11l-49.9,49.9Z"/><path class="cls-6" d="M397.98,25.63c.33,.35,.67,.69,1.02,1.02l49.99-49.99c-.33-.35-.67-.69-1.02-1.02l-50,50Z"/><path class="cls-6" d="M396.06,23.47c.3,.38,.62,.74,.94,1.1l49.92-49.92c-.36-.32-.73-.64-1.1-.94l-49.76,49.76Z"/><path class="cls-6" d="M394.3,21.15c.28,.4,.56,.8,.86,1.19l49.52-49.52c-.39-.3-.79-.58-1.19-.86l-49.19,49.19Z"/><path class="cls-6" d="M392.72,18.65c.25,.43,.5,.85,.77,1.27h0s48.77-48.77,48.77-48.77h0c-.42-.27-.84-.52-1.27-.77l-48.28,48.28Z"/><path class="cls-6" d="M454.21,18.4l-13.47,13.47c5.63-3.17,10.3-7.84,13.47-13.47Z"/><path class="cls-6" d="M436.79,33.79l19.35-19.35c.42-1.03,.8-2.09,1.12-3.16l-23.63,23.63c1.08-.32,2.13-.7,3.16-1.12Z"/><path class="cls-6" d="M430.87,35.62l27.09-27.09c.18-.82,.32-1.65,.44-2.48l-30.02,30.02c.84-.12,1.67-.26,2.49-.44Z"/><path class="cls-6" d="M426.1,36.31L458.66,3.75c.06-.71,.09-1.42,.1-2.14l-34.79,34.79c.72,0,1.43-.04,2.14-.1Z"/><path class="cls-6" d="M420.03,36.26c.63,.06,1.27,.1,1.92,.13L458.73-.4c-.02-.64-.06-1.28-.13-1.92l-38.57,38.57Z"/><path class="cls-6" d="M416.46,35.74c.58,.11,1.16,.21,1.75,.3L458.38-4.14c-.08-.59-.18-1.17-.3-1.75l-41.62,41.62Z"/><path class="cls-6" d="M413.2,34.92c.53,.16,1.06,.31,1.6,.44L457.71-7.55c-.13-.54-.28-1.07-.44-1.6l-44.07,44.07Z"/><path class="cls-6" d="M410.17,33.86c.49,.2,.98,.39,1.48,.56l45.1-45.1c-.17-.5-.36-1-.56-1.49l-46.03,46.03Z"/><path class="cls-6" d="M407.37,32.58c.45,.23,.91,.45,1.38,.67l46.85-46.85c-.21-.47-.43-.92-.66-1.38l-47.56,47.56Z"/><path class="cls-6" d="M404.76,31.11c.42,.27,.85,.52,1.28,.76l48.17-48.17c-.24-.43-.49-.86-.76-1.28l-48.69,48.69Z"/><path class="cls-6" d="M402.33,29.45c.39,.3,.79,.58,1.19,.85l49.13-49.13c-.28-.4-.56-.8-.85-1.19l-49.47,49.47Z"/><path class="cls-6" d="M400.07,27.63c.36,.32,.73,.63,1.11,.93l49.72-49.73c-.3-.38-.61-.75-.93-1.11l-49.9,49.9Z"/></g><g><polygon class="cls-1" points="27.86 375.27 45.52 390.59 51.92 365.65 34.25 350.33 27.86 375.27"/><polygon class="cls-7" points="45.52 390.59 68.38 385.66 74.77 360.71 51.92 365.65 45.52 390.59"/><polygon class="cls-6" points="34.25 350.33 51.92 365.65 74.77 360.71 57.11 345.39 34.25 350.33"/></g><g><path class="cls-7" d="M797,34.34c-.54,.34-1.18,.43-1.67,.22l-14.87-6.34-.46,16.16c-.01,.53-.36,1.08-.9,1.43-.54,.34-1.18,.43-1.67,.22l-14.87-6.34-.46,16.16c-.02,.53-.36,1.08-.9,1.43-.54,.34-1.18,.43-1.67,.22l-14.87-6.34-.46,16.16c-.01,.53-.36,1.08-.9,1.43-.54,.34-1.18,.43-1.67,.22l-14.87-6.34-.46,16.16c-.02,.53-.36,1.08-.9,1.43-.54,.34-1.18,.43-1.67,.22l-14.87-6.34-.46,16.16c-.01,.53-.36,1.08-.9,1.43s-1.18,.43-1.67,.22l-17.36-7.41c-.73-.31-.9-1.17-.38-1.92,.52-.75,1.54-1.1,2.27-.79l14.87,6.35,.46-16.16c.01-.53,.36-1.08,.9-1.43,.54-.34,1.18-.43,1.67-.22l14.87,6.34,.46-16.16c.02-.53,.36-1.08,.9-1.43,.54-.34,1.18-.43,1.67-.22l14.87,6.34,.46-16.16c.01-.53,.36-1.08,.9-1.43,.54-.34,1.18-.43,1.67-.22l14.87,6.34,.46-16.16c.01-.53,.36-1.08,.9-1.43,.54-.34,1.18-.43,1.67-.22l14.87,6.34,.46-16.16c.01-.53,.36-1.08,.9-1.43,.54-.34,1.18-.43,1.67-.22l14.87,6.34,.46-16.16c.02-.8,.77-1.57,1.67-1.73,.9-.16,1.61,.36,1.59,1.15l-.54,18.87c-.01,.53-.36,1.08-.9,1.43Z"/><path class="cls-1" d="M792.19,35.61c-.54,.34-1.18,.43-1.67,.22l-14.87-6.34-.46,16.16c-.01,.53-.36,1.08-.9,1.43-.54,.34-1.18,.43-1.67,.22l-14.87-6.34-.46,16.16c-.01,.53-.36,1.08-.9,1.43-.54,.34-1.18,.43-1.67,.22l-14.87-6.34-.46,16.16c-.01,.53-.36,1.08-.9,1.43-.54,.34-1.18,.43-1.67,.22l-14.87-6.34-.46,16.16c-.02,.53-.36,1.08-.9,1.43s-1.18,.43-1.67,.22l-14.87-6.34-.46,16.16c-.02,.53-.36,1.08-.9,1.43s-1.18,.43-1.67,.22l-17.36-7.41c-.73-.31-.9-1.17-.38-1.92,.52-.75,1.54-1.1,2.27-.79l14.87,6.34,.46-16.16c.01-.53,.36-1.08,.9-1.43,.54-.34,1.18-.43,1.67-.22l14.87,6.34,.46-16.16c.02-.53,.36-1.08,.9-1.43,.54-.34,1.18-.43,1.67-.22l14.87,6.34,.46-16.16c.01-.53,.36-1.08,.9-1.43,.54-.34,1.18-.43,1.67-.22l14.87,6.34,.46-16.16c.01-.53,.36-1.08,.9-1.43,.54-.34,1.18-.43,1.67-.22l14.87,6.34,.46-16.16c.02-.53,.36-1.08,.9-1.43,.54-.34,1.18-.43,1.67-.22l14.87,6.34,.46-16.16c.02-.8,.77-1.57,1.67-1.73,.9-.16,1.61,.36,1.59,1.15l-.54,18.87c-.02,.53-.36,1.08-.9,1.43Z"/></g><g><path class="cls-1" d="M651.41,437.44c.04-.12,0-.29-.1-.42-.1-.14-.24-.22-.37-.22l-3.91-.08,1.08-3.76c.04-.12,0-.29-.1-.42-.1-.13-.24-.22-.37-.22l-3.91-.08,1.08-3.76c.04-.12,0-.29-.1-.42-.1-.13-.24-.22-.37-.22l-3.91-.08,1.08-3.76c.04-.12,0-.29-.1-.42-.1-.13-.24-.22-.37-.22l-3.91-.08,1.08-3.76c.05-.18-.06-.44-.26-.57-.09-.06-.18-.08-.26-.07l-3.88-.08,1.08-3.76c.04-.12,0-.29-.1-.42-.1-.14-.24-.22-.37-.22l-3.91-.08,1.08-3.76c.04-.12,0-.29-.1-.42-.1-.13-.24-.22-.37-.22l-3.91-.08,1.08-3.76c.04-.12,0-.29-.1-.42-.1-.14-.24-.22-.37-.22l-3.91-.08,1.08-3.76c.04-.12,0-.29-.1-.42-.1-.13-.24-.22-.37-.22l-3.91-.08,.76-2.65-.88,.11-.77,2.7c-.04,.12,0,.29,.1,.42,.1,.13,.24,.22,.37,.22l3.91,.08-1.08,3.76c-.04,.12,0,.29,.1,.42,.1,.13,.24,.22,.37,.22l3.91,.08-1.08,3.76c-.04,.12,0,.29,.1,.42,.1,.13,.24,.22,.37,.22l3.91,.08-1.08,3.76c-.04,.12,0,.29,.1,.42,.1,.13,.24,.22,.37,.22l3.91,.08-1.08,3.76c-.04,.12,0,.29,.1,.42,.1,.13,.24,.22,.37,.22l3.92,.08-1.08,3.76c-.04,.12,0,.29,.1,.42,.1,.13,.24,.22,.37,.22l3.91,.08-1.08,3.76c-.04,.12,0,.29,.1,.42,.1,.13,.24,.22,.37,.22l3.91,.08-1.08,3.76c-.04,.12,0,.29,.1,.42,.1,.13,.24,.22,.37,.22l3.91,.08-1.08,3.76c-.04,.12,0,.29,.1,.42,.1,.13,.24,.22,.37,.22l3.91,.08-1.08,3.76c-.04,.12,0,.29,.1,.42,.1,.13,.24,.22,.37,.22l3.35,.07,.34-.81-3.27-.07,1.08-3.76Z"/><path class="cls-1" d="M656.07,434.03c.04-.12,0-.29-.1-.42-.1-.13-.24-.22-.37-.22l-3.91-.08,1.08-3.76c.04-.12,0-.29-.1-.42-.1-.13-.24-.22-.37-.22l-3.91-.08,1.08-3.76c.04-.12,0-.29-.1-.42s-.24-.22-.37-.22l-3.91-.08,1.08-3.76c.05-.19-.06-.44-.26-.57-.09-.06-.18-.08-.26-.07l-3.88-.08,1.08-3.76c.04-.12,0-.29-.1-.42s-.24-.22-.37-.22l-3.91-.08,1.08-3.76c.04-.12,0-.29-.1-.42s-.24-.22-.37-.22l-3.91-.08,1.08-3.76c.04-.12,0-.29-.1-.42-.1-.13-.24-.22-.37-.22l-3.91-.08,1.08-3.76c.04-.12,0-.29-.1-.42-.1-.13-.24-.22-.37-.22l-3.91-.08,1.08-3.76c.04-.12,0-.29-.1-.42-.1-.14-.24-.22-.37-.22l-2.2-.05-2.6,.34c.02,.07,.05,.14,.1,.21,.1,.13,.24,.22,.37,.22l3.91,.08-1.08,3.76c-.04,.12,0,.29,.1,.42,.1,.13,.24,.22,.37,.22l3.91,.08-1.08,3.76c-.04,.12,0,.29,.1,.42,.1,.13,.24,.22,.37,.22l3.91,.08-1.08,3.76c-.04,.12,0,.29,.1,.42,.1,.13,.24,.22,.37,.22l3.91,.08-1.08,3.76c-.04,.12,0,.29,.1,.42,.1,.13,.24,.22,.37,.22l3.91,.08-1.08,3.76c-.04,.12,0,.29,.1,.42,.1,.13,.24,.22,.37,.22l3.92,.08-1.07,3.75c-.04,.12,0,.29,.1,.42s.24,.22,.37,.22l3.91,.08-1.08,3.76c-.04,.12,0,.29,.1,.42s.24,.22,.37,.22l3.91,.08-1.08,3.76c-.04,.12,0,.29,.1,.42,.1,.13,.24,.22,.37,.22l3.91,.08-1.08,3.76c-.04,.12,0,.29,.1,.42,.1,.13,.24,.22,.37,.22h.16s.34-.8,.34-.8h-.09s1.08-3.76,1.08-3.76Z"/><path class="cls-1" d="M656.33,429.9l1.08-3.76c.04-.12,0-.29-.1-.42-.1-.13-.24-.22-.37-.22l-3.91-.08,1.08-3.76c.05-.19-.06-.44-.26-.57-.09-.06-.18-.08-.26-.07l-3.88-.08,1.08-3.76c.04-.12,0-.29-.1-.42-.1-.13-.24-.22-.37-.22l-3.91-.08,1.08-3.76c.04-.12,0-.29-.1-.42-.1-.13-.24-.22-.37-.22l-3.91-.08,1.08-3.76c.04-.12,0-.29-.1-.42-.1-.13-.24-.22-.37-.22l-3.91-.08,1.08-3.76c.04-.12,0-.29-.1-.42-.1-.14-.24-.22-.37-.22l-3.91-.08,1.08-3.76c.04-.12,0-.29-.1-.42-.1-.13-.24-.22-.37-.22l-3.91-.08,.55-1.92-.88,.11-.56,1.97c-.04,.12,0,.29,.1,.42,.1,.13,.24,.22,.37,.22l3.91,.08-1.08,3.76c-.04,.12,0,.29,.1,.42,.1,.13,.24,.22,.37,.22l3.91,.08-1.08,3.76c-.04,.12,0,.29,.1,.42,.1,.13,.24,.22,.37,.22l3.91,.08-1.08,3.76c-.04,.12,0,.29,.1,.42,.1,.13,.24,.22,.37,.22l3.91,.08-1.08,3.76c-.04,.12,0,.29,.1,.42,.1,.13,.24,.22,.37,.22l3.91,.08-1.08,3.76c-.04,.12,0,.29,.1,.42,.1,.13,.24,.22,.37,.22l3.92,.08-1.07,3.76c-.04,.12,0,.29,.1,.42,.1,.13,.24,.22,.37,.22l3.91,.08-1.08,3.76c-.04,.12,0,.29,.1,.42,.1,.13,.24,.22,.37,.22l2.13,.04,.34-.81-2.05-.04Z"/><path class="cls-1" d="M636.49,396.61l3.91,.08-1.08,3.76c-.04,.12,0,.29,.1,.42,.1,.13,.24,.22,.37,.22l3.91,.08-1.08,3.76c-.04,.12,0,.29,.1,.42,.1,.13,.24,.22,.37,.22l3.91,.08-1.08,3.76c-.04,.12,0,.29,.1,.42s.24,.22,.37,.22l3.91,.08-1.08,3.76c-.04,.12,0,.29,.1,.42,.1,.13,.24,.22,.37,.22l3.92,.08-1.07,3.75c-.04,.12,0,.29,.1,.42s.24,.22,.37,.22l3.91,.08-1.08,3.76c-.04,.12,0,.29,.1,.42s.24,.22,.37,.22l3.91,.08-1.08,3.76c-.03,.12,0,.28,.1,.42l1.88-4.46c0-.1-.04-.21-.11-.3-.1-.13-.24-.22-.37-.22l-3.91-.08,1.08-3.76c.04-.12,0-.29-.1-.42-.1-.14-.24-.22-.37-.22l-3.91-.08,1.08-3.76c.05-.19-.06-.44-.26-.57-.09-.06-.18-.08-.26-.07l-3.88-.08,1.08-3.76c.04-.12,0-.29-.1-.42s-.24-.22-.37-.22l-3.91-.08,1.08-3.76c.04-.12,0-.29-.1-.42-.1-.13-.24-.22-.37-.22l-3.91-.08,1.08-3.76c.04-.12,0-.29-.1-.42s-.24-.22-.37-.22l-3.91-.08,1.08-3.76c.04-.12,0-.29-.1-.42-.1-.14-.24-.22-.37-.22l-1.59-.03-3.18,.41s.04,.08,.07,.12c.1,.13,.24,.22,.37,.22Z"/><path class="cls-1" d="M643.18,398.19c.1,.14,.24,.22,.37,.22l3.91,.08-1.08,3.76c-.04,.12,0,.29,.1,.42,.1,.13,.24,.22,.37,.22l3.91,.08-1.08,3.76c-.04,.12,0,.29,.1,.42,.1,.13,.24,.22,.37,.22l3.92,.08-1.08,3.75c-.04,.12,0,.29,.1,.42,.1,.13,.24,.22,.37,.22l3.91,.08-1.08,3.76c-.04,.12,0,.29,.1,.42,.1,.13,.24,.22,.37,.22l3.91,.08-1.08,3.76c-.04,.12,0,.29,.1,.42,.1,.13,.24,.22,.37,.22l2.09,.04,.34-.81-2.01-.04,1.08-3.76c.04-.12,0-.29-.1-.42-.1-.13-.24-.22-.37-.22l-3.91-.08,1.08-3.76c.04-.12,0-.29-.1-.42-.1-.13-.24-.22-.37-.22l-3.91-.08,1.08-3.76c.05-.19-.06-.44-.26-.57-.09-.06-.18-.08-.26-.07l-3.88-.08,1.08-3.76c.04-.12,0-.29-.1-.42-.1-.13-.24-.22-.37-.22l-3.91-.08,1.08-3.76c.04-.12,0-.29-.1-.42-.1-.13-.24-.22-.37-.22l-3.91-.08,.7-2.46-.88,.11-.72,2.5c-.04,.12,0,.29,.1,.42Z"/><path class="cls-1" d="M646.93,395.51c.1,.13,.24,.22,.37,.22l3.91,.08-1.08,3.76c-.04,.12,0,.29,.1,.42,.1,.13,.24,.22,.37,.22l3.92,.08-1.07,3.76c-.04,.12,0,.29,.1,.42,.1,.13,.24,.22,.37,.22l3.91,.08-1.08,3.76c-.04,.12,0,.29,.1,.42,.1,.13,.24,.22,.37,.22l3.91,.08-1.08,3.76c-.04,.12,0,.29,.1,.42,.1,.13,.24,.22,.37,.22l3.91,.08-1.08,3.76c-.03,.11,0,.25,.08,.38l1.89-4.49c-.02-.08-.05-.16-.11-.23-.1-.13-.24-.22-.37-.22l-3.91-.08,1.08-3.76c.04-.12,0-.29-.1-.42-.1-.13-.24-.22-.37-.22l-3.91-.08,1.08-3.76c.04-.12,0-.29-.1-.42-.1-.13-.24-.22-.37-.22l-3.91-.08,1.08-3.76c.05-.18-.06-.44-.26-.57-.09-.06-.18-.08-.26-.07l-3.88-.08,1.08-3.76c.04-.12,0-.29-.1-.42-.1-.13-.24-.22-.37-.22l-3.91-.08,.05-.17-.88,.11-.06,.22c-.04,.12,0,.29,.1,.42Z"/><path class="cls-1" d="M653.99,397.31c.1,.14,.24,.22,.37,.22l3.91,.08-1.08,3.76c-.04,.12,0,.29,.1,.42,.1,.13,.24,.22,.37,.22l3.91,.08-1.08,3.76c-.04,.12,0,.29,.1,.42s.24,.22,.37,.22l3.91,.08-1.08,3.76c-.04,.12,0,.29,.1,.42,.1,.13,.24,.22,.37,.22l2.06,.04,.34-.81-1.98-.04,1.08-3.76c.04-.12,0-.29-.1-.42-.1-.14-.24-.22-.37-.22l-3.91-.08,1.08-3.76c.04-.12,0-.29-.1-.42-.1-.13-.24-.22-.37-.22l-3.91-.08,1.08-3.76c.04-.12,0-.29-.1-.42-.1-.13-.24-.22-.37-.22l-3.91-.08,.86-2.99-.88,.11-.87,3.03c-.04,.12,0,.29,.1,.42Z"/><path class="cls-1" d="M657.74,394.62c.1,.13,.24,.22,.37,.22l3.91,.08-1.08,3.76c-.04,.12,0,.29,.1,.42,.1,.13,.24,.22,.37,.22l3.91,.08-1.08,3.76c-.04,.12,0,.29,.1,.42,.1,.13,.24,.22,.37,.22l3.91,.08-1.08,3.76c-.03,.1,0,.23,.06,.34l1.9-4.5c-.02-.06-.05-.12-.09-.18-.1-.14-.24-.22-.37-.22l-3.91-.08,1.08-3.76c.04-.12,0-.29-.1-.42-.1-.13-.24-.22-.37-.22l-3.91-.08,1.08-3.76c.04-.12,0-.29-.1-.42-.1-.13-.24-.22-.37-.22l-3.91-.08,.2-.7-.88,.11-.21,.75c-.04,.12,0,.29,.1,.42Z"/><path class="cls-1" d="M664.8,396.42c.1,.13,.24,.22,.37,.22l3.91,.08-1.08,3.76c-.04,.12,0,.29,.1,.42,.1,.13,.24,.22,.37,.22l2.02,.04,.34-.81-1.94-.04,1.08-3.76c.04-.12,0-.29-.1-.42-.1-.13-.24-.22-.37-.22l-3.91-.08,1.01-3.52-.88,.11-1.02,3.57c-.04,.12,0,.29,.1,.42Z"/><path class="cls-1" d="M668.55,393.74c.1,.13,.24,.22,.37,.22l3.91,.08-1.08,3.76c-.03,.09-.01,.2,.04,.3l1.9-4.51s-.04-.09-.07-.13c-.1-.13-.24-.22-.37-.22l-3.91-.08,.35-1.23-.88,.11-.37,1.28c-.04,.12,0,.29,.1,.42Z"/></g><polygon class="cls-6" points="608.8 393.16 643.54 439.54 666.2 385.75 608.8 393.16"/><g><path class="cls-1" d="M74.42,455.41c-.02,.16,.05,.36,.2,.51,.15,.15,.34,.24,.5,.22l4.93-.55-.73,4.91c-.02,.16,.05,.36,.2,.51,.15,.15,.34,.24,.5,.22l4.93-.55-.73,4.91c-.02,.16,.05,.36,.2,.51,.15,.15,.34,.24,.5,.22l4.93-.55-.73,4.91c-.02,.16,.05,.36,.2,.51,.15,.15,.34,.24,.5,.22l4.93-.55-.73,4.91c-.04,.24,.15,.54,.42,.67,.12,.06,.24,.07,.34,.04l4.89-.54-.73,4.91c-.02,.16,.05,.36,.2,.51,.15,.15,.34,.24,.5,.22l4.93-.55-.73,4.91c-.02,.16,.05,.36,.2,.51,.15,.15,.34,.24,.5,.22l4.93-.55-.73,4.91c-.02,.16,.05,.36,.2,.51,.15,.15,.34,.24,.5,.22l4.93-.55-.73,4.91c-.02,.16,.05,.36,.2,.51,.15,.15,.34,.24,.5,.22l4.93-.55-.51,3.46,1.09-.29,.52-3.52c.02-.16-.05-.36-.2-.51-.15-.15-.34-.24-.5-.22l-4.93,.55,.73-4.91c.02-.16-.05-.36-.2-.51-.15-.15-.34-.24-.5-.22l-4.93,.55,.73-4.91c.02-.16-.05-.36-.2-.51-.15-.15-.34-.24-.5-.22l-4.93,.55,.73-4.91c.02-.16-.05-.36-.2-.51-.15-.15-.34-.24-.5-.22l-4.93,.55,.73-4.91c.02-.16-.05-.36-.2-.51-.15-.15-.34-.24-.5-.22l-4.94,.55,.72-4.9c.02-.16-.05-.36-.2-.51-.15-.15-.34-.24-.5-.22l-4.93,.55,.73-4.91c.02-.16-.05-.36-.2-.51-.15-.15-.34-.24-.5-.22l-4.93,.55,.73-4.91c.02-.16-.05-.36-.2-.51-.15-.15-.34-.24-.5-.22l-4.93,.55,.73-4.91c.02-.16-.05-.36-.2-.51-.15-.15-.34-.24-.5-.22l-4.93,.55,.73-4.91c.02-.16-.05-.36-.2-.51-.15-.15-.34-.24-.5-.22l-4.22,.47-.29,1.07,4.13-.46-.73,4.91Z"/><path class="cls-1" d="M69.13,460.47c-.02,.16,.05,.36,.2,.51,.15,.15,.34,.24,.5,.22l4.93-.55-.73,4.91c-.02,.16,.05,.36,.2,.51,.15,.15,.34,.24,.5,.22l4.93-.55-.73,4.91c-.02,.16,.05,.36,.2,.51,.15,.15,.34,.24,.5,.22l4.93-.55-.73,4.91c-.04,.24,.15,.54,.42,.67,.12,.06,.24,.07,.33,.04l4.89-.54-.73,4.91c-.02,.16,.05,.36,.2,.51,.15,.15,.34,.24,.5,.22l4.93-.55-.73,4.91c-.02,.16,.05,.36,.2,.51,.15,.15,.34,.24,.5,.22l4.93-.55-.73,4.91c-.02,.16,.05,.36,.2,.51,.15,.15,.34,.24,.5,.22l4.93-.55-.73,4.91c-.02,.16,.05,.36,.2,.51,.15,.15,.34,.24,.5,.22l4.93-.55-.73,4.91c-.02,.16,.05,.36,.2,.51,.15,.15,.34,.24,.5,.22l2.78-.31,3.21-.85c-.04-.09-.09-.17-.16-.25-.15-.15-.34-.24-.5-.22l-4.93,.55,.73-4.91c.02-.16-.05-.36-.2-.51-.15-.15-.34-.24-.5-.22l-4.93,.55,.73-4.91c.02-.16-.05-.36-.2-.51-.15-.15-.34-.24-.5-.22l-4.93,.55,.73-4.91c.02-.16-.05-.36-.2-.51-.15-.15-.34-.24-.5-.22l-4.93,.55,.73-4.91c.02-.16-.05-.36-.2-.51-.15-.15-.34-.24-.5-.22l-4.93,.55,.73-4.91c.02-.16-.05-.36-.2-.51-.15-.15-.34-.24-.5-.22l-4.94,.55,.72-4.9c.02-.16-.05-.36-.2-.51-.15-.15-.34-.24-.5-.22l-4.93,.55,.73-4.91c.02-.16-.05-.36-.2-.51-.15-.15-.34-.24-.5-.22l-4.93,.55,.73-4.91c.02-.16-.05-.36-.2-.51-.15-.15-.34-.24-.5-.22l-4.93,.55,.73-4.91c.02-.16-.05-.36-.2-.51-.15-.15-.34-.24-.5-.22l-.21,.02-.29,1.07h.11s-.73,4.89-.73,4.89Z"/><path class="cls-1" d="M69.49,465.71l-.73,4.91c-.02,.16,.05,.36,.2,.51,.15,.15,.34,.24,.5,.22l4.93-.55-.73,4.91c-.04,.24,.15,.54,.42,.67,.12,.06,.24,.07,.33,.04l4.89-.54-.73,4.91c-.02,.16,.05,.36,.2,.51,.15,.15,.34,.24,.5,.22l4.93-.55-.73,4.91c-.02,.16,.05,.36,.2,.51,.15,.15,.34,.24,.5,.22l4.93-.55-.73,4.91c-.02,.16,.05,.36,.2,.51,.15,.15,.34,.24,.5,.22l4.93-.55-.73,4.91c-.02,.16,.05,.36,.2,.51,.15,.15,.34,.24,.5,.22l4.93-.55-.73,4.91c-.02,.16,.05,.36,.2,.51,.15,.15,.34,.24,.5,.22l4.93-.55-.37,2.51,1.09-.29,.38-2.57c.02-.16-.05-.36-.2-.51-.15-.15-.34-.24-.5-.22l-4.93,.55,.73-4.91c.02-.16-.05-.36-.2-.51-.15-.15-.34-.24-.5-.22l-4.93,.55,.73-4.91c.02-.16-.05-.36-.2-.51-.15-.15-.34-.24-.5-.22l-4.93,.55,.73-4.91c.02-.16-.05-.36-.2-.51-.15-.15-.34-.24-.5-.22l-4.93,.55,.73-4.91c.02-.16-.05-.36-.2-.51-.15-.15-.34-.24-.5-.22l-4.93,.55,.73-4.91c.02-.16-.05-.36-.2-.51-.15-.15-.34-.24-.5-.22l-4.94,.55,.72-4.9c.02-.16-.05-.36-.2-.51-.15-.15-.34-.24-.5-.22l-4.93,.55,.73-4.91c.02-.16-.05-.36-.2-.51-.15-.15-.34-.24-.5-.22l-2.68,.3-.29,1.07,2.58-.29Z"/><path class="cls-1" d="M99.97,504.24l-4.93,.55,.73-4.91c.02-.16-.05-.36-.2-.51s-.34-.24-.5-.22l-4.93,.55,.73-4.91c.02-.16-.05-.36-.2-.51-.15-.15-.34-.24-.5-.22l-4.93,.55,.73-4.91c.02-.16-.05-.36-.2-.51-.15-.15-.34-.24-.5-.22l-4.93,.55,.73-4.91c.02-.16-.05-.36-.2-.51-.15-.15-.34-.24-.5-.22l-4.94,.55,.72-4.9c.02-.16-.05-.36-.2-.51-.15-.15-.34-.24-.5-.22l-4.93,.55,.73-4.91c.02-.16-.05-.36-.2-.51-.15-.15-.34-.24-.5-.22l-4.93,.55,.73-4.91c.02-.16-.05-.35-.2-.5l-1.62,5.92c.02,.12,.09,.25,.19,.36,.15,.15,.34,.24,.5,.22l4.93-.55-.73,4.91c-.02,.16,.05,.36,.2,.51,.15,.15,.34,.24,.5,.22l4.93-.55-.73,4.91c-.04,.24,.15,.54,.42,.67,.12,.06,.24,.07,.34,.04l4.89-.54-.73,4.91c-.02,.16,.05,.36,.2,.51,.15,.15,.34,.24,.5,.22l4.93-.55-.73,4.91c-.02,.16,.05,.36,.2,.51,.15,.15,.34,.24,.5,.22l4.93-.55-.73,4.91c-.02,.16,.05,.36,.2,.51,.15,.15,.34,.24,.5,.22l4.93-.55-.73,4.91c-.02,.16,.05,.36,.2,.51,.15,.15,.34,.24,.5,.22l2-.22,3.93-1.05s-.06-.1-.11-.14c-.15-.15-.34-.24-.5-.22Z"/><path class="cls-1" d="M91.3,503.37c-.15-.15-.34-.24-.5-.22l-4.93,.55,.73-4.91c.02-.16-.05-.36-.2-.51-.15-.15-.34-.24-.5-.22l-4.93,.55,.73-4.91c.02-.16-.05-.36-.2-.51-.15-.15-.34-.24-.5-.22l-4.94,.55,.73-4.9c.02-.16-.05-.36-.2-.51-.15-.15-.34-.24-.5-.22l-4.93,.55,.73-4.91c.02-.16-.05-.36-.2-.51-.15-.15-.34-.24-.5-.22l-4.93,.55,.73-4.91c.02-.16-.05-.36-.2-.51-.15-.15-.34-.24-.5-.22l-2.64,.29-.29,1.07,2.54-.28-.73,4.91c-.02,.16,.05,.36,.2,.51,.15,.15,.34,.24,.5,.22l4.93-.55-.73,4.91c-.02,.16,.05,.36,.2,.51,.15,.15,.34,.24,.5,.22l4.93-.55-.73,4.91c-.04,.24,.15,.54,.42,.67,.12,.06,.24,.07,.34,.04l4.89-.54-.73,4.91c-.02,.16,.05,.36,.2,.51,.15,.15,.34,.24,.5,.22l4.93-.55-.73,4.91c-.02,.16,.05,.36,.2,.51,.15,.15,.34,.24,.5,.22l4.93-.55-.47,3.2,1.08-.29,.48-3.27c.02-.16-.05-.36-.2-.51Z"/><path class="cls-1" d="M87.04,507.37c-.15-.15-.34-.24-.5-.22l-4.93,.55,.72-4.91c.02-.16-.05-.36-.2-.51-.15-.15-.34-.24-.5-.22l-4.94,.55,.73-4.9c.02-.16-.05-.36-.2-.51-.15-.15-.34-.24-.5-.22l-4.93,.55,.73-4.91c.02-.16-.05-.36-.2-.51-.15-.15-.34-.24-.5-.22l-4.93,.55,.73-4.91c.02-.16-.05-.36-.2-.51-.15-.15-.34-.24-.5-.22l-4.93,.55,.73-4.91c.02-.15-.04-.32-.16-.46l-1.63,5.96c.03,.1,.09,.19,.17,.28,.15,.15,.34,.24,.5,.22l4.93-.55-.73,4.91c-.02,.16,.05,.36,.2,.51,.15,.15,.34,.24,.5,.22l4.93-.55-.73,4.91c-.02,.16,.05,.36,.2,.51,.15,.15,.34,.24,.5,.22l4.93-.55-.73,4.91c-.04,.24,.15,.54,.42,.67,.12,.06,.24,.07,.34,.05l4.89-.54-.73,4.91c-.02,.16,.05,.36,.2,.51,.15,.15,.34,.24,.5,.22l4.93-.55-.03,.22,1.09-.29,.04-.28c.02-.16-.05-.36-.2-.51Z"/><path class="cls-1" d="M77.85,506.29c-.15-.15-.34-.24-.5-.22l-4.93,.55,.73-4.91c.02-.16-.05-.36-.2-.51s-.34-.24-.5-.22l-4.93,.55,.73-4.91c.02-.16-.05-.36-.2-.51-.15-.15-.34-.24-.5-.22l-4.93,.55,.73-4.91c.02-.16-.05-.36-.2-.51-.15-.15-.34-.24-.5-.22l-2.59,.29-.29,1.07,2.49-.28-.73,4.91c-.02,.16,.05,.36,.2,.51,.15,.15,.34,.24,.5,.22l4.93-.55-.73,4.91c-.02,.16,.05,.36,.2,.51,.15,.15,.34,.24,.5,.22l4.93-.55-.73,4.91c-.02,.16,.05,.36,.2,.51,.15,.15,.34,.24,.5,.22l4.93-.55-.58,3.9,1.09-.29,.59-3.96c.02-.16-.05-.36-.2-.51Z"/><path class="cls-1" d="M73.59,510.28c-.15-.15-.34-.24-.5-.22l-4.93,.55,.73-4.91c.02-.16-.05-.36-.2-.51-.15-.15-.34-.24-.5-.22l-4.93,.55,.73-4.91c.02-.16-.05-.36-.2-.51-.15-.15-.34-.24-.5-.22l-4.93,.55,.73-4.91c.02-.13-.03-.29-.13-.42l-1.63,5.98c.04,.07,.08,.15,.14,.21,.15,.15,.34,.24,.5,.22l4.93-.55-.73,4.91c-.02,.16,.05,.36,.2,.51,.15,.15,.34,.24,.5,.22l4.93-.55-.73,4.91c-.02,.16,.05,.36,.2,.51,.15,.15,.34,.24,.5,.22l4.93-.55-.14,.91,1.09-.29,.14-.98c.02-.16-.05-.36-.2-.51Z"/></g><polygon class="cls-6" points="135.35 503.97 83.96 451.46 64.44 522.84 135.35 503.97"/><path class="cls-7" d="M88.94,48.67c0,14.42-11.69,26.1-26.1,26.1s-26.1-11.69-26.1-26.1,11.69-26.1,26.1-26.1,26.1,11.69,26.1,26.1Z"/><circle class="cls-7" cx="715.61" cy="381.3" r="13.22"/><path class="cls-1" d="M250.49,113.5c0,5.31-4.31,9.62-9.62,9.62s-9.62-4.31-9.62-9.62,4.31-9.62,9.62-9.62,9.62,4.31,9.62,9.62Z"/><g><path class="cls-1" d="M43.81,66.72c.19,.33,.39,.66,.59,.98L81.86,30.23c-.32-.2-.65-.4-.98-.59l-37.08,37.08Z"/><path class="cls-1" d="M42.74,64.65c.16,.36,.33,.71,.52,1.05L79.87,29.09c-.35-.18-.7-.35-1.06-.52l-36.08,36.08Z"/><path class="cls-1" d="M41.82,62.43c.13,.38,.28,.76,.44,1.13L77.73,28.09c-.37-.16-.75-.3-1.13-.44L41.82,62.43Z"/><path class="cls-1" d="M41.08,60.03c.11,.41,.22,.82,.35,1.22L75.42,27.26c-.4-.13-.81-.24-1.22-.35L41.08,60.03Z"/><path class="cls-1" d="M40.54,57.43c.07,.45,.15,.89,.24,1.33L72.93,26.61c-.44-.09-.88-.17-1.33-.24l-31.06,31.06Z"/><path class="cls-1" d="M40.25,54.59c.03,.49,.06,.98,.11,1.46l29.86-29.86c-.48-.05-.97-.09-1.46-.11l-28.51,28.51Z"/><path class="cls-1" d="M40.27,51.43c-.04,.54-.06,1.08-.06,1.62l27.01-27.01c-.55,0-1.09,.02-1.63,.06l-25.32,25.33Z"/><path class="cls-1" d="M40.75,47.82c-.12,.62-.23,1.24-.31,1.88l23.42-23.42c-.63,.08-1.26,.18-1.87,.31l-21.24,21.24Z"/><path class="cls-1" d="M42.05,43.38c-.3,.77-.57,1.56-.8,2.37l18.67-18.67c-.8,.23-1.59,.49-2.37,.8l-15.5,15.5Z"/><path class="cls-1" d="M46.7,35.59c-1.28,1.5-2.4,3.14-3.33,4.9l11.3-11.29c-1.76,.93-3.4,2.05-4.9,3.33l-3.06,3.06Z"/><path class="cls-1" d="M49.46,73.62c.28,.25,.56,.49,.85,.72l38.19-38.19c-.23-.29-.47-.57-.72-.85l-38.33,38.33Z"/><path class="cls-1" d="M47.85,72.08c.25,.27,.52,.53,.79,.78l38.4-38.4c-.26-.27-.52-.53-.78-.79l-38.4,38.4Z"/><path class="cls-1" d="M46.37,70.43c.23,.29,.47,.57,.72,.85l38.35-38.35c-.28-.25-.56-.49-.85-.72l-38.22,38.22Z"/><path class="cls-1" d="M45.02,68.64c.21,.31,.43,.61,.66,.91L83.72,31.51c-.3-.23-.6-.45-.91-.66l-37.78,37.78Z"/><path class="cls-1" d="M43.81,66.72c.19,.33,.39,.66,.59,.98h0S81.86,30.23,81.86,30.23h0c-.32-.21-.65-.4-.98-.59l-37.08,37.08Z"/><path class="cls-1" d="M91.04,66.53l-10.34,10.34c4.32-2.44,7.91-6.02,10.34-10.34Z"/><path class="cls-1" d="M77.66,78.35l14.86-14.86c.33-.79,.61-1.6,.86-2.43l-18.15,18.15c.83-.25,1.64-.53,2.43-.86Z"/><path class="cls-1" d="M73.12,79.75l20.81-20.81c.14-.63,.25-1.26,.34-1.91l-23.06,23.06c.65-.09,1.28-.2,1.91-.34Z"/><path class="cls-1" d="M69.45,80.29l25.01-25.01c.04-.54,.07-1.09,.07-1.64l-26.72,26.72c.55,0,1.1-.03,1.64-.07Z"/><path class="cls-1" d="M64.79,80.24c.49,.05,.98,.08,1.47,.1l28.25-28.25c-.02-.49-.05-.99-.1-1.47l-29.63,29.63Z"/><path class="cls-1" d="M62.05,79.84c.44,.09,.89,.16,1.34,.23l30.85-30.85c-.06-.45-.14-.9-.23-1.34l-31.96,31.96Z"/><path class="cls-1" d="M59.54,79.22c.41,.12,.81,.24,1.23,.34l32.96-32.96c-.1-.41-.22-.82-.34-1.23l-33.85,33.85Z"/><path class="cls-1" d="M57.22,78.4c.37,.15,.75,.3,1.14,.43l34.64-34.64c-.13-.38-.28-.77-.43-1.14l-35.35,35.35Z"/><path class="cls-1" d="M55.06,77.42c.35,.18,.7,.35,1.06,.51l35.98-35.98c-.16-.36-.33-.71-.51-1.06l-36.53,36.53Z"/><path class="cls-1" d="M53.06,76.29c.32,.2,.65,.4,.99,.58l37-37c-.19-.33-.38-.66-.58-.99l-37.4,37.4Z"/><path class="cls-1" d="M51.19,75.02c.3,.23,.61,.44,.92,.66l37.73-37.73c-.21-.31-.43-.62-.65-.92l-38,37.99Z"/><path class="cls-1" d="M49.46,73.62c.28,.25,.56,.49,.85,.72l38.19-38.19c-.23-.29-.47-.57-.72-.85l-38.33,38.33Z"/></g><polygon class="cls-1" points="708.23 18.75 682.71 21.33 662.16 62.23 708.23 18.75"/><path class="cls-6" d="M470.35,537.26c-1.05,.41-2.25,.3-3.22-.32-1.1-.7-1.74-1.96-1.65-3.26l4.95-72.18c.08-1.17,.73-2.23,1.74-2.83,1.01-.6,2.25-.66,3.32-.17l51.27,23.57c1.22,.56,2.03,1.76,2.08,3.11,.05,1.35-.65,2.61-1.83,3.26l-33.35,18.66c-1.73,.96-3.91,.35-4.87-1.38-.96-1.72-.35-3.91,1.38-4.87l27.21-15.23-40.17-18.47-4.14,60.46,76.22-42.06-87.98-41.95c-1.78-.85-2.54-2.99-1.69-4.77,.85-1.78,2.99-2.54,4.77-1.69l94.27,44.95c1.21,.58,2,1.78,2.04,3.12,.04,1.34-.67,2.59-1.85,3.24l-88.06,48.6c-.14,.08-.29,.15-.44,.2Z"/><path class="cls-6" d="M-8.77,489c-.6,.45-1.38,.59-2.11,.38-.83-.25-1.46-.94-1.64-1.79l-9.82-46.97c-.16-.76,.07-1.56,.6-2.12,.54-.56,1.32-.83,2.09-.71l36.97,5.83c.88,.14,1.61,.76,1.89,1.61,.28,.85,.05,1.78-.58,2.41L.7,465.55c-.93,.93-2.43,.92-3.36,0-.93-.93-.93-2.43,0-3.36l14.63-14.61-28.96-4.57,8.23,39.34,41.09-40.55-63.71-10.96c-1.29-.22-2.16-1.45-1.94-2.74,.22-1.29,1.45-2.16,2.74-1.94l68.26,11.75c.88,.15,1.6,.78,1.86,1.63,.27,.85,.04,1.78-.6,2.4l-47.48,46.86c-.08,.08-.16,.14-.24,.21Z"/><path class="cls-1" d="M-1.64,268.64c-.93,.01-1.82-.41-2.39-1.16-.65-.86-.78-2-.34-2.98l24.42-54.18c.4-.88,1.2-1.51,2.15-1.68,.95-.17,1.93,.13,2.61,.81l32.75,32.8c.78,.78,1.06,1.94,.71,2.99-.34,1.05-1.25,1.82-2.34,1.99l-31.01,4.85c-1.61,.25-3.11-.85-3.36-2.45-.25-1.6,.85-3.11,2.45-3.36l25.3-3.96-25.66-25.69L3.21,261.99l70.71-10.63-55.78-57.44c-1.13-1.16-1.1-3.03,.06-4.16,1.17-1.13,3.03-1.1,4.16,.06l59.77,61.54c.77,.79,1.03,1.94,.68,2.99-.35,1.04-1.26,1.8-2.35,1.97L-1.25,268.6c-.13,.02-.26,.03-.39,.03Z"/><path class="cls-6" d="M280.6,25.26c-.56-.55-.83-1.34-.71-2.13,.13-.9,.75-1.66,1.6-1.98L328.71,3.71c.77-.28,1.62-.17,2.29,.3,.67,.47,1.06,1.24,1.06,2.06l-.35,39.27c0,.94-.54,1.79-1.38,2.21-.84,.42-1.84,.33-2.59-.23l-21.36-15.85c-1.11-.82-1.34-2.38-.52-3.48,.82-1.1,2.38-1.34,3.48-.52l17.42,12.93,.27-30.76-39.56,14.61,48.43,36.39,1.54-67.81c.03-1.38,1.17-2.46,2.55-2.43,1.37,.03,2.46,1.17,2.43,2.55l-1.66,72.66c-.02,.93-.56,1.78-1.4,2.18-.84,.41-1.84,.31-2.58-.25l-55.96-42.04c-.09-.07-.17-.14-.25-.22Z"/><path class="cls-7" d="M636.27,106.28c.38-.65,1.04-1.09,1.8-1.18,.87-.1,1.72,.29,2.22,1l27.59,39.47c.45,.64,.55,1.46,.28,2.2-.27,.73-.89,1.29-1.65,1.48l-36.42,9.2c-.87,.22-1.79-.07-2.38-.74-.59-.68-.75-1.62-.42-2.46l9.49-23.6c.49-1.22,1.88-1.81,3.1-1.32,1.22,.49,1.81,1.88,1.32,3.1l-7.74,19.26,28.53-7.21-23.11-33.06-21.93,53.64,63.12-15.01c1.28-.3,2.56,.49,2.87,1.77,.3,1.28-.49,2.57-1.77,2.87l-67.63,16.08c-.87,.21-1.78-.09-2.36-.77-.58-.68-.73-1.62-.4-2.45l25.34-61.97c.04-.1,.09-.2,.14-.29Z"/><g><polygon class="cls-1" points="132.32 -27.11 126.77 22.62 178.49 3.59 184.04 -46.14 132.32 -27.11"/><polygon class="cls-7" points="126.77 22.62 163.23 56.9 214.95 37.87 178.49 3.59 126.77 22.62"/><polygon class="cls-6" points="184.04 -46.14 178.49 3.59 214.95 37.87 220.5 -11.86 184.04 -46.14"/></g><g><polygon class="cls-7" points="493.17 225.55 518.56 246.96 512.79 249.33 532.42 271.92 506.16 248.79 511.93 246.42 493.17 225.55"/><polygon class="cls-1" points="495.81 224.06 521.2 245.47 515.43 247.84 535.06 270.43 508.79 247.3 514.56 244.93 495.81 224.06"/></g><g><g><path class="cls-1" d="M268.74,85.86c.02-.08,0-.18-.07-.27-.06-.09-.15-.14-.24-.14l-2.5-.05,.69-2.4c.02-.08,0-.18-.07-.27-.06-.09-.15-.14-.24-.14l-2.5-.05,.69-2.4c.02-.08,0-.18-.07-.27-.06-.09-.15-.14-.24-.14l-2.5-.05,.69-2.4c.02-.08,0-.18-.07-.27-.06-.09-.16-.14-.24-.14l-2.5-.05,.69-2.4c.03-.12-.04-.28-.17-.36-.06-.04-.12-.05-.16-.04l-2.48-.05,.69-2.4c.02-.08,0-.18-.07-.27-.06-.09-.16-.14-.24-.14l-2.5-.05,.69-2.4c.02-.08,0-.18-.07-.27-.06-.09-.16-.14-.24-.14l-2.5-.05,.69-2.4c.02-.08,0-.18-.07-.27-.06-.09-.16-.14-.24-.14l-2.5-.05,.69-2.4c.02-.08,0-.18-.07-.27-.06-.09-.15-.14-.24-.14l-2.5-.05,.48-1.69-.56,.07-.49,1.72c-.02,.08,0,.18,.07,.27,.06,.09,.15,.14,.24,.14l2.5,.05-.69,2.4c-.02,.08,0,.18,.07,.27,.06,.09,.15,.14,.24,.14l2.5,.05-.69,2.4c-.02,.08,0,.18,.07,.27,.06,.09,.15,.14,.24,.14l2.5,.05-.69,2.4c-.02,.08,0,.18,.07,.27,.06,.09,.15,.14,.24,.14l2.5,.05-.69,2.4c-.02,.08,0,.18,.07,.27,.06,.09,.15,.14,.24,.14l2.5,.05-.69,2.4c-.02,.08,0,.18,.07,.27,.06,.09,.15,.14,.24,.14l2.5,.05-.69,2.4c-.02,.08,0,.18,.07,.27,.06,.09,.15,.14,.24,.14l2.5,.05-.69,2.4c-.02,.08,0,.18,.07,.27,.06,.09,.16,.14,.24,.14l2.5,.05-.69,2.4c-.02,.08,0,.18,.07,.27,.06,.09,.15,.14,.24,.14l2.5,.05-.69,2.4c-.02,.08,0,.18,.07,.27,.06,.09,.15,.14,.24,.14l2.14,.05,.22-.52-2.09-.04,.69-2.4Z"/><path class="cls-1" d="M271.71,83.69c.02-.08,0-.18-.07-.27-.06-.09-.15-.14-.24-.14l-2.5-.05,.69-2.4c.02-.08,0-.18-.07-.27-.06-.09-.16-.14-.24-.14l-2.5-.05,.69-2.4c.02-.08,0-.18-.07-.27-.06-.09-.16-.14-.24-.14l-2.5-.05,.69-2.4c.03-.12-.04-.28-.17-.36-.06-.04-.12-.05-.16-.04l-2.48-.05,.69-2.4c.02-.08,0-.18-.07-.27-.06-.09-.16-.14-.24-.14l-2.5-.05,.69-2.4c.02-.08,0-.18-.07-.27-.06-.09-.16-.14-.24-.14l-2.5-.05,.69-2.4c.02-.08,0-.18-.07-.27-.06-.09-.15-.14-.24-.14l-2.5-.05,.69-2.4c.02-.08,0-.18-.07-.27-.06-.09-.15-.14-.24-.14l-2.5-.05,.69-2.4c.02-.08,0-.18-.07-.27-.06-.09-.16-.14-.24-.14l-1.41-.03-1.66,.21s.03,.09,.07,.13c.06,.09,.15,.14,.24,.14l2.5,.05-.69,2.4c-.02,.08,0,.18,.07,.27,.06,.09,.15,.14,.24,.14l2.5,.05-.69,2.4c-.02,.08,0,.18,.07,.27,.06,.09,.15,.14,.24,.14l2.5,.05-.69,2.4c-.02,.08,0,.18,.07,.27,.06,.09,.15,.14,.24,.14l2.5,.05-.69,2.4c-.02,.08,0,.18,.07,.27,.06,.09,.15,.14,.24,.14l2.5,.05-.69,2.4c-.02,.08,0,.18,.07,.27,.06,.09,.15,.14,.24,.14l2.5,.05-.69,2.4c-.02,.08,0,.18,.07,.27,.06,.09,.15,.14,.24,.14l2.5,.05-.69,2.4c-.02,.08,0,.18,.07,.27,.06,.09,.15,.14,.24,.14l2.5,.05-.69,2.4c-.02,.08,0,.18,.07,.27,.06,.09,.16,.14,.24,.14l2.5,.05-.69,2.4c-.02,.08,0,.18,.07,.27,.06,.09,.16,.14,.24,.14h.1s.22-.51,.22-.51h-.05s.69-2.4,.69-2.4Z"/><path class="cls-1" d="M271.89,81.05l.69-2.4c.02-.08,0-.18-.07-.27-.06-.09-.16-.14-.24-.14l-2.5-.05,.69-2.4c.03-.12-.04-.28-.17-.36-.06-.04-.12-.05-.16-.04l-2.48-.05,.69-2.4c.02-.08,0-.18-.07-.27-.06-.09-.16-.14-.24-.14l-2.5-.05,.69-2.4c.02-.08,0-.18-.07-.27-.06-.09-.16-.14-.24-.14l-2.5-.05,.69-2.4c.02-.08,0-.18-.07-.27-.06-.09-.15-.14-.24-.14l-2.5-.05,.69-2.4c.02-.08,0-.18-.07-.27-.06-.09-.15-.14-.24-.14l-2.5-.05,.69-2.4c.02-.08,0-.18-.07-.27-.06-.09-.16-.14-.24-.14l-2.5-.05,.35-1.23-.56,.07-.36,1.26c-.02,.08,0,.18,.07,.27,.06,.09,.15,.14,.24,.14l2.5,.05-.69,2.4c-.02,.08,0,.18,.07,.27,.06,.09,.15,.14,.24,.14l2.5,.05-.69,2.4c-.02,.08,0,.18,.07,.27,.06,.09,.16,.14,.24,.14l2.5,.05-.69,2.4c-.02,.08,0,.18,.07,.27,.06,.09,.15,.14,.24,.14l2.5,.05-.69,2.4c-.02,.08,0,.18,.07,.27,.06,.09,.15,.14,.24,.14l2.5,.05-.69,2.4c-.02,.08,0,.18,.07,.27,.06,.09,.16,.14,.24,.14l2.5,.05-.69,2.4c-.02,.08,0,.18,.07,.27,.06,.09,.15,.14,.24,.14l2.5,.05-.69,2.4c-.02,.08,0,.18,.07,.27,.06,.09,.15,.14,.24,.14l1.36,.03,.22-.52-1.31-.03Z"/><path class="cls-1" d="M259.21,59.79l2.5,.05-.69,2.4c-.02,.08,0,.18,.07,.27,.06,.09,.15,.14,.24,.14l2.5,.05-.69,2.4c-.02,.08,0,.18,.07,.27,.06,.09,.16,.14,.24,.14l2.5,.05-.69,2.4c-.02,.08,0,.18,.07,.27,.06,.09,.16,.14,.24,.14l2.5,.05-.69,2.4c-.02,.08,0,.18,.07,.27,.06,.09,.16,.14,.24,.14l2.5,.05-.69,2.4c-.02,.08,0,.18,.07,.27,.06,.09,.16,.14,.24,.14l2.5,.05-.69,2.4c-.02,.08,0,.18,.07,.27,.06,.09,.16,.14,.24,.14l2.5,.05-.69,2.4c-.02,.08,0,.18,.06,.26l1.2-2.85c0-.06-.03-.13-.07-.19-.06-.09-.15-.14-.24-.14l-2.5-.05,.69-2.4c.02-.08,0-.18-.07-.27-.06-.09-.15-.14-.24-.14l-2.5-.05,.69-2.4c.03-.12-.04-.28-.17-.36-.06-.04-.12-.05-.16-.04l-2.48-.05,.69-2.4c.02-.08,0-.18-.07-.27-.06-.09-.16-.14-.24-.14l-2.5-.05,.69-2.4c.02-.08,0-.18-.07-.27-.06-.09-.15-.14-.24-.14l-2.5-.05,.69-2.4c.02-.08,0-.18-.07-.27-.06-.09-.16-.14-.24-.14l-2.5-.05,.69-2.4c.02-.08,0-.18-.07-.27-.06-.09-.16-.14-.24-.14l-1.01-.02-2.03,.26s.03,.05,.04,.08c.06,.09,.16,.14,.24,.14Z"/><path class="cls-1" d="M263.48,60.8c.06,.09,.15,.14,.24,.14l2.5,.05-.69,2.4c-.02,.08,0,.18,.07,.27s.15,.14,.24,.14l2.5,.05-.69,2.4c-.02,.08,0,.18,.07,.27,.06,.09,.16,.14,.24,.14l2.5,.05-.69,2.4c-.02,.08,0,.18,.07,.27,.06,.09,.15,.14,.24,.14l2.5,.05-.69,2.4c-.02,.08,0,.18,.07,.27,.06,.09,.15,.14,.24,.14l2.5,.05-.69,2.4c-.02,.08,0,.18,.07,.27,.06,.09,.16,.14,.24,.14l1.34,.03,.22-.52-1.29-.03,.69-2.4c.02-.08,0-.18-.07-.27-.06-.09-.16-.14-.24-.14l-2.5-.05,.69-2.4c.02-.08,0-.18-.07-.27-.06-.09-.15-.14-.24-.14l-2.5-.05,.69-2.4c.03-.12-.04-.28-.17-.36-.06-.04-.11-.05-.16-.04l-2.48-.05,.69-2.4c.02-.08,0-.18-.07-.27-.06-.09-.16-.14-.24-.14l-2.5-.05,.69-2.4c.02-.08,0-.18-.07-.27-.06-.09-.15-.14-.24-.14l-2.5-.05,.45-1.57-.56,.07-.46,1.6c-.02,.08,0,.18,.07,.27Z"/><path class="cls-1" d="M265.88,59.08c.06,.09,.16,.14,.24,.14l2.5,.05-.69,2.4c-.02,.08,0,.18,.07,.27,.06,.09,.15,.14,.24,.14l2.5,.05-.69,2.4c-.02,.08,0,.18,.07,.27,.06,.09,.15,.14,.24,.14l2.5,.05-.69,2.4c-.02,.08,0,.18,.07,.27,.06,.09,.16,.14,.24,.14l2.5,.05-.69,2.4c-.02,.08,0,.18,.07,.27,.06,.09,.15,.14,.24,.14l2.5,.05-.69,2.4c-.02,.07,0,.16,.05,.24l1.21-2.87c-.01-.05-.03-.1-.07-.15-.06-.09-.16-.14-.24-.14l-2.5-.05,.69-2.4c.02-.08,0-.18-.07-.27-.06-.09-.15-.14-.24-.14l-2.5-.05,.69-2.4c.02-.08,0-.18-.07-.27-.06-.09-.15-.14-.24-.14l-2.5-.05,.69-2.4c.03-.12-.04-.28-.17-.36-.06-.04-.12-.05-.16-.04l-2.48-.05,.69-2.4c.02-.08,0-.18-.07-.27-.06-.09-.16-.14-.24-.14l-2.5-.05,.03-.11-.56,.07-.04,.14c-.02,.08,0,.18,.07,.27Z"/><path class="cls-1" d="M270.39,60.23c.06,.09,.16,.14,.24,.14l2.5,.05-.69,2.4c-.02,.08,0,.18,.07,.27,.06,.09,.15,.14,.24,.14l2.5,.05-.69,2.4c-.02,.08,0,.18,.07,.27,.06,.09,.16,.14,.24,.14l2.5,.05-.69,2.4c-.02,.08,0,.18,.07,.27,.06,.09,.16,.14,.24,.14l1.31,.03,.22-.52-1.26-.03,.69-2.4c.02-.08,0-.18-.07-.27-.06-.09-.15-.14-.24-.14l-2.5-.05,.69-2.4c.02-.08,0-.18-.07-.27-.06-.09-.16-.14-.24-.14l-2.5-.05,.69-2.4c.02-.08,0-.18-.07-.27-.06-.09-.15-.14-.24-.14l-2.5-.05,.54-1.91-.56,.07-.55,1.94c-.02,.08,0,.18,.07,.27Z"/><path class="cls-1" d="M272.79,58.52c.06,.09,.16,.14,.24,.14l2.5,.05-.69,2.4c-.02,.08,0,.18,.07,.27,.06,.09,.15,.14,.24,.14l2.5,.05-.69,2.4c-.02,.08,0,.18,.07,.27,.06,.09,.15,.14,.24,.14l2.5,.05-.69,2.4c-.02,.06,0,.14,.04,.22l1.21-2.88s-.03-.08-.06-.12c-.06-.09-.16-.14-.24-.14l-2.5-.05,.69-2.4c.02-.08,0-.18-.07-.27-.06-.09-.16-.14-.24-.14l-2.5-.05,.69-2.4c.02-.08,0-.18-.07-.27-.06-.09-.15-.14-.24-.14l-2.5-.05,.13-.45-.56,.07-.14,.48c-.02,.08,0,.18,.07,.27Z"/><path class="cls-1" d="M277.29,59.67c.06,.09,.16,.14,.24,.14l2.5,.05-.69,2.4c-.02,.08,0,.18,.07,.27,.06,.09,.16,.14,.24,.14l1.29,.03,.22-.52-1.24-.03,.69-2.4c.02-.08,0-.18-.07-.27-.06-.09-.15-.14-.24-.14l-2.5-.05,.64-2.25-.56,.07-.65,2.28c-.02,.08,0,.18,.07,.27Z"/><path class="cls-1" d="M279.69,57.95c.06,.09,.15,.14,.24,.14l2.5,.05-.69,2.4c-.02,.06,0,.13,.02,.19l1.21-2.88s-.03-.06-.05-.08c-.06-.09-.16-.14-.24-.14l-2.5-.05,.23-.79-.56,.07-.23,.82c-.02,.08,0,.18,.07,.27Z"/></g><polygon class="cls-6" points="241.53 57.59 263.72 87.2 278.19 52.85 241.53 57.59"/></g><g><g><rect class="cls-6" x="50.72" y="148.94" width="22.28" height=".88" transform="translate(-98.15 126.16) rotate(-59.25)"/><rect class="cls-6" x="49.21" y="148.04" width="22.28" height=".88" transform="translate(-98.11 124.42) rotate(-59.25)"/><rect class="cls-6" x="47.7" y="147.14" width="22.28" height=".88" transform="translate(-98.08 122.69) rotate(-59.25)"/><rect class="cls-6" x="46.19" y="146.24" width="22.28" height=".88" transform="translate(-98.04 120.95) rotate(-59.25)"/><rect class="cls-6" x="44.68" y="145.34" width="22.28" height=".88" transform="translate(-98 119.14) rotate(-59.22)"/><rect class="cls-6" x="43.17" y="144.44" width="22.28" height=".88" transform="translate(-97.96 117.4) rotate(-59.22)"/><rect class="cls-6" x="41.65" y="143.54" width="22.28" height=".88" transform="translate(-97.94 115.73) rotate(-59.25)"/><rect class="cls-6" x="40.14" y="142.65" width="22.28" height=".88" transform="translate(-97.92 114.08) rotate(-59.28)"/><rect class="cls-6" x="38.63" y="141.75" width="22.28" height=".88" transform="translate(-97.87 112.26) rotate(-59.25)"/><rect class="cls-6" x="37.12" y="140.85" width="22.28" height=".88" transform="translate(-97.82 110.45) rotate(-59.22)"/><rect class="cls-6" x="35.61" y="139.95" width="22.28" height=".88" transform="translate(-97.79 108.72) rotate(-59.23)"/><rect class="cls-6" x="34.1" y="139.05" width="22.28" height=".88" transform="translate(-97.79 107.13) rotate(-59.28)"/><rect class="cls-6" x="32.59" y="138.15" width="22.28" height=".88" transform="translate(-97.73 105.31) rotate(-59.25)"/><rect class="cls-6" x="31.08" y="137.25" width="22.28" height=".88" transform="translate(-97.7 103.58) rotate(-59.25)"/></g><rect class="cls-1" x="39.21" y="126.78" width="22.28" height="23.73" transform="translate(-94.55 111.01) rotate(-59.24)"/></g><g><circle class="cls-7" cx="612.81" cy="268.48" r="22.14" transform="translate(-56.1 254.95) rotate(-22.5)"/><g><path class="cls-1" d="M596.67,283.79c.16,.28,.33,.56,.5,.83l31.78-31.78c-.27-.17-.55-.34-.83-.5l-31.45,31.45Z"/><path class="cls-1" d="M595.77,282.04c.14,.3,.29,.6,.44,.89l31.06-31.06c-.29-.15-.59-.3-.9-.44l-30.6,30.6Z"/><path class="cls-1" d="M594.99,280.16c.11,.32,.24,.64,.37,.96l30.08-30.08c-.32-.13-.64-.26-.96-.37l-29.49,29.5Z"/><path class="cls-1" d="M594.36,278.13c.09,.35,.19,.69,.3,1.03l28.83-28.83c-.34-.11-.69-.21-1.03-.3l-28.1,28.1Z"/><path class="cls-1" d="M593.9,275.92c.06,.38,.13,.75,.2,1.13l27.27-27.27c-.37-.08-.75-.15-1.13-.2l-26.34,26.35Z"/><path class="cls-1" d="M593.66,273.51c.02,.42,.05,.83,.09,1.24l25.32-25.32c-.41-.04-.82-.07-1.24-.1l-24.18,24.18Z"/><path class="cls-1" d="M593.68,270.83c-.03,.46-.05,.91-.05,1.38l22.91-22.91c-.47,0-.92,.02-1.38,.05l-21.48,21.48Z"/><path class="cls-1" d="M594.08,267.76c-.1,.52-.19,1.06-.26,1.59l19.87-19.87c-.54,.07-1.07,.16-1.59,.26l-18.02,18.01Z"/><path class="cls-1" d="M595.18,264c-.26,.66-.48,1.33-.68,2.01l15.83-15.83c-.68,.19-1.35,.42-2.01,.68l-13.15,13.15Z"/><path class="cls-1" d="M599.13,257.4c-1.09,1.27-2.04,2.67-2.83,4.16l9.58-9.58c-1.49,.79-2.88,1.74-4.16,2.83l-2.6,2.6Z"/><path class="cls-1" d="M601.47,289.65c.24,.21,.48,.41,.72,.61l32.39-32.4c-.2-.24-.4-.49-.61-.72l-32.51,32.51Z"/><path class="cls-1" d="M600.1,288.35c.21,.23,.44,.45,.67,.67l32.57-32.57c-.22-.23-.44-.45-.66-.67l-32.57,32.57Z"/><path class="cls-1" d="M598.85,286.94c.2,.24,.4,.48,.61,.72l32.52-32.52c-.24-.21-.47-.42-.72-.61l-32.42,32.42Z"/><path class="cls-1" d="M597.71,285.42c.18,.26,.36,.52,.56,.77l32.26-32.26c-.25-.19-.51-.38-.77-.56l-32.05,32.05Z"/><path class="cls-1" d="M596.67,283.79c.16,.28,.33,.56,.5,.83h0s31.77-31.77,31.77-31.77h0c-.27-.18-.55-.34-.83-.5l-31.45,31.45Z"/><path class="cls-1" d="M636.74,283.64l-8.77,8.77c3.67-2.07,6.71-5.11,8.77-8.77Z"/><path class="cls-1" d="M625.38,293.66l12.6-12.6c.28-.67,.52-1.36,.73-2.06l-15.4,15.39c.7-.21,1.39-.45,2.06-.73Z"/><path class="cls-1" d="M621.53,294.85l17.65-17.65c.12-.53,.21-1.07,.29-1.62l-19.56,19.56c.55-.08,1.09-.17,1.62-.29Z"/><path class="cls-1" d="M618.42,295.3l21.21-21.21c.04-.46,.06-.92,.06-1.39l-22.67,22.67c.47,0,.93-.03,1.39-.06Z"/><path class="cls-1" d="M614.47,295.27c.41,.04,.83,.07,1.25,.08l23.96-23.96c-.01-.42-.04-.84-.08-1.25l-25.13,25.13Z"/><path class="cls-1" d="M612.14,294.93c.38,.07,.75,.14,1.14,.19l26.17-26.17c-.06-.38-.12-.76-.19-1.14l-27.11,27.11Z"/><path class="cls-1" d="M610.02,294.4c.34,.11,.69,.2,1.04,.29l27.95-27.95c-.09-.35-.18-.7-.29-1.04l-28.71,28.71Z"/><path class="cls-1" d="M608.05,293.7c.32,.13,.64,.25,.97,.37l29.38-29.38c-.11-.33-.23-.65-.36-.97l-29.99,29.99Z"/><path class="cls-1" d="M606.22,292.87c.29,.15,.59,.29,.9,.43l30.52-30.52c-.14-.3-.28-.6-.43-.9l-30.98,30.98Z"/><path class="cls-1" d="M604.52,291.91c.27,.17,.55,.34,.84,.5l31.38-31.38c-.16-.28-.32-.56-.5-.84l-31.72,31.72Z"/><path class="cls-1" d="M602.94,290.83c.25,.19,.51,.38,.78,.56l32-32c-.18-.26-.36-.52-.55-.78l-32.23,32.22Z"/><path class="cls-1" d="M601.47,289.65c.24,.21,.48,.41,.72,.61l32.39-32.4c-.2-.24-.4-.49-.61-.72l-32.51,32.51Z"/></g></g><g><path class="cls-7" d="M365.43,407.77c0,6.87-5.57,12.44-12.44,12.44s-12.44-5.57-12.44-12.44,5.57-12.43,12.44-12.43,12.44,5.57,12.44,12.43Z"/><g><path class="cls-6" d="M343.93,416.37c.09,.16,.18,.31,.28,.46l17.85-17.85c-.15-.1-.31-.19-.46-.28l-17.67,17.66Z"/><path class="cls-6" d="M343.42,415.38c.08,.17,.16,.34,.25,.5l17.44-17.44c-.17-.09-.33-.17-.5-.25l-17.19,17.19Z"/><path class="cls-6" d="M342.99,414.32c.06,.18,.13,.36,.21,.54l16.9-16.9c-.18-.07-.36-.14-.54-.21l-16.57,16.57Z"/><path class="cls-6" d="M342.63,413.18c.05,.2,.11,.39,.17,.58l16.19-16.2c-.19-.06-.39-.12-.58-.17l-15.78,15.78Z"/><path class="cls-6" d="M342.38,411.95c.03,.21,.07,.42,.12,.63l15.32-15.32c-.21-.04-.42-.08-.63-.11l-14.8,14.8Z"/><path class="cls-6" d="M342.24,410.59c.01,.23,.03,.46,.05,.69l14.22-14.22c-.23-.02-.46-.04-.7-.05l-13.58,13.58Z"/><path class="cls-6" d="M342.25,409.09c-.02,.26-.03,.51-.03,.77l12.87-12.87c-.26,0-.52,0-.78,.03l-12.06,12.07Z"/><path class="cls-6" d="M342.48,407.36c-.06,.29-.11,.59-.15,.89l11.16-11.16c-.3,.04-.6,.09-.89,.15l-10.12,10.12Z"/><path class="cls-6" d="M343.09,405.25c-.14,.37-.27,.75-.38,1.13l8.89-8.89c-.38,.11-.76,.24-1.13,.38l-7.39,7.39Z"/><path class="cls-6" d="M345.31,401.54c-.61,.71-1.14,1.5-1.59,2.33l5.38-5.38c-.84,.44-1.62,.98-2.33,1.59l-1.46,1.46Z"/><path class="cls-6" d="M346.62,419.65c.13,.12,.27,.23,.41,.34l18.2-18.2c-.11-.14-.23-.27-.34-.41l-18.26,18.26Z"/><path class="cls-6" d="M345.86,418.92c.12,.13,.25,.25,.37,.37l18.29-18.29c-.12-.13-.25-.25-.37-.38l-18.29,18.29Z"/><path class="cls-6" d="M345.16,418.14c.11,.14,.23,.27,.34,.4l18.27-18.27c-.13-.12-.27-.23-.4-.34l-18.21,18.21Z"/><path class="cls-6" d="M344.51,417.28c.1,.15,.21,.29,.31,.43l18.12-18.12c-.14-.11-.29-.21-.43-.31l-18,18Z"/><path class="cls-6" d="M343.93,416.37c.09,.16,.18,.31,.28,.46h0s17.85-17.85,17.85-17.85h0c-.15-.1-.31-.19-.46-.28l-17.67,17.66Z"/><path class="cls-6" d="M366.44,416.28l-4.93,4.93c2.06-1.16,3.77-2.87,4.93-4.93Z"/><path class="cls-6" d="M360.06,421.91l7.08-7.08c.16-.38,.29-.76,.41-1.16l-8.65,8.65c.39-.12,.78-.25,1.16-.41Z"/><path class="cls-6" d="M357.9,422.58l9.91-9.91c.07-.3,.12-.6,.16-.91l-10.99,10.98c.31-.04,.61-.1,.91-.16Z"/><path class="cls-6" d="M356.15,422.83l11.91-11.91c.02-.26,.03-.52,.04-.78l-12.73,12.73c.26,0,.52-.02,.78-.04Z"/><path class="cls-6" d="M353.93,422.81c.23,.02,.47,.04,.7,.05l13.46-13.46c0-.24-.02-.47-.05-.7l-14.11,14.11Z"/><path class="cls-6" d="M352.62,422.62c.21,.04,.42,.08,.64,.11l14.7-14.7c-.03-.22-.07-.43-.11-.64l-15.23,15.23Z"/><path class="cls-6" d="M351.43,422.32c.19,.06,.39,.11,.59,.16l15.7-15.7c-.05-.2-.1-.39-.16-.59l-16.12,16.12Z"/><path class="cls-6" d="M350.32,421.93c.18,.07,.36,.14,.54,.2l16.5-16.5c-.06-.18-.13-.37-.21-.54l-16.84,16.84Z"/><path class="cls-6" d="M349.29,421.47c.17,.08,.33,.16,.5,.24l17.14-17.14c-.08-.17-.16-.34-.24-.5l-17.4,17.4Z"/><path class="cls-6" d="M348.34,420.93c.15,.1,.31,.19,.47,.28l17.63-17.63c-.09-.16-.18-.32-.28-.47l-17.82,17.82Z"/><path class="cls-6" d="M347.45,420.32c.14,.11,.29,.21,.44,.31l17.98-17.98c-.1-.15-.2-.29-.31-.44l-18.1,18.1Z"/><path class="cls-6" d="M346.62,419.65c.13,.12,.27,.23,.41,.34l18.2-18.2c-.11-.14-.23-.27-.34-.41l-18.26,18.26Z"/></g></g><polygon class="cls-6" points="31.87 295.29 51.64 307.48 88.94 289.36 31.87 295.29"/><polygon class="cls-7" points="560.79 38.16 542.56 40 527.88 69.22 560.79 38.16"/><g><polygon class="cls-1" points="361.28 63.21 359.25 81.41 378.18 74.45 380.21 56.25 361.28 63.21"/><polygon class="cls-7" points="359.25 81.41 372.59 93.96 391.52 86.99 378.18 74.45 359.25 81.41"/><polygon class="cls-6" points="380.21 56.25 378.18 74.45 391.52 86.99 393.55 68.79 380.21 56.25"/></g><g><polygon class="cls-6" points="228.13 167.26 226.9 169.32 285.36 203.55 286.59 201.49 228.13 167.26"/><polygon class="cls-6" points="230.59 163.13 229.36 165.2 287.82 199.42 289.05 197.36 230.59 163.13"/><polygon class="cls-6" points="233.04 159 231.81 161.07 290.27 195.3 291.5 193.23 233.04 159"/><polygon class="cls-6" points="235.5 154.87 234.27 156.94 292.73 191.17 293.96 189.1 235.5 154.87"/><polygon class="cls-6" points="237.96 150.75 236.73 152.81 295.19 187.04 296.42 184.97 237.96 150.75"/><polygon class="cls-6" points="240.41 146.62 239.18 148.68 297.64 182.91 298.87 180.85 240.41 146.62"/><polygon class="cls-6" points="242.87 142.49 241.64 144.56 300.1 178.78 301.33 176.72 242.87 142.49"/><polygon class="cls-6" points="245.33 138.36 244.1 140.43 302.55 174.66 303.78 172.59 245.33 138.36"/><polygon class="cls-6" points="247.78 134.23 246.55 136.3 305.01 170.53 306.24 168.46 247.78 134.23"/><polygon class="cls-6" points="250.24 130.11 249.01 132.17 307.47 166.4 308.7 164.33 250.24 130.11"/><polygon class="cls-6" points="252.7 125.98 251.46 128.04 309.92 162.27 311.15 160.21 252.7 125.98"/><polygon class="cls-6" points="255.15 121.85 253.92 123.92 312.38 158.14 313.61 156.08 255.15 121.85"/><polygon class="cls-6" points="257.61 117.72 256.38 119.79 314.84 154.02 316.07 151.95 257.61 117.72"/><polygon class="cls-6" points="260.06 113.59 258.83 115.66 317.29 149.89 318.52 147.82 260.06 113.59"/></g><rect class="cls-7" x="349.13" y="465.79" width="65.01" height="69.25" transform="translate(-243.57 572.48) rotate(-59.24)"/><g><polygon class="cls-1" points="339.82 478.77 338.85 480.41 385.11 507.49 386.08 505.86 339.82 478.77"/><polygon class="cls-1" points="341.77 475.51 340.79 477.14 387.05 504.23 388.03 502.59 341.77 475.51"/><polygon class="cls-1" points="343.71 472.24 342.74 473.87 389 500.96 389.97 499.33 343.71 472.24"/><polygon class="cls-1" points="345.65 468.97 344.68 470.61 390.94 497.69 391.92 496.06 345.65 468.97"/><polygon class="cls-1" points="347.6 465.71 346.62 467.34 392.89 494.43 393.86 492.79 347.6 465.71"/><polygon class="cls-1" points="349.54 462.44 348.57 464.07 394.83 491.16 395.8 489.53 349.54 462.44"/><polygon class="cls-1" points="351.48 459.17 350.51 460.81 396.77 487.89 397.75 486.26 351.48 459.17"/><polygon class="cls-1" points="353.43 455.91 352.46 457.54 398.72 484.63 399.69 482.99 353.43 455.91"/><polygon class="cls-1" points="355.37 452.64 354.4 454.27 400.66 481.36 401.63 479.73 355.37 452.64"/><polygon class="cls-1" points="357.32 449.37 356.34 451.01 402.61 478.09 403.58 476.46 357.32 449.37"/><polygon class="cls-1" points="359.26 446.1 358.29 447.74 404.55 474.83 405.52 473.19 359.26 446.1"/><polygon class="cls-1" points="361.2 442.84 360.23 444.47 406.49 471.56 407.47 469.92 361.2 442.84"/><polygon class="cls-1" points="363.15 439.57 362.17 441.21 408.44 468.29 409.41 466.66 363.15 439.57"/><polygon class="cls-1" points="365.09 436.3 364.12 437.94 410.38 465.03 411.35 463.39 365.09 436.3"/></g></g></g></svg>