<?xml version="1.0" encoding="UTF-8"?><svg xmlns="http://www.w3.org/2000/svg" viewBox="0 0 1549.29 3251.71"><defs><style>.cls-1{fill:#00e5b9;}.cls-2{fill:#fffae5;}.cls-3{fill:#fbce00;}.cls-4{fill:#951b70;}</style></defs><g id="Layer_4"><path class="cls-3" d="M399.96,998.91c4.69,1.5,9.38,3,15.56,4.98,.5-9,1.23-17.19,1.3-25.38,.05-5.37-3.48-8.5-8.56-9.6-6.17-1.34-12.41-2.39-18.6-3.64-6.42-1.29-12.82-2.66-19.1-5.13,13.11,1.09,26.22,2.18,39.48,3.28,.33-1.58,.72-3.42,1.26-6.01,2.05,2.46,3.6,4.32,6.77,8.11,.61-6.27,1-10.3,1.43-14.73-13.66-4.22-26.54-8.88-40.38-7.1-13.38,1.72-26.65,4.3-40.1,6.53,26.11-12.11,53.19-13.09,82.88-5.86-6.71-6.39-15.78-8.31-39.62-7.36-13.06,.52-26.04,3.24-39.26,4.99,25.61-10.33,51.72-12.8,78.86-5.51,2.88-11.13,5.84-21.16,7.89-31.37,.64-3.2-.76-7.03-1.91-10.33-4.28-12.22-8.96-24.3-13.24-36.53-1.06-3.02-1.15-6.38-.9-9.84,6.14,14.18,9.86,29.33,18.78,43.84,1.1-2.98,1.96-4.62,2.3-6.35,.89-4.55,.61-9.58,2.48-13.65,5.78-12.55,.32-22.48-6.13-32.52-2.34-3.64-4.13-7.63-6.18-11.47,.61-.39,1.21-.77,1.82-1.16,5.07,5.52,10.13,11.03,15.74,17.13v-37.75c-16.64-7.35-19.72-12.03-16.82-26.01,8.85-1.74,14.41,5.56,21.68,8.76,8.8-11.44,1.95-26.07,9.23-37.72,3.77-.36,4.97,2.33,4.43,5.5-1.27,7.46,2.64,10.79,8.9,13.2,5.49,2.11,10.69,4.96,16.95,7.92,.76-3.43,1.53-5.53,1.66-7.67,1.64-26.87,3.23-53.74,4.75-80.61,1.39-24.54,2.27-49.11,4.12-73.61,1.79-23.82,4.73-47.55,6.77-71.36,1.24-14.54,1.38-29.17,2.66-43.7,1.25-14.22,2.82-28.44,5.14-42.52,3.66-22.29,8.13-44.44,12.02-66.69,.4-2.32-.27-5.2-1.38-7.34-4.21-8.12-3.64-12.85,3.04-20.07,.68-.73,1.73-1.36,1.96-2.22,3-10.79,2.28-21.76,.08-32.45-.52-2.51-5.45-4.24-8.51-6.06-6.37-3.78-7.93-7.34-5.64-13.76,.33-.91,.73-2.27,1.41-2.5,6.84-2.31,5.62-7.96,5.67-13.12,.2-18.21,1.41-36.37,4.17-54.36,.93-6.03,3.03-11.95,5.18-17.7,7.3-19.46,12.39-39.36,12.73-60.26,.18-11.06,4.99-20.5,10.39-29.65,.95-1.61,4.06-3.25,5.67-2.85,2.11,.53,4.89,2.82,5.3,4.79,1.05,5.02,1.12,10.28,1.26,15.46,.18,6.81,.04,13.63,.04,21.1,3.66,1.92,6.87,1.3,9.14-3.2,5.39-10.65,11.01-21.19,16.22-31.93,8.02-16.53,17.21-32.33,28.97-46.48,5-6.01,12.2-5.77,20.19-5.29,1.52,4.31,3.08,8.76,4.93,13.99,4.45-7.62,8.53-15.02,12.99-22.17,4.84-7.76,12.45-12.07,21.06-13.64,3.96-.72,8.75-4.87,12.83,.29,2.53,10.16-6.82,15.54-10.66,24.75,8.67-6.64,16-12.39,23.51-17.91,2.32-1.71,5.01-3.43,7.75-3.94,3.47-.64,8.05-1.22,9.68,2.91,.87,2.21-.12,5.76-1.39,8.08-2.82,5.15-6.22,10.01-9.62,14.82-4.91,6.95-10.02,13.76-15.04,20.63-.77,1.06-2.22,2.15-2.18,3.18,.38,8.98-7.83,13.03-11.14,19.86-.26,.54-1.22,.75-1.44,1.28-5.74,13.61-15.67,24.49-23.77,36.55-.59,.89-.34,2.34-.58,4.39,2.02-.5,3.59-.41,4.28-1.14,6.94-7.31,16.67-8.12,25.46-9.55,7.58-1.24,15.79,.73,23.6,2.03,2.15,.36,4.51,3.11,5.53,5.33,.63,1.38-.49,4.7-1.86,5.62-2.65,1.79-5.94,2.83-9.11,3.59-13.14,3.14-20.54,13.31-28.77,22.66-5.54,6.29-11.93,11.82-17.57,18.03-3.45,3.8-6.52,8.04-9.24,12.4-7.58,12.16-15.4,24.22-22.16,36.83-5.75,10.72-10.49,22.07-11.44,34.48-.34,4.41,3.5,7.35,7.98,6.14,1.82-.49,3.33-2.06,5.07-2.99,4.55-2.43,7.88-1.55,10.7,2.78,1.42,2.17,2.77,4.37,4.3,6.77-5.41,3.93-10.51,7.62-16.37,11.87-.58-.14-2.46-.76-4.39-1.02-7.66-1.04-9.53,.5-9.64,8.37-.13,8.99-.15,17.99,.11,26.98,.06,2.06,1.16,4.27,2.3,6.09,4.97,7.85,4.4,16.1-2.74,22.13-4.03,3.4-5.45,7.26-5.69,12.08-.82,16.61-1.91,33.2-2.46,49.82-.87,26.59-2.33,53.21-1.85,79.78,.8,44.46,3.01,88.9,4.44,133.35,.62,19.24,1.74,38.55,.86,57.75-.88,19.21-3.31,38.41-6.26,57.43-3.1,19.98-3.87,20.26,14.56,27.63,17.9,7.16,36.17,13.41,54.27,20.09,2.71,1,5.36,2.18,8.33,3.4-5.28,22.91-16.32,43.42-18.86,67.03,4.17-.76,4.37-4.05,5.63-6.38,9.55-17.73,21.3-33.58,37.93-45.44,7.54-5.38,16.28-8.42,24.99-8.9,13.53-.74,27.02-.07,40.38,4.76,20.62,7.47,38.04,19.71,54.74,33.19,4.94,3.99,8.47,9.54,14.58,12.54,2.66,1.3,4.19,5.01,6.07,7.73,.93,1.36,1.13,3.37,2.28,4.4,15.24,13.65,22.84,32.06,30.75,50.1,8.39,19.16,16.18,38.61,23.43,58.23,4.89,13.24,8.38,27.01,12.53,40.53,.59,1.91,1.14,3.88,2.07,5.62,8.57,16,17.5,31.82,25.74,47.99,3.46,6.8,4.78,14.73,8.47,21.36,3.03,5.46,8.02,9.87,12.34,14.56,10.46,11.37,24.86,19.06,31.76,33.77,4.08,8.69,9.12,17.12,11.78,26.24,4.45,15.26,9.26,30.6,9.45,46.79,.02,1.96,.58,3.94,1.09,5.86,.32,1.23,1.01,2.36,1.46,3.37,8.68-.36,16.93-.71,25.18-1.06,7.48-.32,10.57-6,14.04-11.35,4.88-7.51,9.76-15.03,15.01-22.27,2.3-3.18,5.53-5.68,8.93-9.1-1.67-3.63-3.41-7.51-5.24-11.35-4.37-9.18-3.78-14.58,3.46-21.59,5.15-4.99,7.92-10.94,11.01-17.32,5-10.34,12.53-19.46,19.05-29.06,2.78-4.1,5.63-8.15,8.57-12.13,5.89-7.97,11.87-15.88,18.29-24.46,14.64,.79,25.35,12.78,39.34,16.99,10.66-10.18,20.65-20.45,31.42-29.83,16.06-13.99,32.4-27.68,49.1-40.9,48.3-38.23,96.97-76.04,142.74-117.32,12.81-11.56,23.95-24.97,35.91-37.48,8.74-9.15,17.66-18.13,26.3-27.38,1.94-2.08,3.51-4.82,4.39-7.53,2.69-8.3,2.35-9.05-5.29-13.57-8.01-4.74-16.32-9.01-24.19-13.97-3.71-2.34-6.71-5.81-10.33-9.04,7.42-8.46,15.3-6.37,22.95-4.42,5.68,1.45,11.2,3.5,18.02,5.68,.56-5.44,1.63-9.37,1.25-13.15-1.35-13.39-1.46-26.74-7.47-39.67-4.56-9.81-7.9-20.24-13.26-29.81-1.46-2.62-1.36-6.11-2.09-9.8,4.69-.71,8.19-1.23,13.02-1.96-1.03-3.9-2.04-7.24-2.77-10.63-2.65-12.39-6.36-24.28-13.65-34.92-1.85-2.71-1.92-6.64-2.79-9.98,11.13-6.35,16.52,2.77,24.05,7.55,2.14-10.32-1.37-19.08-3.78-27.68-1.85-6.63-.85-12.14,1.84-18.18,6.61,1.03,10.09,5.17,13.27,10,7.8,11.87,11.63,25.36,15.47,38.73,3.93,13.68,6.78,27.67,10.01,41.54,1.59,6.82,3.47,13.45,9.12,19.68,1.05-2.6,2.17-4.46,2.54-6.45,3.97-21.18,7.75-42.39,11.78-63.56,.86-4.53,2.23-9.01,3.83-13.34,2.27-6.14,6.99-7.82,11.39-3.11,3.85,4.13,7.26,9.73,8.35,15.19,3.06,15.32,4.57,30.82-.39,46.28-4.54,14.14-4.28,28.27-1.85,43.16,4.23,26,4.09,52.45,.02,78.57-1.42,9.1-5.33,17.8-7.97,26.72-1.78,6-3.37,12.06-4.99,18.1-1.63,6.08-2.54,12.46-5,18.19-1.75,4.08-4.8,8.71-8.54,10.64-13.71,7.1-22.26,19.16-30.2,31.23-22.77,34.62-49.12,66.36-76.43,97.33-39.94,45.3-84.17,86.16-130.64,124.65-6.4,5.3-12.34,11.19-18.22,17.07-5.49,5.5-5.1,13.43-7.32,20.25-.49,1.52,2.14,4.51,3.91,6.23,4.26,4.12,8.86,7.89,13.98,12.38-2.72,3.76-4.82,7.05-7.3,10.02-11.93,14.32-23.92,28.59-36,42.79-1.68,1.98-3.69,4.24-6,5.04-10.9,3.79-14.62,11.28-14.82,22.59-.25,13.82-8.82,23.41-20.22,30.17-7.99,4.74-16.68,8.3-24.74,12.94-3.26,1.87-6.19,4.85-8.37,7.95-9.58,13.59-18.47,27.68-28.32,41.06-12.22,16.6-24.22,33.51-38.02,48.75-13.57,14.98-29.28,28.02-44.03,41.93-1.68,1.59-3.32,3.24-4.85,4.97-22.43,25.48-44.66,51.15-67.33,76.42-10.87,12.11-22.61,23.43-33.87,35.18-1,1.04-1.38,2.67-2.56,5.07,12.71,.01,22.85-3.15,30.78-12.06,1.33-1.49,2.68-2.98,3.81-4.62,5.31-7.76,12-13.62,20.08-18.78,9.96-6.36,18.48-14.98,29.02-23.81-4.34,5.48-7.67,9.69-11.45,14.47,2.36,1.65,4.36,3.06,6.49,4.56-8.11,5.55-9.89,14.99-14.42,24.81-1-3.56-1.54-5.49-2.11-7.5-6.07,2.1-8.09,6.37-7.56,12.36h4.87c1.45,3.74-5.55,11.15-12.66,13.32,1.38-2.39,2.61-4.53,3.83-6.66-.98-.61-1.8-1.3-1.95-1.18-4.55,3.71-9.04,7.51-13.53,11.29,1.75,7.35-4.24,6.89-8.4,8.68-3.56,1.53-6.74,3.95-10.08,5.98-3.1,1.88-6.23,3.7-9.27,5.66-2.25,1.46-4.37,3.11-6.02,5.64,17.93,.64,32.9-7.81,49.24-13.84-2.31,5.98-6.77,8.4-13.6,8.49,1.2,4.33,.67,7.16-4.43,7.62-13.55,1.23-27.11,2.62-40.57,4.56-9.84,1.42-19.53,3.81-28.93,5.7-.72,6.19,3.68,5.83,6.14,7.14,.44,2.86-.03,6.17,1.39,8.04,13.06,17.23,22.57,36.47,32.29,55.61,14.01,27.59,28.04,55.18,42.09,82.76,4.23,8.3,8.34,16.66,12.91,24.77,3.94,6.98,3.72,13.73,.71,20.89-7.47,17.81-14.3,35.89-22.23,53.49-8.06,17.88-17.13,35.3-25.76,52.93-10.1,20.63-20.3,41.2-30.25,61.9-6.66,13.86-16.49,24.06-31.36,28.89-1.88,.61-3.91,1.7-5.72,1.44-11.12-1.56-22.25-3.13-33.26-5.29-14.66-2.87-29.08-7.47-43.85-9.19-23.1-2.69-45.08-8.63-66.08-18.31-12.3-5.67-24.29-12-37.4-18.53-1.46,3.33-4,7.3-4.91,11.63-1.3,6.2-4.16,11.16-8.67,15.32-3.14,2.89-3.64,5.75-1.6,9.72,4.71,9.15,8.88,18.57,13.4,27.83,4.91,10.05,2.8,19.81-5.95,26.61-2.07,1.61-4.21,3.12-7.33,5.43,3.99,6.34,6.65,13.79,11.86,18.26,19.74,16.93,26.6,39.12,28.91,63.73,.9,9.6,2.38,19.17,4.15,28.64,.7,3.77,2.42,7.58,4.53,10.82,5.18,7.93,9.06,16.13,9.67,25.81,.84,13.26,2,26.5,3.26,39.73,.66,6.93,1.75,13.82,2.76,20.71,3.29,22.36,1.43,44.97,3.35,67.39,.65,7.61,1.94,15.16,2.86,22.75,1.35,11.18,3.08,22.23,3.38,33.64,.36,13.46,4.38,26.08,14.36,37.03,21.07,23.11,40.83,47.41,61.03,71.31,7.52,8.9,14.73,18.07,22.18,27.03,1.66,2,3.75,3.64,6.31,6.08,1-2.4,1.86-4.04,2.39-5.77,5.56-18.32,6.58-37.22,6.89-56.18,.07-4.44,1.08-7.97,5.56-9.49,3.73-1.27,5.39-3.86,5.19-7.56-.59-11.3-1.17-22.61-2.19-33.87-.16-1.74-2.34-4.14-4.11-4.76-8.25-2.91-13.48-9.09-16.32-16.6-3.26-8.6-5.36-17.74-6.98-26.82-1.34-7.46-2.45-15.32-1.56-22.75,2.02-16.81-3.53-32.88-3.63-49.33-.12-19.39-4.52-38.56-2.38-58.06,.88-8,.84-9.72,8.73-10.73,15.47-1.99,31.07-3.6,46.66-4,21.64-.55,43.31,.43,64.96,.22,9.94-.1,19.89-1.32,29.81-2.3,23.49-2.32,46.91-5.9,70.45-6.95,30.58-1.36,61.24-.77,91.76,2.7,9.89,1.13,19.98,.79,29.78,2.34,11.72,1.86,13.27,4.94,11.72,17.07-.51,3.96-1.25,8.07-.69,11.94,1.25,8.58-3.46,15.37-6.43,22.5-1.51,3.63-5.41,7.39-9.1,8.78-11.05,4.14-18.46,12.59-26.72,20.16-4.41,4.04-9.08,7.83-13.9,11.37-5.18,3.81-8.71,8.64-12.31,14-6.64,9.9-12.89,20.68-26.28,23.85-12.14,2.87-19.12,12.45-25.48,22.37-5.38,8.4-10.75,16.81-16.26,25.12-2.92,4.39-7.02,7.7-12.48,6.8-7.34-1.21-10.9,3.51-14.61,8.09-2.08,2.56-3.58,5.6-5.25,8.48-6.91,11.86-13.7,14.44-26.37,9.94-1.56-.55-3.08-1.21-5.89-2.31-5.45,11.47-6.71,23.97-11.48,36.14,11.87,2.13,11.88,10.11,10.86,18.48-.44,3.62-.72,7.45-2.16,10.7-3.48,7.88-4.03,15.99-3.72,24.41,.59,15.96,1.65,31.95,1.12,47.89-.7,20.93-2.61,41.82-4.27,62.71-1.16,14.58-2.96,29.12-4.05,43.71-.2,2.65,1.26,5.65,2.59,8.16,6.22,11.77,12.75,23.38,18.94,35.17,1.84,3.51,3.16,7.35,4.33,11.15,2.4,7.81,1.7,9.05-5.7,13.39-3.15,1.85-5.91,4.36-9.12,6.09-5.02,2.69-10.26,4.97-17.23,8.3-.08,1.46-.42,4.99-.46,8.53-.28,31.33,.03,62.67-.88,93.98-1.28,44.23-2.57,88.54-9.62,132.32-3.86,23.96-9.44,47.65-14.45,71.41-3.77,17.9-8.15,35.67-11.72,53.61-3.33,16.7-11.39,31.14-20.11,45.36-.52,.85-1.05,1.75-1.78,2.4-21.64,19.51-43.94,37.67-74.2,42.29-12.81,1.95-25.42,5.24-38.13,7.88-29.6,6.17-53.74-4.03-73.85-25.27-15.34-16.2-24.87-36.11-33.96-56.15-16.95-37.36-31.19-75.75-41.31-115.52-9.02-35.47-17.45-71.1-25.41-106.82-8.72-39.15-22.41-76.61-36.87-113.86-.57-1.48-1.56-2.8-3.09-5.5-5.44,8.35-10.35,15.75-15.13,23.25-24.9,39.12-44.54,81.09-66.11,122.02-13.96,26.48-30.08,51.8-44.95,77.81-13.71,23.98-27.2,48.09-40.49,72.3-6.57,11.95-12.09,24.49-18.76,36.38-18.92,33.71-48.54,53.67-85.42,62.16-30.24,6.96-58.46-.79-85.26-16.01-28.35-16.1-43.97-40.19-50.87-71.56-7.96-36.15-7.29-72.75-8.22-109.32-1.18-45.93-3-91.86-3.59-137.8-.37-29.28,.8-58.59,1.62-87.88,.57-20.29,1.58-40.57,2.64-60.85,1.81-34.59,6.24-68.88,12.08-103.01,6.68-39,12.7-78.13,20.09-116.99,6.38-33.56,9.35-67.24,7.82-101.32-.58-12.96-2.49-25.9-2.43-38.84,.09-17.96,1.47-35.91,2.3-53.86,.14-2.94,.3-5.88,.5-9.61-5.29-.8-10.17-1.32-14.96-2.31-10.25-2.12-15.83-5.43-16.31-17.69-.44-11.49-3.58-22.84-4.57-34.34-.97-11.23-.96-22.57-.97-33.86-.01-22.32,.52-44.63,.36-66.95-.19-26.09,4.94-51.51,8.7-77.14,5.53-37.68,15.14-74.3,27.16-110.37,1.65-4.94,2.19-10.45,2.2-15.7,.02-23.46,4.94-46.28,8.96-69.18,1.53-8.72,5.33-17.12,8.75-25.4,2.6-6.3,.49-10.84-3.62-15.25-7.36-7.88-12.99-16.75-16.7-26.97-3.94-10.87-6.65-21.57-2.32-33.01,1.02-2.7,.87-5.85,1.26-8.81-1.26-.66-2.09-1.46-2.95-1.48-24.8-.66-47.72-8.35-69.84-18.84-21.76-10.31-44.58-17.46-67.85-23.32-1.61-.41-3.25-.79-4.8-1.38-3.93-1.49-5.17-4.39-2.87-7.87,13.7-20.7,14.67-44.46,16.17-67.96,2.35-36.79-1.62-73.07-10.78-108.73-3.31-12.87-7.45-25.54-11.49-38.21-2.04-6.4-1.74-12.11,1.54-18.19,8.7-16.09,18.14-31.95,22.73-49.86,5.56-21.68,12.75-42.67,22.86-62.7,3.26-6.47,4.64-13.86,7.16-20.73,5.67-15.43,14.46-29.15,23.26-42.93,7.51-11.77,13.63-24.44,21.37-36.04,19.82-29.68,34.91-62.03,53.11-92.6,12.42-20.86,25.65-41.25,38.78-61.68,5.57-8.67,11.15-17.49,17.9-25.22,11.45-13.12,24.23-24.63,42.53-27.68,8.14-1.35,16.03-4.17,24.17-5.53,5.35-.89,8.72-4.29,12.82-7.06,10.39-7.02,20.83-14.09,31.84-20.03,8.33-4.5,17.52-7.44,26.43-10.8,4.61-1.74,7.02-4.84,7.28-9.59,.19-3.62,.04-7.25,.04-11.71-2.98-1.07-6.14-1.93-9.02-3.34-2.13-1.05-3.9-2.84-5.84-4.3h-.28Zm22.03,1817.21c.94,.5,1.87,1,2.81,1.5,35.95-37.46,69.43-77.15,104.34-116.09-9.2-13.1-20.18-23.06-31.89-32.38-9-7.17-18.77-10.72-30.46-9.36-8.07,.94-8.18,.79-9.99,9.24-4.03,18.84-8.01,37.7-12.66,56.39-5.13,20.62-11.21,41-16.45,61.59-2.43,9.57-3.83,19.4-5.7,29.11ZM693.88,884.47c4.88-1.27,7.77-1.72,10.43-2.76,8.45-3.31,16.79-6.2,25.74-1.46,1.31,.7,3.27,.14,4.92,.24,12.84,.75,25.77,.92,37.82,6.45,1,.46,2.38,.06,3.59,.06-.28-2.02-1.36-2.85-2.56-3.4-10.81-4.93-22.17-8.02-32.75-14.28-11.61-6.89-36.51,2.29-47.19,15.15Zm110.76,35.82c-2.93-17.84-29.95-28.07-48.97-29.19,9.23,5.2,16.99,10.05,25.17,14.05,8.18,4.01,13.15,12.97,23.8,15.14Zm-92.52,35.02c.23-1,.47-2.01,.71-3.01-4.88-1.33-11.91-1.11-14.2-4.3-4.63-6.45-11.22-4.33-16.65-6.4-3.26-1.24-7.38-.23-11.12-.23-.04,.49-.08,.97-.12,1.46,1.37,.78,2.73,1.56,4.32,2.46-1.87,1.19-3.3,2.09-5.57,3.53,15.09,1.43,28.11,9.39,42.63,6.49Zm293.67,348.36c-5.21,4.58-10.2,8.78-14.99,13.2-4.82,4.45-12.08,6.41-14.87,13.9,18.17-3.27,31.06-14.85,29.86-27.1Zm-276.06-451.97c6.9,.49,13.78,1.13,20.69,1.42,5.76,.24,11.55,.05,17.32,.05-12.37-4.44-24.8-7.77-38.01-1.47Zm3.17,44.94c-.27,.78-.53,1.57-.8,2.35,3.59,1.18,7.18,2.36,10.78,3.54,.27-.87,.54-1.74,.81-2.61-3.61-1.09-7.2-2.18-10.79-3.28Zm-25.12,48.34c.06,.86,.11,1.73,.17,2.59,2.78,.2,5.55,.39,8.33,.59,.06-.7,.12-1.41,.18-2.11-2.9-.35-5.79-.71-8.68-1.07Z"/></g><g id="Layer_3"><path class="cls-4" d="M379.96,978.91c4.69,1.5,9.38,3,15.56,4.98,.5-9,1.23-17.19,1.3-25.38,.05-5.37-3.48-8.5-8.56-9.6-6.17-1.34-12.41-2.39-18.6-3.64-6.42-1.29-12.82-2.66-19.1-5.13,13.11,1.09,26.22,2.18,39.48,3.28,.33-1.58,.72-3.42,1.26-6.01,2.05,2.46,3.6,4.32,6.77,8.11,.61-6.27,1-10.3,1.43-14.73-13.66-4.22-26.54-8.88-40.38-7.1-13.38,1.72-26.65,4.3-40.1,6.53,26.11-12.11,53.19-13.09,82.88-5.86-6.71-6.39-15.78-8.31-39.62-7.36-13.06,.52-26.04,3.24-39.26,4.99,25.61-10.33,51.72-12.8,78.86-5.51,2.88-11.13,5.84-21.16,7.89-31.37,.64-3.2-.76-7.03-1.91-10.33-4.28-12.22-8.96-24.3-13.24-36.53-1.06-3.02-1.15-6.38-.9-9.84,6.14,14.18,9.86,29.33,18.78,43.84,1.1-2.98,1.96-4.62,2.3-6.35,.89-4.55,.61-9.58,2.48-13.65,5.78-12.55,.32-22.48-6.13-32.52-2.34-3.64-4.13-7.63-6.18-11.47,.61-.39,1.21-.77,1.82-1.16,5.07,5.52,10.13,11.03,15.74,17.13v-37.75c-16.64-7.35-19.72-12.03-16.82-26.01,8.85-1.74,14.41,5.56,21.68,8.76,8.8-11.44,1.95-26.07,9.23-37.72,3.77-.36,4.97,2.33,4.43,5.5-1.27,7.46,2.64,10.79,8.9,13.2,5.49,2.11,10.69,4.96,16.95,7.92,.76-3.43,1.53-5.53,1.66-7.67,1.64-26.87,3.23-53.74,4.75-80.61,1.39-24.54,2.27-49.11,4.12-73.61,1.79-23.82,4.73-47.55,6.77-71.36,1.24-14.54,1.38-29.17,2.66-43.7,1.25-14.22,2.82-28.44,5.14-42.52,3.66-22.29,8.13-44.44,12.02-66.69,.4-2.32-.27-5.2-1.38-7.34-4.21-8.12-3.64-12.85,3.04-20.07,.68-.73,1.73-1.36,1.96-2.22,3-10.79,2.28-21.76,.08-32.45-.52-2.51-5.45-4.24-8.51-6.06-6.37-3.78-7.93-7.34-5.64-13.76,.33-.91,.73-2.27,1.41-2.5,6.84-2.31,5.62-7.96,5.67-13.12,.2-18.21,1.41-36.37,4.17-54.36,.93-6.03,3.03-11.95,5.18-17.7,7.3-19.46,12.39-39.36,12.73-60.26,.18-11.06,4.99-20.5,10.39-29.65,.95-1.61,4.06-3.25,5.67-2.85,2.11,.53,4.89,2.82,5.3,4.79,1.05,5.02,1.12,10.28,1.26,15.46,.18,6.81,.04,13.63,.04,21.1,3.66,1.92,6.87,1.3,9.14-3.2,5.39-10.65,11.01-21.19,16.22-31.93,8.02-16.53,17.21-32.33,28.97-46.48,5-6.01,12.2-5.77,20.19-5.29,1.52,4.31,3.08,8.76,4.93,13.99,4.45-7.62,8.53-15.02,12.99-22.17,4.84-7.76,12.45-12.07,21.06-13.64,3.96-.72,8.75-4.87,12.83,.29,2.53,10.16-6.82,15.54-10.66,24.75,8.67-6.64,16-12.39,23.51-17.91,2.32-1.71,5.01-3.43,7.75-3.94,3.47-.64,8.05-1.22,9.68,2.91,.87,2.21-.12,5.76-1.39,8.08-2.82,5.15-6.22,10.01-9.62,14.82-4.91,6.95-10.02,13.76-15.04,20.63-.77,1.06-2.22,2.15-2.18,3.18,.38,8.98-7.83,13.03-11.14,19.86-.26,.54-1.22,.75-1.44,1.28-5.74,13.61-15.67,24.49-23.77,36.55-.59,.89-.34,2.34-.58,4.39,2.02-.5,3.59-.41,4.28-1.14,6.94-7.31,16.67-8.12,25.46-9.55,7.58-1.24,15.79,.73,23.6,2.03,2.15,.36,4.51,3.11,5.53,5.33,.63,1.38-.49,4.7-1.86,5.62-2.65,1.79-5.94,2.83-9.11,3.59-13.14,3.14-20.54,13.31-28.77,22.66-5.54,6.29-11.93,11.82-17.57,18.03-3.45,3.8-6.52,8.04-9.24,12.4-7.58,12.16-15.4,24.22-22.16,36.83-5.75,10.72-10.49,22.07-11.44,34.48-.34,4.41,3.5,7.35,7.98,6.14,1.82-.49,3.33-2.06,5.07-2.99,4.55-2.43,7.88-1.55,10.7,2.78,1.42,2.17,2.77,4.37,4.3,6.77-5.41,3.93-10.51,7.62-16.37,11.87-.58-.14-2.46-.76-4.39-1.02-7.66-1.04-9.53,.5-9.64,8.37-.13,8.99-.15,17.99,.11,26.98,.06,2.06,1.16,4.27,2.3,6.09,4.97,7.85,4.4,16.1-2.74,22.13-4.03,3.4-5.45,7.26-5.69,12.08-.82,16.61-1.91,33.2-2.46,49.82-.87,26.59-2.33,53.21-1.85,79.78,.8,44.46,3.01,88.9,4.44,133.35,.62,19.24,1.74,38.55,.86,57.75-.88,19.21-3.31,38.41-6.26,57.43-3.1,19.98-3.87,20.26,14.56,27.63,17.9,7.16,36.17,13.41,54.27,20.09,2.71,1,5.36,2.18,8.33,3.4-5.28,22.91-16.32,43.42-18.86,67.03,4.17-.76,4.37-4.05,5.63-6.38,9.55-17.73,21.3-33.58,37.93-45.44,7.54-5.38,16.28-8.42,24.99-8.9,13.53-.74,27.02-.07,40.38,4.76,20.62,7.47,38.04,19.71,54.74,33.19,4.94,3.99,8.47,9.54,14.58,12.54,2.66,1.3,4.19,5.01,6.07,7.73,.93,1.36,1.13,3.37,2.28,4.4,15.24,13.65,22.84,32.06,30.75,50.1,8.39,19.16,16.18,38.61,23.43,58.23,4.89,13.24,8.38,27.01,12.53,40.53,.59,1.91,1.14,3.88,2.07,5.62,8.57,16,17.5,31.82,25.74,47.99,3.46,6.8,4.78,14.73,8.47,21.36,3.03,5.46,8.02,9.87,12.34,14.56,10.46,11.37,24.86,19.06,31.76,33.77,4.08,8.69,9.12,17.12,11.78,26.24,4.45,15.26,9.26,30.6,9.45,46.79,.02,1.96,.58,3.94,1.09,5.86,.32,1.23,1.01,2.36,1.46,3.37,8.68-.36,16.93-.71,25.18-1.06,7.48-.32,10.57-6,14.04-11.35,4.88-7.51,9.76-15.03,15.01-22.27,2.3-3.18,5.53-5.68,8.93-9.1-1.67-3.63-3.41-7.51-5.24-11.35-4.37-9.18-3.78-14.58,3.46-21.59,5.15-4.99,7.92-10.94,11.01-17.32,5-10.34,12.53-19.46,19.05-29.06,2.78-4.1,5.63-8.15,8.57-12.13,5.89-7.97,11.87-15.88,18.29-24.46,14.64,.79,25.35,12.78,39.34,16.99,10.66-10.18,20.65-20.45,31.42-29.83,16.06-13.99,32.4-27.68,49.1-40.9,48.3-38.23,96.97-76.04,142.74-117.32,12.81-11.56,23.95-24.97,35.91-37.48,8.74-9.15,17.66-18.13,26.3-27.38,1.94-2.08,3.51-4.82,4.39-7.53,2.69-8.3,2.35-9.05-5.29-13.57-8.01-4.74-16.32-9.01-24.19-13.97-3.71-2.34-6.71-5.81-10.33-9.04,7.42-8.46,15.3-6.37,22.95-4.42,5.68,1.45,11.2,3.5,18.02,5.68,.56-5.44,1.63-9.37,1.25-13.15-1.35-13.39-1.46-26.74-7.47-39.67-4.56-9.81-7.9-20.24-13.26-29.81-1.46-2.62-1.36-6.11-2.09-9.8,4.69-.71,8.19-1.23,13.02-1.96-1.03-3.9-2.04-7.24-2.77-10.63-2.65-12.39-6.36-24.28-13.65-34.92-1.85-2.71-1.92-6.64-2.79-9.98,11.13-6.35,16.52,2.77,24.05,7.55,2.14-10.32-1.37-19.08-3.78-27.68-1.85-6.63-.85-12.14,1.84-18.18,6.61,1.03,10.09,5.17,13.27,10,7.8,11.87,11.63,25.36,15.47,38.73,3.93,13.68,6.78,27.67,10.01,41.54,1.59,6.82,3.47,13.45,9.12,19.68,1.05-2.6,2.17-4.46,2.54-6.45,3.97-21.18,7.75-42.39,11.78-63.56,.86-4.53,2.23-9.01,3.83-13.34,2.27-6.14,6.99-7.82,11.39-3.11,3.85,4.13,7.26,9.73,8.35,15.19,3.06,15.32,4.57,30.82-.39,46.28-4.54,14.14-4.28,28.27-1.85,43.16,4.23,26,4.09,52.45,.02,78.57-1.42,9.1-5.33,17.8-7.97,26.72-1.78,6-3.37,12.06-4.99,18.1-1.63,6.08-2.54,12.46-5,18.19-1.75,4.08-4.8,8.71-8.54,10.64-13.71,7.1-22.26,19.16-30.2,31.23-22.77,34.62-49.12,66.36-76.43,97.33-39.94,45.3-84.17,86.16-130.64,124.65-6.4,5.3-12.34,11.19-18.22,17.07-5.49,5.5-5.1,13.43-7.32,20.25-.49,1.52,2.14,4.51,3.91,6.23,4.26,4.12,8.86,7.89,13.98,12.38-2.72,3.76-4.82,7.05-7.3,10.02-11.93,14.32-23.92,28.59-36,42.79-1.68,1.98-3.69,4.24-6,5.04-10.9,3.79-14.62,11.28-14.82,22.59-.25,13.82-8.82,23.41-20.22,30.17-7.99,4.74-16.68,8.3-24.74,12.94-3.26,1.87-6.19,4.85-8.37,7.95-9.58,13.59-18.47,27.68-28.32,41.06-12.22,16.6-24.22,33.51-38.02,48.75-13.57,14.98-29.28,28.02-44.03,41.93-1.68,1.59-3.32,3.24-4.85,4.97-22.43,25.48-44.66,51.15-67.33,76.42-10.87,12.11-22.61,23.43-33.87,35.18-1,1.04-1.38,2.67-2.56,5.07,12.71,.01,22.85-3.15,30.78-12.06,1.33-1.49,2.68-2.98,3.81-4.62,5.31-7.76,12-13.62,20.08-18.78,9.96-6.36,18.48-14.98,29.02-23.81-4.34,5.48-7.67,9.69-11.45,14.47,2.36,1.65,4.36,3.06,6.49,4.56-8.11,5.55-9.89,14.99-14.42,24.81-1-3.56-1.54-5.49-2.11-7.5-6.07,2.1-8.09,6.37-7.56,12.36h4.87c1.45,3.74-5.55,11.15-12.66,13.32,1.38-2.39,2.61-4.53,3.83-6.66-.98-.61-1.8-1.3-1.95-1.18-4.55,3.71-9.04,7.51-13.53,11.29,1.75,7.35-4.24,6.89-8.4,8.68-3.56,1.53-6.74,3.95-10.08,5.98-3.1,1.88-6.23,3.7-9.27,5.66-2.25,1.46-4.37,3.11-6.02,5.64,17.93,.64,32.9-7.81,49.24-13.84-2.31,5.98-6.77,8.4-13.6,8.49,1.2,4.33,.67,7.16-4.43,7.62-13.55,1.23-27.11,2.62-40.57,4.56-9.84,1.42-19.53,3.81-28.93,5.7-.72,6.19,3.68,5.83,6.14,7.14,.44,2.86-.03,6.17,1.39,8.04,13.06,17.23,22.57,36.47,32.29,55.61,14.01,27.59,28.04,55.18,42.09,82.76,4.23,8.3,8.34,16.66,12.91,24.77,3.94,6.98,3.72,13.73,.71,20.89-7.47,17.81-14.3,35.89-22.23,53.49-8.06,17.88-17.13,35.3-25.76,52.93-10.1,20.63-20.3,41.2-30.25,61.9-6.66,13.86-16.49,24.06-31.36,28.89-1.88,.61-3.91,1.7-5.72,1.44-11.12-1.56-22.25-3.13-33.26-5.29-14.66-2.87-29.08-7.47-43.85-9.19-23.1-2.69-45.08-8.63-66.08-18.31-12.3-5.67-24.29-12-37.4-18.53-1.46,3.33-4,7.3-4.91,11.63-1.3,6.2-4.16,11.16-8.67,15.32-3.14,2.89-3.64,5.75-1.6,9.72,4.71,9.15,8.88,18.57,13.4,27.83,4.91,10.05,2.8,19.81-5.95,26.61-2.07,1.61-4.21,3.12-7.33,5.43,3.99,6.34,6.65,13.79,11.86,18.26,19.74,16.93,26.6,39.12,28.91,63.73,.9,9.6,2.38,19.17,4.15,28.64,.7,3.77,2.42,7.58,4.53,10.82,5.18,7.93,9.06,16.13,9.67,25.81,.84,13.26,2,26.5,3.26,39.73,.66,6.93,1.75,13.82,2.76,20.71,3.29,22.36,1.43,44.97,3.35,67.39,.65,7.61,1.94,15.16,2.86,22.75,1.35,11.18,3.08,22.23,3.38,33.64,.36,13.46,4.38,26.08,14.36,37.03,21.07,23.11,40.83,47.41,61.03,71.31,7.52,8.9,14.73,18.07,22.18,27.03,1.66,2,3.75,3.64,6.31,6.08,1-2.4,1.86-4.04,2.39-5.77,5.56-18.32,6.58-37.22,6.89-56.18,.07-4.44,1.08-7.97,5.56-9.49,3.73-1.27,5.39-3.86,5.19-7.56-.59-11.3-1.17-22.61-2.19-33.87-.16-1.74-2.34-4.14-4.11-4.76-8.25-2.91-13.48-9.09-16.32-16.6-3.26-8.6-5.36-17.74-6.98-26.82-1.34-7.46-2.45-15.32-1.56-22.75,2.02-16.81-3.53-32.88-3.63-49.33-.12-19.39-4.52-38.56-2.38-58.06,.88-8,.84-9.72,8.73-10.73,15.47-1.99,31.07-3.6,46.66-4,21.64-.55,43.31,.43,64.96,.22,9.94-.1,19.89-1.32,29.81-2.3,23.49-2.32,46.91-5.9,70.45-6.95,30.58-1.36,61.24-.77,91.76,2.7,9.89,1.13,19.98,.79,29.78,2.34,11.72,1.86,13.27,4.94,11.72,17.07-.51,3.96-1.25,8.07-.69,11.94,1.25,8.58-3.46,15.37-6.43,22.5-1.51,3.63-5.41,7.39-9.1,8.78-11.05,4.14-18.46,12.59-26.72,20.16-4.41,4.04-9.08,7.83-13.9,11.37-5.18,3.81-8.71,8.64-12.31,14-6.64,9.9-12.89,20.68-26.28,23.85-12.14,2.87-19.12,12.45-25.48,22.37-5.38,8.4-10.75,16.81-16.26,25.12-2.92,4.39-7.02,7.7-12.48,6.8-7.34-1.21-10.9,3.51-14.61,8.09-2.08,2.56-3.58,5.6-5.25,8.48-6.91,11.86-13.7,14.44-26.37,9.94-1.56-.55-3.08-1.21-5.89-2.31-5.45,11.47-6.71,23.97-11.48,36.14,11.87,2.13,11.88,10.11,10.86,18.48-.44,3.62-.72,7.45-2.16,10.7-3.48,7.88-4.03,15.99-3.72,24.41,.59,15.96,1.65,31.95,1.12,47.89-.7,20.93-2.61,41.82-4.27,62.71-1.16,14.58-2.96,29.12-4.05,43.71-.2,2.65,1.26,5.65,2.59,8.16,6.22,11.77,12.75,23.38,18.94,35.17,1.84,3.51,3.16,7.35,4.33,11.15,2.4,7.81,1.7,9.05-5.7,13.39-3.15,1.85-5.91,4.36-9.12,6.09-5.02,2.69-10.26,4.97-17.23,8.3-.08,1.46-.42,4.99-.46,8.53-.28,31.33,.03,62.67-.88,93.98-1.28,44.23-2.57,88.54-9.62,132.32-3.86,23.96-9.44,47.65-14.45,71.41-3.77,17.9-8.15,35.67-11.72,53.61-3.33,16.7-11.39,31.14-20.11,45.36-.52,.85-1.05,1.75-1.78,2.4-21.64,19.51-43.94,37.67-74.2,42.29-12.81,1.95-25.42,5.24-38.13,7.88-29.6,6.17-53.74-4.03-73.85-25.27-15.34-16.2-24.87-36.11-33.96-56.15-16.95-37.36-31.19-75.75-41.31-115.52-9.02-35.47-17.45-71.1-25.41-106.82-8.72-39.15-22.41-76.61-36.87-113.86-.57-1.48-1.56-2.8-3.09-5.5-5.44,8.35-10.35,15.75-15.13,23.25-24.9,39.12-44.54,81.09-66.11,122.02-13.96,26.48-30.08,51.8-44.95,77.81-13.71,23.98-27.2,48.09-40.49,72.3-6.57,11.95-12.09,24.49-18.76,36.38-18.92,33.71-48.54,53.67-85.42,62.16-30.24,6.96-58.46-.79-85.26-16.01-28.35-16.1-43.97-40.19-50.87-71.56-7.96-36.15-7.29-72.75-8.22-109.32-1.18-45.93-3-91.86-3.59-137.8-.37-29.28,.8-58.59,1.62-87.88,.57-20.29,1.58-40.57,2.64-60.85,1.81-34.59,6.24-68.88,12.08-103.01,6.68-39,12.7-78.13,20.09-116.99,6.38-33.56,9.35-67.24,7.82-101.32-.58-12.96-2.49-25.9-2.43-38.84,.09-17.96,1.47-35.91,2.3-53.86,.14-2.94,.3-5.88,.5-9.61-5.29-.8-10.17-1.32-14.96-2.31-10.25-2.12-15.83-5.43-16.31-17.69-.44-11.49-3.58-22.84-4.57-34.34-.97-11.23-.96-22.57-.97-33.86-.01-22.32,.52-44.63,.36-66.95-.19-26.09,4.94-51.51,8.7-77.14,5.53-37.68,15.14-74.3,27.16-110.37,1.65-4.94,2.19-10.45,2.2-15.7,.02-23.46,4.94-46.28,8.96-69.18,1.53-8.72,5.33-17.12,8.75-25.4,2.6-6.3,.49-10.84-3.62-15.25-7.36-7.88-12.99-16.75-16.7-26.97-3.94-10.87-6.65-21.57-2.32-33.01,1.02-2.7,.87-5.85,1.26-8.81-1.26-.66-2.09-1.46-2.95-1.48-24.8-.66-47.72-8.35-69.84-18.84-21.76-10.31-44.58-17.46-67.85-23.32-1.61-.41-3.25-.79-4.8-1.38-3.93-1.49-5.17-4.39-2.87-7.87,13.7-20.7,14.67-44.46,16.17-67.96,2.35-36.79-1.62-73.07-10.78-108.73-3.31-12.87-7.45-25.54-11.49-38.21-2.04-6.4-1.74-12.11,1.54-18.19,8.7-16.09,18.14-31.95,22.73-49.86,5.56-21.68,12.75-42.67,22.86-62.7,3.26-6.47,4.64-13.86,7.16-20.73,5.67-15.43,14.46-29.15,23.26-42.93,7.51-11.77,13.63-24.44,21.37-36.04,19.82-29.68,34.91-62.03,53.11-92.6,12.42-20.86,25.65-41.25,38.78-61.68,5.57-8.67,11.15-17.49,17.9-25.22,11.45-13.12,24.23-24.63,42.53-27.68,8.14-1.35,16.03-4.17,24.17-5.53,5.35-.89,8.72-4.29,12.82-7.06,10.39-7.02,20.83-14.09,31.84-20.03,8.33-4.5,17.52-7.44,26.43-10.8,4.61-1.74,7.02-4.84,7.28-9.59,.19-3.62,.04-7.25,.04-11.71-2.98-1.07-6.14-1.93-9.02-3.34-2.13-1.05-3.9-2.84-5.84-4.3h-.28Zm22.03,1817.21c.94,.5,1.87,1,2.81,1.5,35.95-37.46,69.43-77.15,104.34-116.09-9.2-13.1-20.18-23.06-31.89-32.38-9-7.17-18.77-10.72-30.46-9.36-8.07,.94-8.18,.79-9.99,9.24-4.03,18.84-8.01,37.7-12.66,56.39-5.13,20.62-11.21,41-16.45,61.59-2.43,9.57-3.83,19.4-5.7,29.11ZM673.88,864.47c4.88-1.27,7.77-1.72,10.43-2.76,8.45-3.31,16.79-6.2,25.74-1.46,1.31,.7,3.27,.14,4.92,.24,12.84,.75,25.77,.92,37.82,6.45,1,.46,2.38,.06,3.59,.06-.28-2.02-1.36-2.85-2.56-3.4-10.81-4.93-22.17-8.02-32.75-14.28-11.61-6.89-36.51,2.29-47.19,15.15Zm110.76,35.82c-2.93-17.84-29.95-28.07-48.97-29.19,9.23,5.2,16.99,10.05,25.17,14.05,8.18,4.01,13.15,12.97,23.8,15.14Zm-92.52,35.02c.23-1,.47-2.01,.71-3.01-4.88-1.33-11.91-1.11-14.2-4.3-4.63-6.45-11.22-4.33-16.65-6.4-3.26-1.24-7.38-.23-11.12-.23-.04,.49-.08,.97-.12,1.46,1.37,.78,2.73,1.56,4.32,2.46-1.87,1.19-3.3,2.09-5.57,3.53,15.09,1.43,28.11,9.39,42.63,6.49Zm293.67,348.36c-5.21,4.58-10.2,8.78-14.99,13.2-4.82,4.45-12.08,6.41-14.87,13.9,18.17-3.27,31.06-14.85,29.86-27.1Zm-276.06-451.97c6.9,.49,13.78,1.13,20.69,1.42,5.76,.24,11.55,.05,17.32,.05-12.37-4.44-24.8-7.77-38.01-1.47Zm3.17,44.94c-.27,.78-.53,1.57-.8,2.35,3.59,1.18,7.18,2.36,10.78,3.54,.27-.87,.54-1.74,.81-2.61-3.61-1.09-7.2-2.18-10.79-3.28Zm-25.12,48.34c.06,.86,.11,1.73,.17,2.59,2.78,.2,5.55,.39,8.33,.59,.06-.7,.12-1.41,.18-2.11-2.9-.35-5.79-.71-8.68-1.07Z"/></g><g id="Layer_2"><path class="cls-1" d="M359.96,958.91c4.69,1.5,9.38,3,15.56,4.98,.5-9,1.23-17.19,1.3-25.38,.05-5.37-3.48-8.5-8.56-9.6-6.17-1.34-12.41-2.39-18.6-3.64-6.42-1.29-12.82-2.66-19.1-5.13,13.11,1.09,26.22,2.18,39.48,3.28,.33-1.58,.72-3.42,1.26-6.01,2.05,2.46,3.6,4.32,6.77,8.11,.61-6.27,1-10.3,1.43-14.73-13.66-4.22-26.54-8.88-40.38-7.1-13.38,1.72-26.65,4.3-40.1,6.53,26.11-12.11,53.19-13.09,82.88-5.86-6.71-6.39-15.78-8.31-39.62-7.36-13.06,.52-26.04,3.24-39.26,4.99,25.61-10.33,51.72-12.8,78.86-5.51,2.88-11.13,5.84-21.16,7.89-31.37,.64-3.2-.76-7.03-1.91-10.33-4.28-12.22-8.96-24.3-13.24-36.53-1.06-3.02-1.15-6.38-.9-9.84,6.14,14.18,9.86,29.33,18.78,43.84,1.1-2.98,1.96-4.62,2.3-6.35,.89-4.55,.61-9.58,2.48-13.65,5.78-12.55,.32-22.48-6.13-32.52-2.34-3.64-4.13-7.63-6.18-11.47,.61-.39,1.21-.77,1.82-1.16,5.07,5.52,10.13,11.03,15.74,17.13v-37.75c-16.64-7.35-19.72-12.03-16.82-26.01,8.85-1.74,14.41,5.56,21.68,8.76,8.8-11.44,1.95-26.07,9.23-37.72,3.77-.36,4.97,2.33,4.43,5.5-1.27,7.46,2.64,10.79,8.9,13.2,5.49,2.11,10.69,4.96,16.95,7.92,.76-3.43,1.53-5.53,1.66-7.67,1.64-26.87,3.23-53.74,4.75-80.61,1.39-24.54,2.27-49.11,4.12-73.61,1.79-23.82,4.73-47.55,6.77-71.36,1.24-14.54,1.38-29.17,2.66-43.7,1.25-14.22,2.82-28.44,5.14-42.52,3.66-22.29,8.13-44.44,12.02-66.69,.4-2.32-.27-5.2-1.38-7.34-4.21-8.12-3.64-12.85,3.04-20.07,.68-.73,1.73-1.36,1.96-2.22,3-10.79,2.28-21.76,.08-32.45-.52-2.51-5.45-4.24-8.51-6.06-6.37-3.78-7.93-7.34-5.64-13.76,.33-.91,.73-2.27,1.41-2.5,6.84-2.31,5.62-7.96,5.67-13.12,.2-18.21,1.41-36.37,4.17-54.36,.93-6.03,3.03-11.95,5.18-17.7,7.3-19.46,12.39-39.36,12.73-60.26,.18-11.06,4.99-20.5,10.39-29.65,.95-1.61,4.06-3.25,5.67-2.85,2.11,.53,4.89,2.82,5.3,4.79,1.05,5.02,1.12,10.28,1.26,15.46,.18,6.81,.04,13.63,.04,21.1,3.66,1.92,6.87,1.3,9.14-3.2,5.39-10.65,11.01-21.19,16.22-31.93,8.02-16.53,17.21-32.33,28.97-46.48,5-6.01,12.2-5.77,20.19-5.29,1.52,4.31,3.08,8.76,4.93,13.99,4.45-7.62,8.53-15.02,12.99-22.17,4.84-7.76,12.45-12.07,21.06-13.64,3.96-.72,8.75-4.87,12.83,.29,2.53,10.16-6.82,15.54-10.66,24.75,8.67-6.64,16-12.39,23.51-17.91,2.32-1.71,5.01-3.43,7.75-3.94,3.47-.64,8.05-1.22,9.68,2.91,.87,2.21-.12,5.76-1.39,8.08-2.82,5.15-6.22,10.01-9.62,14.82-4.91,6.95-10.02,13.76-15.04,20.63-.77,1.06-2.22,2.15-2.18,3.18,.38,8.98-7.83,13.03-11.14,19.86-.26,.54-1.22,.75-1.44,1.28-5.74,13.61-15.67,24.49-23.77,36.55-.59,.89-.34,2.34-.58,4.39,2.02-.5,3.59-.41,4.28-1.14,6.94-7.31,16.67-8.12,25.46-9.55,7.58-1.24,15.79,.73,23.6,2.03,2.15,.36,4.51,3.11,5.53,5.33,.63,1.38-.49,4.7-1.86,5.62-2.65,1.79-5.94,2.83-9.11,3.59-13.14,3.14-20.54,13.31-28.77,22.66-5.54,6.29-11.93,11.82-17.57,18.03-3.45,3.8-6.52,8.04-9.24,12.4-7.58,12.16-15.4,24.22-22.16,36.83-5.75,10.72-10.49,22.07-11.44,34.48-.34,4.41,3.5,7.35,7.98,6.14,1.82-.49,3.33-2.06,5.07-2.99,4.55-2.43,7.88-1.55,10.7,2.78,1.42,2.17,2.77,4.37,4.3,6.77-5.41,3.93-10.51,7.62-16.37,11.87-.58-.14-2.46-.76-4.39-1.02-7.66-1.04-9.53,.5-9.64,8.37-.13,8.99-.15,17.99,.11,26.98,.06,2.06,1.16,4.27,2.3,6.09,4.97,7.85,4.4,16.1-2.74,22.13-4.03,3.4-5.45,7.26-5.69,12.08-.82,16.61-1.91,33.2-2.46,49.82-.87,26.59-2.33,53.21-1.85,79.78,.8,44.46,3.01,88.9,4.44,133.35,.62,19.24,1.74,38.55,.86,57.75-.88,19.21-3.31,38.41-6.26,57.43-3.1,19.98-3.87,20.26,14.56,27.63,17.9,7.16,36.17,13.41,54.27,20.09,2.71,1,5.36,2.18,8.33,3.4-5.28,22.91-16.32,43.42-18.86,67.03,4.17-.76,4.37-4.05,5.63-6.38,9.55-17.73,21.3-33.58,37.93-45.44,7.54-5.38,16.28-8.42,24.99-8.9,13.53-.74,27.02-.07,40.38,4.76,20.62,7.47,38.04,19.71,54.74,33.19,4.94,3.99,8.47,9.54,14.58,12.54,2.66,1.3,4.19,5.01,6.07,7.73,.93,1.36,1.13,3.37,2.28,4.4,15.24,13.65,22.84,32.06,30.75,50.1,8.39,19.16,16.18,38.61,23.43,58.23,4.89,13.24,8.38,27.01,12.53,40.53,.59,1.91,1.14,3.88,2.07,5.62,8.57,16,17.5,31.82,25.74,47.99,3.46,6.8,4.78,14.73,8.47,21.36,3.03,5.46,8.02,9.87,12.34,14.56,10.46,11.37,24.86,19.06,31.76,33.77,4.08,8.69,9.12,17.12,11.78,26.24,4.45,15.26,9.26,30.6,9.45,46.79,.02,1.96,.58,3.94,1.09,5.86,.32,1.23,1.01,2.36,1.46,3.37,8.68-.36,16.93-.71,25.18-1.06,7.48-.32,10.57-6,14.04-11.35,4.88-7.51,9.76-15.03,15.01-22.27,2.3-3.18,5.53-5.68,8.93-9.1-1.67-3.63-3.41-7.51-5.24-11.35-4.37-9.18-3.78-14.58,3.46-21.59,5.15-4.99,7.92-10.94,11.01-17.32,5-10.34,12.53-19.46,19.05-29.06,2.78-4.1,5.63-8.15,8.57-12.13,5.89-7.97,11.87-15.88,18.29-24.46,14.64,.79,25.35,12.78,39.34,16.99,10.66-10.18,20.65-20.45,31.42-29.83,16.06-13.99,32.4-27.68,49.1-40.9,48.3-38.23,96.97-76.04,142.74-117.32,12.81-11.56,23.95-24.97,35.91-37.48,8.74-9.15,17.66-18.13,26.3-27.38,1.94-2.08,3.51-4.82,4.39-7.53,2.69-8.3,2.35-9.05-5.29-13.57-8.01-4.74-16.32-9.01-24.19-13.97-3.71-2.34-6.71-5.81-10.33-9.04,7.42-8.46,15.3-6.37,22.95-4.42,5.68,1.45,11.2,3.5,18.02,5.68,.56-5.44,1.63-9.37,1.25-13.15-1.35-13.39-1.46-26.74-7.47-39.67-4.56-9.81-7.9-20.24-13.26-29.81-1.46-2.62-1.36-6.11-2.09-9.8,4.69-.71,8.19-1.23,13.02-1.96-1.03-3.9-2.04-7.24-2.77-10.63-2.65-12.39-6.36-24.28-13.65-34.92-1.85-2.71-1.92-6.64-2.79-9.98,11.13-6.35,16.52,2.77,24.05,7.55,2.14-10.32-1.37-19.08-3.78-27.68-1.85-6.63-.85-12.14,1.84-18.18,6.61,1.03,10.09,5.17,13.27,10,7.8,11.87,11.63,25.36,15.47,38.73,3.93,13.68,6.78,27.67,10.01,41.54,1.59,6.82,3.47,13.45,9.12,19.68,1.05-2.6,2.17-4.46,2.54-6.45,3.97-21.18,7.75-42.39,11.78-63.56,.86-4.53,2.23-9.01,3.83-13.34,2.27-6.14,6.99-7.82,11.39-3.11,3.85,4.13,7.26,9.73,8.35,15.19,3.06,15.32,4.57,30.82-.39,46.28-4.54,14.14-4.28,28.27-1.85,43.16,4.23,26,4.09,52.45,.02,78.57-1.42,9.1-5.33,17.8-7.97,26.72-1.78,6-3.37,12.06-4.99,18.1-1.63,6.08-2.54,12.46-5,18.19-1.75,4.08-4.8,8.71-8.54,10.64-13.71,7.1-22.26,19.16-30.2,31.23-22.77,34.62-49.12,66.36-76.43,97.33-39.94,45.3-84.17,86.16-130.64,124.65-6.4,5.3-12.34,11.19-18.22,17.07-5.49,5.5-5.1,13.43-7.32,20.25-.49,1.52,2.14,4.51,3.91,6.23,4.26,4.12,8.86,7.89,13.98,12.38-2.72,3.76-4.82,7.05-7.3,10.02-11.93,14.32-23.92,28.59-36,42.79-1.68,1.98-3.69,4.24-6,5.04-10.9,3.79-14.62,11.28-14.82,22.59-.25,13.82-8.82,23.41-20.22,30.17-7.99,4.74-16.68,8.3-24.74,12.94-3.26,1.87-6.19,4.85-8.37,7.95-9.58,13.59-18.47,27.68-28.32,41.06-12.22,16.6-24.22,33.51-38.02,48.75-13.57,14.98-29.28,28.02-44.03,41.93-1.68,1.59-3.32,3.24-4.85,4.97-22.43,25.48-44.66,51.15-67.33,76.42-10.87,12.11-22.61,23.43-33.87,35.18-1,1.04-1.38,2.67-2.56,5.07,12.71,.01,22.85-3.15,30.78-12.06,1.33-1.49,2.68-2.98,3.81-4.62,5.31-7.76,12-13.62,20.08-18.78,9.96-6.36,18.48-14.98,29.02-23.81-4.34,5.48-7.67,9.69-11.45,14.47,2.36,1.65,4.36,3.06,6.49,4.56-8.11,5.55-9.89,14.99-14.42,24.81-1-3.56-1.54-5.49-2.11-7.5-6.07,2.1-8.09,6.37-7.56,12.36h4.87c1.45,3.74-5.55,11.15-12.66,13.32,1.38-2.39,2.61-4.53,3.83-6.66-.98-.61-1.8-1.3-1.95-1.18-4.55,3.71-9.04,7.51-13.53,11.29,1.75,7.35-4.24,6.89-8.4,8.68-3.56,1.53-6.74,3.95-10.08,5.98-3.1,1.88-6.23,3.7-9.27,5.66-2.25,1.46-4.37,3.11-6.02,5.64,17.93,.64,32.9-7.81,49.24-13.84-2.31,5.98-6.77,8.4-13.6,8.49,1.2,4.33,.67,7.16-4.43,7.62-13.55,1.23-27.11,2.62-40.57,4.56-9.84,1.42-19.53,3.81-28.93,5.7-.72,6.19,3.68,5.83,6.14,7.14,.44,2.86-.03,6.17,1.39,8.04,13.06,17.23,22.57,36.47,32.29,55.61,14.01,27.59,28.04,55.18,42.09,82.76,4.23,8.3,8.34,16.66,12.91,24.77,3.94,6.98,3.72,13.73,.71,20.89-7.47,17.81-14.3,35.89-22.23,53.49-8.06,17.88-17.13,35.3-25.76,52.93-10.1,20.63-20.3,41.2-30.25,61.9-6.66,13.86-16.49,24.06-31.36,28.89-1.88,.61-3.91,1.7-5.72,1.44-11.12-1.56-22.25-3.13-33.26-5.29-14.66-2.87-29.08-7.47-43.85-9.19-23.1-2.69-45.08-8.63-66.08-18.31-12.3-5.67-24.29-12-37.4-18.53-1.46,3.33-4,7.3-4.91,11.63-1.3,6.2-4.16,11.16-8.67,15.32-3.14,2.89-3.64,5.75-1.6,9.72,4.71,9.15,8.88,18.57,13.4,27.83,4.91,10.05,2.8,19.81-5.95,26.61-2.07,1.61-4.21,3.12-7.33,5.43,3.99,6.34,6.65,13.79,11.86,18.26,19.74,16.93,26.6,39.12,28.91,63.73,.9,9.6,2.38,19.17,4.15,28.64,.7,3.77,2.42,7.58,4.53,10.82,5.18,7.93,9.06,16.13,9.67,25.81,.84,13.26,2,26.5,3.26,39.73,.66,6.93,1.75,13.82,2.76,20.71,3.29,22.36,1.43,44.97,3.35,67.39,.65,7.61,1.94,15.16,2.86,22.75,1.35,11.18,3.08,22.23,3.38,33.64,.36,13.46,4.38,26.08,14.36,37.03,21.07,23.11,40.83,47.41,61.03,71.31,7.52,8.9,14.73,18.07,22.18,27.03,1.66,2,3.75,3.64,6.31,6.08,1-2.4,1.86-4.04,2.39-5.77,5.56-18.32,6.58-37.22,6.89-56.18,.07-4.44,1.08-7.97,5.56-9.49,3.73-1.27,5.39-3.86,5.19-7.56-.59-11.3-1.17-22.61-2.19-33.87-.16-1.74-2.34-4.14-4.11-4.76-8.25-2.91-13.48-9.09-16.32-16.6-3.26-8.6-5.36-17.74-6.98-26.82-1.34-7.46-2.45-15.32-1.56-22.75,2.02-16.81-3.53-32.88-3.63-49.33-.12-19.39-4.52-38.56-2.38-58.06,.88-8,.84-9.72,8.73-10.73,15.47-1.99,31.07-3.6,46.66-4,21.64-.55,43.31,.43,64.96,.22,9.94-.1,19.89-1.32,29.81-2.3,23.49-2.32,46.91-5.9,70.45-6.95,30.58-1.36,61.24-.77,91.76,2.7,9.89,1.13,19.98,.79,29.78,2.34,11.72,1.86,13.27,4.94,11.72,17.07-.51,3.96-1.25,8.07-.69,11.94,1.25,8.58-3.46,15.37-6.43,22.5-1.51,3.63-5.41,7.39-9.1,8.78-11.05,4.14-18.46,12.59-26.72,20.16-4.41,4.04-9.08,7.83-13.9,11.37-5.18,3.81-8.71,8.64-12.31,14-6.64,9.9-12.89,20.68-26.28,23.85-12.14,2.87-19.12,12.45-25.48,22.37-5.38,8.4-10.75,16.81-16.26,25.12-2.92,4.39-7.02,7.7-12.48,6.8-7.34-1.21-10.9,3.51-14.61,8.09-2.08,2.56-3.58,5.6-5.25,8.48-6.91,11.86-13.7,14.44-26.37,9.94-1.56-.55-3.08-1.21-5.89-2.31-5.45,11.47-6.71,23.97-11.48,36.14,11.87,2.13,11.88,10.11,10.86,18.48-.44,3.62-.72,7.45-2.16,10.7-3.48,7.88-4.03,15.99-3.72,24.41,.59,15.96,1.65,31.95,1.12,47.89-.7,20.93-2.61,41.82-4.27,62.71-1.16,14.58-2.96,29.12-4.05,43.71-.2,2.65,1.26,5.65,2.59,8.16,6.22,11.77,12.75,23.38,18.94,35.17,1.84,3.51,3.16,7.35,4.33,11.15,2.4,7.81,1.7,9.05-5.7,13.39-3.15,1.85-5.91,4.36-9.12,6.09-5.02,2.69-10.26,4.97-17.23,8.3-.08,1.46-.42,4.99-.46,8.53-.28,31.33,.03,62.67-.88,93.98-1.28,44.23-2.57,88.54-9.62,132.32-3.86,23.96-9.44,47.65-14.45,71.41-3.77,17.9-8.15,35.67-11.72,53.61-3.33,16.7-11.39,31.14-20.11,45.36-.52,.85-1.05,1.75-1.78,2.4-21.64,19.51-43.94,37.67-74.2,42.29-12.81,1.95-25.42,5.24-38.13,7.88-29.6,6.17-53.74-4.03-73.85-25.27-15.34-16.2-24.87-36.11-33.96-56.15-16.95-37.36-31.19-75.75-41.31-115.52-9.02-35.47-17.45-71.1-25.41-106.82-8.72-39.15-22.41-76.61-36.87-113.86-.57-1.48-1.56-2.8-3.09-5.5-5.44,8.35-10.35,15.75-15.13,23.25-24.9,39.12-44.54,81.09-66.11,122.02-13.96,26.48-30.08,51.8-44.95,77.81-13.71,23.98-27.2,48.09-40.49,72.3-6.57,11.95-12.09,24.49-18.76,36.38-18.92,33.71-48.54,53.67-85.42,62.16-30.24,6.96-58.46-.79-85.26-16.01-28.35-16.1-43.97-40.19-50.87-71.56-7.96-36.15-7.29-72.75-8.22-109.32-1.18-45.93-3-91.86-3.59-137.8-.37-29.28,.8-58.59,1.62-87.88,.57-20.29,1.58-40.57,2.64-60.85,1.81-34.59,6.24-68.88,12.08-103.01,6.68-39,12.7-78.13,20.09-116.99,6.38-33.56,9.35-67.24,7.82-101.32-.58-12.96-2.49-25.9-2.43-38.84,.09-17.96,1.47-35.91,2.3-53.86,.14-2.94,.3-5.88,.5-9.61-5.29-.8-10.17-1.32-14.96-2.31-10.25-2.12-15.83-5.43-16.31-17.69-.44-11.49-3.58-22.84-4.57-34.34-.97-11.23-.96-22.57-.97-33.86-.01-22.32,.52-44.63,.36-66.95-.19-26.09,4.94-51.51,8.7-77.14,5.53-37.68,15.14-74.3,27.16-110.37,1.65-4.94,2.19-10.45,2.2-15.7,.02-23.46,4.94-46.28,8.96-69.18,1.53-8.72,5.33-17.12,8.75-25.4,2.6-6.3,.49-10.84-3.62-15.25-7.36-7.88-12.99-16.75-16.7-26.97-3.94-10.87-6.65-21.57-2.32-33.01,1.02-2.7,.87-5.85,1.26-8.81-1.26-.66-2.09-1.46-2.95-1.48-24.8-.66-47.72-8.35-69.84-18.84-21.76-10.31-44.58-17.46-67.85-23.32-1.61-.41-3.25-.79-4.8-1.38-3.93-1.49-5.17-4.39-2.87-7.87,13.7-20.7,14.67-44.46,16.17-67.96,2.35-36.79-1.62-73.07-10.78-108.73-3.31-12.87-7.45-25.54-11.49-38.21-2.04-6.4-1.74-12.11,1.54-18.19,8.7-16.09,18.14-31.95,22.73-49.86,5.56-21.68,12.75-42.67,22.86-62.7,3.26-6.47,4.64-13.86,7.16-20.73,5.67-15.43,14.46-29.15,23.26-42.93,7.51-11.77,13.63-24.44,21.37-36.04,19.82-29.68,34.91-62.03,53.11-92.6,12.42-20.86,25.65-41.25,38.78-61.68,5.57-8.67,11.15-17.49,17.9-25.22,11.45-13.12,24.23-24.63,42.53-27.68,8.14-1.35,16.03-4.17,24.17-5.53,5.35-.89,8.72-4.29,12.82-7.06,10.39-7.02,20.83-14.09,31.84-20.03,8.33-4.5,17.52-7.44,26.43-10.8,4.61-1.74,7.02-4.84,7.28-9.59,.19-3.62,.04-7.25,.04-11.71-2.98-1.07-6.14-1.93-9.02-3.34-2.13-1.05-3.9-2.84-5.84-4.3h-.28Zm22.03,1817.21c.94,.5,1.87,1,2.81,1.5,35.95-37.46,69.43-77.15,104.34-116.09-9.2-13.1-20.18-23.06-31.89-32.38-9-7.17-18.77-10.72-30.46-9.36-8.07,.94-8.18,.79-9.99,9.24-4.03,18.84-8.01,37.7-12.66,56.39-5.13,20.62-11.21,41-16.45,61.59-2.43,9.57-3.83,19.4-5.7,29.11ZM653.88,844.47c4.88-1.27,7.77-1.72,10.43-2.76,8.45-3.31,16.79-6.2,25.74-1.46,1.31,.7,3.27,.14,4.92,.24,12.84,.75,25.77,.92,37.82,6.45,1,.46,2.38,.06,3.59,.06-.28-2.02-1.36-2.85-2.56-3.4-10.81-4.93-22.17-8.02-32.75-14.28-11.61-6.89-36.51,2.29-47.19,15.15Zm110.76,35.82c-2.93-17.84-29.95-28.07-48.97-29.19,9.23,5.2,16.99,10.05,25.17,14.05,8.18,4.01,13.15,12.97,23.8,15.14Zm-92.52,35.02c.23-1,.47-2.01,.71-3.01-4.88-1.33-11.91-1.11-14.2-4.3-4.63-6.45-11.22-4.33-16.65-6.4-3.26-1.24-7.38-.23-11.12-.23-.04,.49-.08,.97-.12,1.46,1.37,.78,2.73,1.56,4.32,2.46-1.87,1.19-3.3,2.09-5.57,3.53,15.09,1.43,28.11,9.39,42.63,6.49Zm293.67,348.36c-5.21,4.58-10.2,8.78-14.99,13.2-4.82,4.45-12.08,6.41-14.87,13.9,18.17-3.27,31.06-14.85,29.86-27.1Zm-276.06-451.97c6.9,.49,13.78,1.13,20.69,1.42,5.76,.24,11.55,.05,17.32,.05-12.37-4.44-24.8-7.77-38.01-1.47Zm3.17,44.94c-.27,.78-.53,1.57-.8,2.35,3.59,1.18,7.18,2.36,10.78,3.54,.27-.87,.54-1.74,.81-2.61-3.61-1.09-7.2-2.18-10.79-3.28Zm-25.12,48.34c.06,.86,.11,1.73,.17,2.59,2.78,.2,5.55,.39,8.33,.59,.06-.7,.12-1.41,.18-2.11-2.9-.35-5.79-.71-8.68-1.07Z"/></g><g id="Layer_1"><path class="cls-2" d="M339.96,938.91c4.69,1.5,9.38,3,15.56,4.98,.5-9,1.23-17.19,1.3-25.38,.05-5.37-3.48-8.5-8.56-9.6-6.17-1.34-12.41-2.39-18.6-3.64-6.42-1.29-12.82-2.66-19.1-5.13,13.11,1.09,26.22,2.18,39.48,3.28,.33-1.58,.72-3.42,1.26-6.01,2.05,2.46,3.6,4.32,6.77,8.11,.61-6.27,1-10.3,1.43-14.73-13.66-4.22-26.54-8.88-40.38-7.1-13.38,1.72-26.65,4.3-40.1,6.53,26.11-12.11,53.19-13.09,82.88-5.86-6.71-6.39-15.78-8.31-39.62-7.36-13.06,.52-26.04,3.24-39.26,4.99,25.61-10.33,51.72-12.8,78.86-5.51,2.88-11.13,5.84-21.16,7.89-31.37,.64-3.2-.76-7.03-1.91-10.33-4.28-12.22-8.96-24.3-13.24-36.53-1.06-3.02-1.15-6.38-.9-9.84,6.14,14.18,9.86,29.33,18.78,43.84,1.1-2.98,1.96-4.62,2.3-6.35,.89-4.55,.61-9.58,2.48-13.65,5.78-12.55,.32-22.48-6.13-32.52-2.34-3.64-4.13-7.63-6.18-11.47,.61-.39,1.21-.77,1.82-1.16,5.07,5.52,10.13,11.03,15.74,17.13v-37.75c-16.64-7.35-19.72-12.03-16.82-26.01,8.85-1.74,14.41,5.56,21.68,8.76,8.8-11.44,1.95-26.07,9.23-37.72,3.77-.36,4.97,2.33,4.43,5.5-1.27,7.46,2.64,10.79,8.9,13.2,5.49,2.11,10.69,4.96,16.95,7.92,.76-3.43,1.53-5.53,1.66-7.67,1.64-26.87,3.23-53.74,4.75-80.61,1.39-24.54,2.27-49.11,4.12-73.61,1.79-23.82,4.73-47.55,6.77-71.36,1.24-14.54,1.38-29.17,2.66-43.7,1.25-14.22,2.82-28.44,5.14-42.52,3.66-22.29,8.13-44.44,12.02-66.69,.4-2.32-.27-5.2-1.38-7.34-4.21-8.12-3.64-12.85,3.04-20.07,.68-.73,1.73-1.36,1.96-2.22,3-10.79,2.28-21.76,.08-32.45-.52-2.51-5.45-4.24-8.51-6.06-6.37-3.78-7.93-7.34-5.64-13.76,.33-.91,.73-2.27,1.41-2.5,6.84-2.31,5.62-7.96,5.67-13.12,.2-18.21,1.41-36.37,4.17-54.36,.93-6.03,3.03-11.95,5.18-17.7,7.3-19.46,12.39-39.36,12.73-60.26,.18-11.06,4.99-20.5,10.39-29.65,.95-1.61,4.06-3.25,5.67-2.85,2.11,.53,4.89,2.82,5.3,4.79,1.05,5.02,1.12,10.28,1.26,15.46,.18,6.81,.04,13.63,.04,21.1,3.66,1.92,6.87,1.3,9.14-3.2,5.39-10.65,11.01-21.19,16.22-31.93,8.02-16.53,17.21-32.33,28.97-46.48,5-6.01,12.2-5.77,20.19-5.29,1.52,4.31,3.08,8.76,4.93,13.99,4.45-7.62,8.53-15.02,12.99-22.17,4.84-7.76,12.45-12.07,21.06-13.64,3.96-.72,8.75-4.87,12.83,.29,2.53,10.16-6.82,15.54-10.66,24.75,8.67-6.64,16-12.39,23.51-17.91,2.32-1.71,5.01-3.43,7.75-3.94,3.47-.64,8.05-1.22,9.68,2.91,.87,2.21-.12,5.76-1.39,8.08-2.82,5.15-6.22,10.01-9.62,14.82-4.91,6.95-10.02,13.76-15.04,20.63-.77,1.06-2.22,2.15-2.18,3.18,.38,8.98-7.83,13.03-11.14,19.86-.26,.54-1.22,.75-1.44,1.28-5.74,13.61-15.67,24.49-23.77,36.55-.59,.89-.34,2.34-.58,4.39,2.02-.5,3.59-.41,4.28-1.14,6.94-7.31,16.67-8.12,25.46-9.55,7.58-1.24,15.79,.73,23.6,2.03,2.15,.36,4.51,3.11,5.53,5.33,.63,1.38-.49,4.7-1.86,5.62-2.65,1.79-5.94,2.83-9.11,3.59-13.14,3.14-20.54,13.31-28.77,22.66-5.54,6.29-11.93,11.82-17.57,18.03-3.45,3.8-6.52,8.04-9.24,12.4-7.58,12.16-15.4,24.22-22.16,36.83-5.75,10.72-10.49,22.07-11.44,34.48-.34,4.41,3.5,7.35,7.98,6.14,1.82-.49,3.33-2.06,5.07-2.99,4.55-2.43,7.88-1.55,10.7,2.78,1.42,2.17,2.77,4.37,4.3,6.77-5.41,3.93-10.51,7.62-16.37,11.87-.58-.14-2.46-.76-4.39-1.02-7.66-1.04-9.53,.5-9.64,8.37-.13,8.99-.15,17.99,.11,26.98,.06,2.06,1.16,4.27,2.3,6.09,4.97,7.85,4.4,16.1-2.74,22.13-4.03,3.4-5.45,7.26-5.69,12.08-.82,16.61-1.91,33.2-2.46,49.82-.87,26.59-2.33,53.21-1.85,79.78,.8,44.46,3.01,88.9,4.44,133.35,.62,19.24,1.74,38.55,.86,57.75-.88,19.21-3.31,38.41-6.26,57.43-3.1,19.98-3.87,20.26,14.56,27.63,17.9,7.16,36.17,13.41,54.27,20.09,2.71,1,5.36,2.18,8.33,3.4-5.28,22.91-16.32,43.42-18.86,67.03,4.17-.76,4.37-4.05,5.63-6.38,9.55-17.73,21.3-33.58,37.93-45.44,7.54-5.38,16.28-8.42,24.99-8.9,13.53-.74,27.02-.07,40.38,4.76,20.62,7.47,38.04,19.71,54.74,33.19,4.94,3.99,8.47,9.54,14.58,12.54,2.66,1.3,4.19,5.01,6.07,7.73,.93,1.36,1.13,3.37,2.28,4.4,15.24,13.65,22.84,32.06,30.75,50.1,8.39,19.16,16.18,38.61,23.43,58.23,4.89,13.24,8.38,27.01,12.53,40.53,.59,1.91,1.14,3.88,2.07,5.62,8.57,16,17.5,31.82,25.74,47.99,3.46,6.8,4.78,14.73,8.47,21.36,3.03,5.46,8.02,9.87,12.34,14.56,10.46,11.37,24.86,19.06,31.76,33.77,4.08,8.69,9.12,17.12,11.78,26.24,4.45,15.26,9.26,30.6,9.45,46.79,.02,1.96,.58,3.94,1.09,5.86,.32,1.23,1.01,2.36,1.46,3.37,8.68-.36,16.93-.71,25.18-1.06,7.48-.32,10.57-6,14.04-11.35,4.88-7.51,9.76-15.03,15.01-22.27,2.3-3.18,5.53-5.68,8.93-9.1-1.67-3.63-3.41-7.51-5.24-11.35-4.37-9.18-3.78-14.58,3.46-21.59,5.15-4.99,7.92-10.94,11.01-17.32,5-10.34,12.53-19.46,19.05-29.06,2.78-4.1,5.63-8.15,8.57-12.13,5.89-7.97,11.87-15.88,18.29-24.46,14.64,.79,25.35,12.78,39.34,16.99,10.66-10.18,20.65-20.45,31.42-29.83,16.06-13.99,32.4-27.68,49.1-40.9,48.3-38.23,96.97-76.04,142.74-117.32,12.81-11.56,23.95-24.97,35.91-37.48,8.74-9.15,17.66-18.13,26.3-27.38,1.94-2.08,3.51-4.82,4.39-7.53,2.69-8.3,2.35-9.05-5.29-13.57-8.01-4.74-16.32-9.01-24.19-13.97-3.71-2.34-6.71-5.81-10.33-9.04,7.42-8.46,15.3-6.37,22.95-4.42,5.68,1.45,11.2,3.5,18.02,5.68,.56-5.44,1.63-9.37,1.25-13.15-1.35-13.39-1.46-26.74-7.47-39.67-4.56-9.81-7.9-20.24-13.26-29.81-1.46-2.62-1.36-6.11-2.09-9.8,4.69-.71,8.19-1.23,13.02-1.96-1.03-3.9-2.04-7.24-2.77-10.63-2.65-12.39-6.36-24.28-13.65-34.92-1.85-2.71-1.92-6.64-2.79-9.98,11.13-6.35,16.52,2.77,24.05,7.55,2.14-10.32-1.37-19.08-3.78-27.68-1.85-6.63-.85-12.14,1.84-18.18,6.61,1.03,10.09,5.17,13.27,10,7.8,11.87,11.63,25.36,15.47,38.73,3.93,13.68,6.78,27.67,10.01,41.54,1.59,6.82,3.47,13.45,9.12,19.68,1.05-2.6,2.17-4.46,2.54-6.45,3.97-21.18,7.75-42.39,11.78-63.56,.86-4.53,2.23-9.01,3.83-13.34,2.27-6.14,6.99-7.82,11.39-3.11,3.85,4.13,7.26,9.73,8.35,15.19,3.06,15.32,4.57,30.82-.39,46.28-4.54,14.14-4.28,28.27-1.85,43.16,4.23,26,4.09,52.45,.02,78.57-1.42,9.1-5.33,17.8-7.97,26.72-1.78,6-3.37,12.06-4.99,18.1-1.63,6.08-2.54,12.46-5,18.19-1.75,4.08-4.8,8.71-8.54,10.64-13.71,7.1-22.26,19.16-30.2,31.23-22.77,34.62-49.12,66.36-76.43,97.33-39.94,45.3-84.17,86.16-130.64,124.65-6.4,5.3-12.34,11.19-18.22,17.07-5.49,5.5-5.1,13.43-7.32,20.25-.49,1.52,2.14,4.51,3.91,6.23,4.26,4.12,8.86,7.89,13.98,12.38-2.72,3.76-4.82,7.05-7.3,10.02-11.93,14.32-23.92,28.59-36,42.79-1.68,1.98-3.69,4.24-6,5.04-10.9,3.79-14.62,11.28-14.82,22.59-.25,13.82-8.82,23.41-20.22,30.17-7.99,4.74-16.68,8.3-24.74,12.94-3.26,1.87-6.19,4.85-8.37,7.95-9.58,13.59-18.47,27.68-28.32,41.06-12.22,16.6-24.22,33.51-38.02,48.75-13.57,14.98-29.28,28.02-44.03,41.93-1.68,1.59-3.32,3.24-4.85,4.97-22.43,25.48-44.66,51.15-67.33,76.42-10.87,12.11-22.61,23.43-33.87,35.18-1,1.04-1.38,2.67-2.56,5.07,12.71,.01,22.85-3.15,30.78-12.06,1.33-1.49,2.68-2.98,3.81-4.62,5.31-7.76,12-13.62,20.08-18.78,9.96-6.36,18.48-14.98,29.02-23.81-4.34,5.48-7.67,9.69-11.45,14.47,2.36,1.65,4.36,3.06,6.49,4.56-8.11,5.55-9.89,14.99-14.42,24.81-1-3.56-1.54-5.49-2.11-7.5-6.07,2.1-8.09,6.37-7.56,12.36h4.87c1.45,3.74-5.55,11.15-12.66,13.32,1.38-2.39,2.61-4.53,3.83-6.66-.98-.61-1.8-1.3-1.95-1.18-4.55,3.71-9.04,7.51-13.53,11.29,1.75,7.35-4.24,6.89-8.4,8.68-3.56,1.53-6.74,3.95-10.08,5.98-3.1,1.88-6.23,3.7-9.27,5.66-2.25,1.46-4.37,3.11-6.02,5.64,17.93,.64,32.9-7.81,49.24-13.84-2.31,5.98-6.77,8.4-13.6,8.49,1.2,4.33,.67,7.16-4.43,7.62-13.55,1.23-27.11,2.62-40.57,4.56-9.84,1.42-19.53,3.81-28.93,5.7-.72,6.19,3.68,5.83,6.14,7.14,.44,2.86-.03,6.17,1.39,8.04,13.06,17.23,22.57,36.47,32.29,55.61,14.01,27.59,28.04,55.18,42.09,82.76,4.23,8.3,8.34,16.66,12.91,24.77,3.94,6.98,3.72,13.73,.71,20.89-7.47,17.81-14.3,35.89-22.23,53.49-8.06,17.88-17.13,35.3-25.76,52.93-10.1,20.63-20.3,41.2-30.25,61.9-6.66,13.86-16.49,24.06-31.36,28.89-1.88,.61-3.91,1.7-5.72,1.44-11.12-1.56-22.25-3.13-33.26-5.29-14.66-2.87-29.08-7.47-43.85-9.19-23.1-2.69-45.08-8.63-66.08-18.31-12.3-5.67-24.29-12-37.4-18.53-1.46,3.33-4,7.3-4.91,11.63-1.3,6.2-4.16,11.16-8.67,15.32-3.14,2.89-3.64,5.75-1.6,9.72,4.71,9.15,8.88,18.57,13.4,27.83,4.91,10.05,2.8,19.81-5.95,26.61-2.07,1.61-4.21,3.12-7.33,5.43,3.99,6.34,6.65,13.79,11.86,18.26,19.74,16.93,26.6,39.12,28.91,63.73,.9,9.6,2.38,19.17,4.15,28.64,.7,3.77,2.42,7.58,4.53,10.82,5.18,7.93,9.06,16.13,9.67,25.81,.84,13.26,2,26.5,3.26,39.73,.66,6.93,1.75,13.82,2.76,20.71,3.29,22.36,1.43,44.97,3.35,67.39,.65,7.61,1.94,15.16,2.86,22.75,1.35,11.18,3.08,22.23,3.38,33.64,.36,13.46,4.38,26.08,14.36,37.03,21.07,23.11,40.83,47.41,61.03,71.31,7.52,8.9,14.73,18.07,22.18,27.03,1.66,2,3.75,3.64,6.31,6.08,1-2.4,1.86-4.04,2.39-5.77,5.56-18.32,6.58-37.22,6.89-56.18,.07-4.44,1.08-7.97,5.56-9.49,3.73-1.27,5.39-3.86,5.19-7.56-.59-11.3-1.17-22.61-2.19-33.87-.16-1.74-2.34-4.14-4.11-4.76-8.25-2.91-13.48-9.09-16.32-16.6-3.26-8.6-5.36-17.74-6.98-26.82-1.34-7.46-2.45-15.32-1.56-22.75,2.02-16.81-3.53-32.88-3.63-49.33-.12-19.39-4.52-38.56-2.38-58.06,.88-8,.84-9.72,8.73-10.73,15.47-1.99,31.07-3.6,46.66-4,21.64-.55,43.31,.43,64.96,.22,9.94-.1,19.89-1.32,29.81-2.3,23.49-2.32,46.91-5.9,70.45-6.95,30.58-1.36,61.24-.77,91.76,2.7,9.89,1.13,19.98,.79,29.78,2.34,11.72,1.86,13.27,4.94,11.72,17.07-.51,3.96-1.25,8.07-.69,11.94,1.25,8.58-3.46,15.37-6.43,22.5-1.51,3.63-5.41,7.39-9.1,8.78-11.05,4.14-18.46,12.59-26.72,20.16-4.41,4.04-9.08,7.83-13.9,11.37-5.18,3.81-8.71,8.64-12.31,14-6.64,9.9-12.89,20.68-26.28,23.85-12.14,2.87-19.12,12.45-25.48,22.37-5.38,8.4-10.75,16.81-16.26,25.12-2.92,4.39-7.02,7.7-12.48,6.8-7.34-1.21-10.9,3.51-14.61,8.09-2.08,2.56-3.58,5.6-5.25,8.48-6.91,11.86-13.7,14.44-26.37,9.94-1.56-.55-3.08-1.21-5.89-2.31-5.45,11.47-6.71,23.97-11.48,36.14,11.87,2.13,11.88,10.11,10.86,18.48-.44,3.62-.72,7.45-2.16,10.7-3.48,7.88-4.03,15.99-3.72,24.41,.59,15.96,1.65,31.95,1.12,47.89-.7,20.93-2.61,41.82-4.27,62.71-1.16,14.58-2.96,29.12-4.05,43.71-.2,2.65,1.26,5.65,2.59,8.16,6.22,11.77,12.75,23.38,18.94,35.17,1.84,3.51,3.16,7.35,4.33,11.15,2.4,7.81,1.7,9.05-5.7,13.39-3.15,1.85-5.91,4.36-9.12,6.09-5.02,2.69-10.26,4.97-17.23,8.3-.08,1.46-.42,4.99-.46,8.53-.28,31.33,.03,62.67-.88,93.98-1.28,44.23-2.57,88.54-9.62,132.32-3.86,23.96-9.44,47.65-14.45,71.41-3.77,17.9-8.15,35.67-11.72,53.61-3.33,16.7-11.39,31.14-20.11,45.36-.52,.85-1.05,1.75-1.78,2.4-21.64,19.51-43.94,37.67-74.2,42.29-12.81,1.95-25.42,5.24-38.13,7.88-29.6,6.17-53.74-4.03-73.85-25.27-15.34-16.2-24.87-36.11-33.96-56.15-16.95-37.36-31.19-75.75-41.31-115.52-9.02-35.47-17.45-71.1-25.41-106.82-8.72-39.15-22.41-76.61-36.87-113.86-.57-1.48-1.56-2.8-3.09-5.5-5.44,8.35-10.35,15.75-15.13,23.25-24.9,39.12-44.54,81.09-66.11,122.02-13.96,26.48-30.08,51.8-44.95,77.81-13.71,23.98-27.2,48.09-40.49,72.3-6.57,11.95-12.09,24.49-18.76,36.38-18.92,33.71-48.54,53.67-85.42,62.16-30.24,6.96-58.46-.79-85.26-16.01-28.35-16.1-43.97-40.19-50.87-71.56-7.96-36.15-7.29-72.75-8.22-109.32-1.18-45.93-3-91.86-3.59-137.8-.37-29.28,.8-58.59,1.62-87.88,.57-20.29,1.58-40.57,2.64-60.85,1.81-34.59,6.24-68.88,12.08-103.01,6.68-39,12.7-78.13,20.09-116.99,6.38-33.56,9.35-67.24,7.82-101.32-.58-12.96-2.49-25.9-2.43-38.84,.09-17.96,1.47-35.91,2.3-53.86,.14-2.94,.3-5.88,.5-9.61-5.29-.8-10.17-1.32-14.96-2.31-10.25-2.12-15.83-5.43-16.31-17.69-.44-11.49-3.58-22.84-4.57-34.34-.97-11.23-.96-22.57-.97-33.86-.01-22.32,.52-44.63,.36-66.95-.19-26.09,4.94-51.51,8.7-77.14,5.53-37.68,15.14-74.3,27.16-110.37,1.65-4.94,2.19-10.45,2.2-15.7,.02-23.46,4.94-46.28,8.96-69.18,1.53-8.72,5.33-17.12,8.75-25.4,2.6-6.3,.49-10.84-3.62-15.25-7.36-7.88-12.99-16.75-16.7-26.97-3.94-10.87-6.65-21.57-2.32-33.01,1.02-2.7,.87-5.85,1.26-8.81-1.26-.66-2.09-1.46-2.95-1.48-24.8-.66-47.72-8.35-69.84-18.84-21.76-10.31-44.58-17.46-67.85-23.32-1.61-.41-3.25-.79-4.8-1.38-3.93-1.49-5.17-4.39-2.87-7.87,13.7-20.7,14.67-44.46,16.17-67.96,2.35-36.79-1.62-73.07-10.78-108.73-3.31-12.87-7.45-25.54-11.49-38.21-2.04-6.4-1.74-12.11,1.54-18.19,8.7-16.09,18.14-31.95,22.73-49.86,5.56-21.68,12.75-42.67,22.86-62.7,3.26-6.47,4.64-13.86,7.16-20.73,5.67-15.43,14.46-29.15,23.26-42.93,7.51-11.77,13.63-24.44,21.37-36.04,19.82-29.68,34.91-62.03,53.11-92.6,12.42-20.86,25.65-41.25,38.78-61.68,5.57-8.67,11.15-17.49,17.9-25.22,11.45-13.12,24.23-24.63,42.53-27.68,8.14-1.35,16.03-4.17,24.17-5.53,5.35-.89,8.72-4.29,12.82-7.06,10.39-7.02,20.83-14.09,31.84-20.03,8.33-4.5,17.52-7.44,26.43-10.8,4.61-1.74,7.02-4.84,7.28-9.59,.19-3.62,.04-7.25,.04-11.71-2.98-1.07-6.14-1.93-9.02-3.34-2.13-1.05-3.9-2.84-5.84-4.3h-.28Zm22.03,1817.21c.94,.5,1.87,1,2.81,1.5,35.95-37.46,69.43-77.15,104.34-116.09-9.2-13.1-20.18-23.06-31.89-32.38-9-7.17-18.77-10.72-30.46-9.36-8.07,.94-8.18,.79-9.99,9.24-4.03,18.84-8.01,37.7-12.66,56.39-5.13,20.62-11.21,41-16.45,61.59-2.43,9.57-3.83,19.4-5.7,29.11ZM633.88,824.47c4.88-1.27,7.77-1.72,10.43-2.76,8.45-3.31,16.79-6.2,25.74-1.46,1.31,.7,3.27,.14,4.92,.24,12.84,.75,25.77,.92,37.82,6.45,1,.46,2.38,.06,3.59,.06-.28-2.02-1.36-2.85-2.56-3.4-10.81-4.93-22.17-8.02-32.75-14.28-11.61-6.89-36.51,2.29-47.19,15.15Zm110.76,35.82c-2.93-17.84-29.95-28.07-48.97-29.19,9.23,5.2,16.99,10.05,25.17,14.05,8.18,4.01,13.15,12.97,23.8,15.14Zm-92.52,35.02c.23-1,.47-2.01,.71-3.01-4.88-1.33-11.91-1.11-14.2-4.3-4.63-6.45-11.22-4.33-16.65-6.4-3.26-1.24-7.38-.23-11.12-.23-.04,.49-.08,.97-.12,1.46,1.37,.78,2.73,1.56,4.32,2.46-1.87,1.19-3.3,2.09-5.57,3.53,15.09,1.43,28.11,9.39,42.63,6.49Zm293.67,348.36c-5.21,4.58-10.2,8.78-14.99,13.2-4.82,4.45-12.08,6.41-14.87,13.9,18.17-3.27,31.06-14.85,29.86-27.1Zm-276.06-451.97c6.9,.49,13.78,1.13,20.69,1.42,5.76,.24,11.55,.05,17.32,.05-12.37-4.44-24.8-7.77-38.01-1.47Zm3.17,44.94c-.27,.78-.53,1.57-.8,2.35,3.59,1.18,7.18,2.36,10.78,3.54,.27-.87,.54-1.74,.81-2.61-3.61-1.09-7.2-2.18-10.79-3.28Zm-25.12,48.34c.06,.86,.11,1.73,.17,2.59,2.78,.2,5.55,.39,8.33,.59,.06-.7,.12-1.41,.18-2.11-2.9-.35-5.79-.71-8.68-1.07Z"/></g></svg>