<?xml version="1.0" encoding="UTF-8"?><svg id="Layer_1" xmlns="http://www.w3.org/2000/svg" viewBox="0 0 293.15 32.04"><defs><style>.cls-1,.cls-2{fill:#fffae5;}.cls-2{font-family:ArialMT, Arial;font-size:12px;}</style></defs><g><path class="cls-1" d="M173.76,1.32c0,1.76-.08,3.52,0,5.28,.17,3.7-1.28,6.35-4.81,7.73,.03,.09,.04,.19,.08,.2,3.43,1.42,4.85,4.02,4.73,7.67-.11,3.28-.01,6.56,0,9.84h-6.72c.01-3.12,.1-6.24,.01-9.35-.07-2.44-2-4.65-4.46-4.95-2.03-.25-4.12-.05-6.33-.05v8.68h-6.74V1.32h6.72V11.87c2.16,0,4.16,.16,6.13-.04,2.55-.26,4.56-2.47,4.69-5.01,.1-1.83,0-3.67-.02-5.5,2.24,0,4.48,0,6.72,0Z"/><path class="cls-1" d="M23.52,1.32V6.97H15.28V26.42h-6.81V7.08H0V1.32c7.84,0,15.68,0,23.52,0Z"/><path class="cls-1" d="M85.28,31.72c-2.14,0-4.06-.01-5.97,0-.93,0-.74-.65-.74-1.17,0-6.04,0-12.08,0-18.12,0-1.71,0-3.42,0-5.05,.19-.13,.25-.21,.31-.21,4.2-.02,8.4-.18,12.59,0,5.27,.23,9.27,4.74,9.08,9.9-.19,5.25-4.36,9.25-9.69,9.3-1.35,.01-2.7,0-4.13,0v-5.58c1.11,0,2.22,.07,3.32-.01,2.2-.17,3.81-1.94,3.78-4.06-.04-2.13-1.68-3.83-3.88-3.96-.88-.05-1.76-.02-2.64-.02-.63,0-1.26,0-2.03,0V31.72Z"/><path class="cls-1" d="M63.52,26.32v-5.54c.98,0,1.89,.02,2.8,0,2.5-.08,4.31-1.81,4.28-4.08-.02-2.26-1.87-3.98-4.34-4.03-1-.02-2,.06-3-.02-.98-.08-1.3,.24-1.29,1.26,.05,5.4,.02,10.79,.03,16.19,0,.47,0,.94,0,1.48h-6.6V7.08c.46,0,.85,0,1.24,0,3.72,0,7.44-.03,11.15,0,5.27,.05,9.49,4.32,9.51,9.6,.02,5.29-4.17,9.56-9.45,9.63-1.4,.02-2.79,0-4.31,0Z"/><path class="cls-1" d="M53.58,7.32V26.45h-6.58V12.88c-1.88,0-3.61-.14-5.29,.04-1.92,.21-3.32,2.06-3.3,3.99,.02,1.89,1.37,3.56,3.3,3.86,1.21,.19,2.46,.15,3.78,.22v5.37c-3.92,.26-7.84,.48-10.93-2.68-2.69-2.75-3.55-6.06-2.39-9.73,1.17-3.72,3.81-6.22,7.66-6.54,4.52-.38,9.09-.09,13.75-.09Z"/><path class="cls-1" d="M123.81,20.96v5.47c-.4,.03-.75,.07-1.1,.07-3.76,0-7.52,.02-11.28,0-5.3-.03-9.57-4.28-9.59-9.52-.02-5.36,4.16-9.66,9.51-9.71,3.96-.04,7.92,0,11.88,0,.12,0,.23,.05,.54,.11-.23,2.4,.72,4.92-1.13,7.16-.98,1.2-1.7,2.61-2.58,3.9-.2,.29-.58,.64-.89,.65-1.98,.06-3.97,.03-6.22,.03,1.41-2.16,2.67-4.11,4.03-6.2-1.84,0-3.51-.15-5.14,.04-1.89,.22-3.26,1.99-3.32,3.86-.06,1.82,1.31,3.54,3.21,3.97,.58,.13,1.19,.16,1.78,.16,3.39,.01,6.79,0,10.3,0Z"/><path class="cls-1" d="M132.27,26.46h-6.57c-.02-.46-.06-.88-.06-1.31,0-3.63,0-7.27,0-10.9,0-4.23,2.75-6.99,6.96-6.99,1.71,0,3.42,0,5.22,0v5.55c-1,0-1.91-.03-2.81,0-1.77,.06-2.72,1.01-2.73,2.8-.02,3.16,0,6.31,0,9.47,0,.43,0,.86,0,1.39Z"/><path class="cls-1" d="M31.43,7.26v5.55c-.88,0-1.71-.03-2.53,0-1.64,.08-2.55,1.03-2.56,2.68-.01,3.2,0,6.39,0,9.59,0,.43,0,.86,0,1.35h-6.59c-.02-.39-.06-.77-.06-1.15,0-3.75-.01-7.51,0-11.26,.02-3.96,2.75-6.72,6.69-6.75,1.63-.01,3.27,0,5.05,0Z"/><path class="cls-1" d="M229.7,26.45v-5.61c.99,0,1.93,.01,2.87,0,2.42-.03,4.24-1.74,4.25-3.97,.02-2.27-1.84-4.03-4.29-4.06-1.36-.01-2.71,0-4.24,0V31.7h-6.65V7.06c4.87,.14,9.74-.14,14.48,.52,4.84,.67,7.84,5.44,7.32,10.3-.51,4.75-4.44,8.39-9.3,8.56-1.43,.05-2.86,0-4.44,0Z"/><path class="cls-1" d="M266.45,7.34c-.04,2.73,.66,5.5-1.48,7.76-.08,.09-.13,.2-.2,.3-.83,1.22-1.41,2.9-2.57,3.52-1.16,.62-2.88,.18-4.36,.2-.63,0-1.26,0-2.18,0,1.4-2.14,2.67-4.09,4.14-6.36-2.06,.1-3.89,0-5.65,.32-1.8,.33-2.96,2.14-2.9,3.93,.05,1.79,1.33,3.35,3.14,3.76,.66,.15,1.35,.18,2.02,.18,3.35,.02,6.7,0,10.12,0v5.34c-.08,.06-.14,.15-.21,.15-4.32,.01-8.64,.19-12.95-.02-5.15-.25-8.96-4.73-8.81-10,.14-4.98,4.36-9.11,9.45-9.16,3.8-.04,7.6-.01,11.4,0,.31,0,.62,.05,1.03,.08Z"/><path class="cls-1" d="M209.19,19.12c1.42-2.17,2.68-4.1,3.94-6.02-.02-.13-.04-.26-.06-.38-1.94,.15-3.93,.1-5.8,.53-1.59,.36-2.58,2.27-2.48,3.86,.11,1.66,1.27,3.16,2.89,3.61,.64,.18,1.34,.23,2.01,.24,3,.02,6,.01,9,.01,.43,0,.86,0,1.36,0v5.34c-.09,.06-.15,.15-.21,.15-4.32,.01-8.64,.2-12.95-.02-5.11-.26-9.01-4.83-8.78-9.9,.23-5.17,4.34-9.21,9.48-9.26,3.8-.04,7.6,0,11.4,0,.31,0,.62,.05,1.08,.08-.11,2.66,.63,5.35-1.44,7.65-.9,1-1.47,2.28-2.27,3.38-.24,.34-.72,.7-1.1,.71-1.91,.07-3.83,.03-6.06,.03Z"/><path class="cls-1" d="M196.77,20.96v5.47c-.41,.02-.76,.06-1.11,.06-3.72,0-7.44,.02-11.16,0-5.42-.02-9.73-4.34-9.69-9.67,.04-5.3,4.3-9.53,9.68-9.56,4.04-.02,8.07,0,12.31,0-.24,2.51,.71,5.03-1.16,7.27-.99,1.19-1.71,2.61-2.59,3.89-.2,.29-.58,.65-.88,.66-1.99,.06-3.97,.03-6.23,.03,1.4-2.15,2.66-4.1,4-6.16-1.85,0-3.57-.18-5.23,.05-1.91,.26-3.24,2.09-3.2,3.94,.04,1.84,1.34,3.44,3.2,3.84,.62,.13,1.27,.16,1.9,.16,3.35,.02,6.7,0,10.16,0Z"/><path class="cls-1" d="M274.96,26.45h-6.57c-.02-.43-.06-.81-.07-1.2,0-3.59-.01-7.19,0-10.78,.01-4.56,2.67-7.21,7.22-7.21,1.63,0,3.25,0,4.95,0v5.54c-.93,0-1.83-.02-2.73,0-1.85,.06-2.78,1-2.79,2.85-.02,3.15,0,6.31,0,9.46,0,.43,0,.85,0,1.32Z"/></g><text class="cls-2" transform="translate(283.38 10.3)"><tspan x="0" y="0">®</tspan></text></svg>